NovaGothic.glyphspackage
{
glyphname = exclam;
layers = (
{
layerId = m01;
shapes = (
{
closed = 1;
nodes = (
(60,0,l),
(120,0,l),
(120,60,l),
(60,60,l)
);
},
{
closed = 1;
nodes = (
(60,150,l),
(120,150,l),
(120,701,l),
(60,701,l)
);
}
);
width = 180;
},
{
layerId = m002;
shapes = (
{
closed = 1;
nodes = (
(60,0,l),
(180,0,l),
(180,120,l),
(60,120,l)
);
},
{
closed = 1;
nodes = (
(60,180,l),
(180,180,l),
(180,700,l),
(60,700,l)
);
}
);
width = 240;
}
);
unicode = 33;
}
{
glyphname = quotedbl;
layers = (
{
layerId = m01;
shapes = (
{
closed = 1;
nodes = (
(240,550,l),
(239,670,l),
(180,670,l),
(180,550,l)
);
},
{
closed = 1;
nodes = (
(120,550,l),
(120,670,l),
(60,670,l),
(60,550,l)
);
}
);
width = 300;
},
{
layerId = m002;
shapes = (
{
closed = 1;
nodes = (
(420,400,l),
(420,640,l),
(300,640,l),
(300,400,l)
);
},
{
closed = 1;
nodes = (
(180,400,l),
(180,640,l),
(60,640,l),
(60,400,l)
);
}
);
width = 480;
}
);
unicode = 34;
}
{
glyphname = numbersign;
layers = (
{
layerId = m01;
shapes = (
{
closed = 1;
nodes = (
(279,700,l),
(99,-60,l),
(165,-60,l),
(345,700,l)
);
},
{
closed = 1;
nodes = (
(585,700,l),
(405,-60,l),
(471,-60,l),
(651,700,l)
);
},
{
closed = 1;
nodes = (
(120,530,l),
(120,470,l),
(720,470,l),
(720,530,l)
);
},
{
closed = 1;
nodes = (
(40,210,l),
(40,150,l),
(640,150,l),
(640,210,l)
);
}
);
width = 760;
},
{
layerId = m002;
shapes = (
{
closed = 1;
nodes = (
(245,700,l),
(65,-60,l),
(195,-60,l),
(375,700,l)
);
},
{
closed = 1;
nodes = (
(555,700,l),
(375,-60,l),
(505,-60,l),
(685,700,l)
);
},
{
closed = 1;
nodes = (
(100,560,l),
(100,440,l),
(740,440,l),
(740,560,l)
);
},
{
closed = 1;
nodes = (
(20,240,l),
(20,120,l),
(660,120,l),
(660,240,l)
);
}
);
width = 760;
}
);
unicode = 35;
}
{
glyphname = ampersand;
layers = (
{
background = {
guides = (
{
angle = -50;
pos = (169,480);
},
{
angle = 60;
pos = (396,110);
},
{
angle = 30;
pos = (320,454);
},
{
angle = -30;
pos = (240,200);
}
);
shapes = (
{
attr = {
strokeHeight = 60;
strokeWidth = 60;
};
closed = 0;
nodes = (
(628,-67,l),
(169,480,l),
(151,501,o),
(140,528,o),
(140,558,cs),
(140,624,o),
(194,678,o),
(260,678,cs),
(326,678,o),
(380,624,o),
(380,558,cs),
(380,514,o),
(356,475,o),
(320,454,cs),
(150,356,l),
(96,325,o),
(60,266,o),
(60,200,cs),
(60,101,o),
(141,20,o),
(240,20,cs),
(289,20,o),
(334,40,o),
(367,73,cs),
(378,84,o),
(388,96,o),
(396,110,cs),
(539,357,l)
);
}
);
};
guides = (
{
angle = -45;
pos = (279,182);
},
{
angle = -45;
pos = (260,562);
},
{
angle = 45;
pos = (260,562);
}
);
layerId = m01;
shapes = (
{
closed = 1;
nodes = (
(370,125,l),
(363,113,o),
(356,104,o),
(346,94,c),
(317,65,o),
(283,50,o),
(240,50,c),
(153,50,o),
(90,113,o),
(90,200,c),
(90,258,o),
(118,303,o),
(165,330,c),
(335,428,l),
(380,454,o),
(410,503,o),
(410,558,c),
(410,640,o),
(342,708,o),
(260,708,c),
(178,708,o),
(110,640,o),
(110,558,c),
(110,517,o),
(128,479,o),
(154,452,c),
(533,0,l),
(611,0,l),
(196,494,l),
(179,512,o),
(170,532,o),
(170,558,c),
(170,612,o),
(206,648,o),
(260,648,c),
(314,648,o),
(350,612,o),
(350,558,c),
(350,522,o),
(334,497,o),
(305,480,c),
(135,382,l),
(72,346,o),
(30,277,o),
(30,200,c),
(30,85,o),
(125,-10,o),
(240,-10,c),
(297,-10,o),
(350,14,o),
(388,52,c),
(400,64,o),
(413,79,o),
(422,95,c),
(582,372,l),
(513,372,l)
);
}
);
width = 641;
},
{
background = {
shapes = (
{
attr = {
strokeHeight = 120;
strokeWidth = 120;
};
closed = 0;
nodes = (
(604,-28,l),
(189,466,l),
(173,485,o),
(163,510,o),
(163,536,cs),
(163,596,o),
(212,645,o),
(272,645,cs),
(330,645,o),
(379,596,o),
(379,536,cs),
(379,497,o),
(358,462,o),
(325,442,cs),
(172,354,l),
(123,326,o),
(90,273,o),
(90,213,cs),
(90,124,o),
(164,50,o),
(253,50,cs),
(297,50,o),
(338,69,o),
(368,98,cs),
(377,108,o),
(387,119,o),
(394,132,cs),
(523,355,l)
);
}
);
};
layerId = m002;
shapes = (
{
closed = 1;
nodes = (
(342,161,l),
(338,155,o),
(333,149,o),
(325,140,c),
(303,119,o),
(283,110,o),
(253,110,c),
(199,110,o),
(150,159,o),
(150,213,c),
(150,246,o),
(166,281,o),
(202,302,c),
(355,390,l),
(413,425,o),
(439,483,o),
(439,536,c),
(439,629,o),
(363,705,o),
(272,705,c),
(179,705,o),
(103,629,o),
(103,536,c),
(103,501,o),
(115,461,o),
(143,427,c),
(502,0,l),
(659,0,l),
(235,505,l),
(225,516,o),
(223,522,o),
(223,536,c),
(223,561,o),
(247,585,o),
(272,585,c),
(295,585,o),
(319,561,o),
(319,536,c),
(319,514,o),
(314,506,o),
(294,494,c),
(142,406,l),
(76,368,o),
(30,295,o),
(30,213,c),
(30,91,o),
(131,-10,o),
(253,-10,c),
(315,-10,o),
(371,17,o),
(411,56,c),
(423,70,o),
(437,85,o),
(446,103,c),
(602,372,l),
(463,372,l)
);
}
);
width = 689;
}
);
unicode = 38;
}
{
glyphname = quotesingle;
layers = (
{
layerId = m01;
shapes = (
{
closed = 1;
nodes = (
(120,580,l),
(119,700,l),
(60,700,l),
(60,580,l)
);
}
);
width = 180;
},
{
layerId = m002;
shapes = (
{
closed = 1;
nodes = (
(180,460,l),
(180,700,l),
(60,700,l),
(60,460,l)
);
}
);
width = 240;
}
);
unicode = 39;
}
{
glyphname = parenleft;
layers = (
{
layerId = m01;
shapes = (
{
closed = 1;
nodes = (
(171.983,83.011,o),
(120,177.694,o),
(120,350,c),
(120,522.306,o),
(171.983,616.989,o),
(239.644,728.431,c),
(188.356,759.569,l),
(119.81,646.669,o),
(60,538.094,o),
(60,350,c),
(60,161.906,o),
(119.81,53.331,o),
(188.356,-59.569,c),
(239.644,-28.431,l)
);
}
);
width = 280;
},
{
layerId = m002;
shapes = (
{
closed = 1;
nodes = (
(217.966,98.021,o),
(170,185.387,o),
(170,350,c),
(170,514.613,o),
(217.966,601.979,o),
(285.287,712.861,c),
(182.713,775.139,l),
(113.412,660.996,o),
(50,546.587,o),
(50,350,c),
(50,153.413,o),
(113.412,39.004,o),
(182.713,-75.139,c),
(285.287,-12.861,l)
);
}
);
width = 315;
}
);
unicode = 40;
}
{
glyphname = parenright;
layers = (
{
layerId = m01;
shapes = (
{
closed = 1;
nodes = (
(160.19,53.331,o),
(220,161.906,o),
(220,350,c),
(220,538.094,o),
(160.19,646.669,o),
(91.644,759.569,c),
(40.356,728.431,l),
(108.017,616.989,o),
(160,522.306,o),
(160,350,c),
(160,177.694,o),
(108.017,83.011,o),
(40.356,-28.431,c),
(91.644,-59.569,l)
);
}
);
width = 280;
},
{
layerId = m002;
shapes = (
{
closed = 1;
nodes = (
(201.588,39.004,o),
(265,153.413,o),
(265,350,c),
(265,546.587,o),
(201.588,660.996,o),
(132.287,775.139,c),
(29.713,712.861,l),
(97.034,601.979,o),
(145,514.613,o),
(145,350,c),
(145,185.387,o),
(97.034,98.021,o),
(29.713,-12.861,c),
(132.287,-75.139,l)
);
}
);
width = 315;
}
);
unicode = 41;
}
{
glyphname = asterisk;
layers = (
{
layerId = m01;
shapes = (
{
closed = 1;
nodes = (
(155.008,500.986,l),
(184.992,449.014,l),
(444.992,599.014,l),
(415.008,650.986,l)
);
},
{
closed = 1;
nodes = (
(415.008,449.014,l),
(444.992,500.986,l),
(184.992,650.986,l),
(155.008,599.014,l)
);
},
{
closed = 1;
nodes = (
(330,700,l),
(270,700,l),
(270,400,l),
(330,400,l)
);
}
);
width = 600;
},
{
layerId = m002;
shapes = (
{
closed = 1;
nodes = (
(101.978,493.288,l),
(152.022,406.712,l),
(498.022,606.712,l),
(447.978,693.288,l)
);
},
{
closed = 1;
nodes = (
(447.978,406.712,l),
(498.022,493.288,l),
(152.022,693.288,l),
(101.978,606.712,l)
);
},
{
closed = 1;
nodes = (
(350,750,l),
(250,750,l),
(250,350,l),
(350,350,l)
);
}
);
width = 600;
}
);
unicode = 42;
}
{
glyphname = plus;
kernLeft = "-";
kernRight = "-";
layers = (
{
layerId = m01;
shapes = (
{
closed = 1;
nodes = (
(290,430,l),
(230,430,l),
(230,70,l),
(290,70,l)
);
},
{
closed = 1;
nodes = (
(80,280,l),
(80,220,l),
(440,220,l),
(440,280,l)
);
}
);
width = 520;
},
{
layerId = m002;
shapes = (
{
closed = 1;
nodes = (
(320,450,l),
(200,450,l),
(200,50,l),
(320,50,l)
);
},
{
closed = 1;
nodes = (
(60,310,l),
(60,190,l),
(460,190,l),
(460,310,l)
);
}
);
width = 520;
}
);
unicode = 43;
}
{
glyphname = hyphen;
kernLeft = "-";
kernRight = "-";
layers = (
{
layerId = m01;
shapes = (
{
closed = 1;
nodes = (
(130,280,l),
(130,220,l),
(430,220,l),
(430,280,l)
);
}
);
width = 560;
},
{
layerId = m002;
shapes = (
{
closed = 1;
nodes = (
(100,310,l),
(100,190,l),
(460,190,l),
(460,310,l)
);
}
);
width = 560;
}
);
unicode = 45;
}
{
glyphname = period;
layers = (
{
layerId = m01;
shapes = (
{
closed = 1;
nodes = (
(60,0,l),
(120,0,l),
(120,60,l),
(60,60,l)
);
}
);
width = 180;
},
{
layerId = m002;
shapes = (
{
closed = 1;
nodes = (
(60,0,l),
(180,0,l),
(180,120,l),
(60,120,l)
);
}
);
width = 240;
}
);
unicode = 46;
}
{
glyphname = slash;
layers = (
{
layerId = m002;
shapes = (
{
closed = 1;
nodes = (
(220,700,l),
(40,-60,l),
(170,-60,l),
(350,700,l)
);
}
);
width = 390;
},
{
layerId = m01;
shapes = (
{
closed = 1;
nodes = (
(220,700,l),
(40,-60,l),
(102,-60,l),
(282,700,l)
);
}
);
width = 322;
}
);
unicode = 47;
}
{
glyphname = zero;
layers = (
{
layerId = m01;
shapes = (
{
closed = 1;
nodes = (
(192.029,54,o),
(120,122.828,o),
(120,349,c),
(120,575.172,o),
(192.029,644,o),
(290,644,c),
(387.971,644,o),
(460,575.172,o),
(460,349,c),
(460,122.828,o),
(387.971,54,o),
(290,54,c)
);
},
{
closed = 1;
nodes = (
(416.629,-6,o),
(520,92.572,o),
(520,349,c),
(520,605.428,o),
(416.629,704,o),
(290,704,c),
(163.371,704,o),
(60,605.428,o),
(60,349,c),
(60,92.572,o),
(163.371,-6,o),
(290,-6,c)
);
}
);
width = 580;
},
{
layerId = m002;
shapes = (
{
closed = 1;
nodes = (
(223.208,107,o),
(176,152.502,o),
(176,347,c),
(176,541.498,o),
(223.208,587,o),
(300,587,c),
(376.792,587,o),
(424,541.498,o),
(424,347,c),
(424,152.502,o),
(376.792,107,o),
(300,107,c)
);
},
{
closed = 1;
nodes = (
(433.608,-13,o),
(544,91.298,o),
(544,347,c),
(544,602.702,o),
(433.608,707,o),
(300,707,c),
(166.392,707,o),
(56,602.702,o),
(56,347,c),
(56,91.298,o),
(166.392,-13,o),
(300,-13,c)
);
}
);
width = 600;
}
);
unicode = 48;
}
{
glyphname = one;
kernRight = l;
layers = (
{
layerId = m01;
shapes = (
{
closed = 1;
nodes = (
(200,700,l),
(140,700,l),
(140,0,l),
(200,0,l)
);
},
{
closed = 1;
nodes = (
(140,640,l),
(140,700,l),
(100,700,l),
(40,640,l)
);
}
);
width = 280;
},
{
layerId = m002;
shapes = (
{
closed = 1;
nodes = (
(280,700,l),
(160,700,l),
(160,0,l),
(280,0,l)
);
},
{
closed = 1;
nodes = (
(160,580,l),
(160,700,l),
(120,700,l),
(0,580,l)
);
}
);
width = 320;
}
);
unicode = 49;
}
{
glyphname = two;
layers = (
{
guides = (
{
angle = -30;
pos = (277,490);
}
);
layerId = m01;
shapes = (
{
closed = 1;
nodes = (
(127,584.574,o),
(190.426,648,o),
(277,648,c),
(363.574,648,o),
(427,584.574,o),
(427,498,c),
(427,458.841,o),
(414.09,426.947,o),
(389.129,398.409,c),
(60.462,-1,l),
(494,-1,l),
(494,59,l),
(187.537,59,l),
(434.871,359.591,l),
(466.832,396.107,o),
(487,445.759,o),
(487,498,c),
(487,613.426,o),
(392.426,708,o),
(277,708,c),
(161.574,708,o),
(67,613.426,o),
(67,498,c),
(127,498,l)
);
}
);
width = 554;
},
{
guides = (
{
angle = -30;
pos = (300,490);
}
);
layerId = m002;
shapes = (
{
closed = 1;
nodes = (
(180,542.147,o),
(225.853,588,o),
(300,588,c),
(374.147,588,o),
(420,542.147,o),
(420,468,c),
(420,434.379,o),
(411.019,412.497,o),
(389.259,387.844,c),
(70.14,-1,l),
(537,-1,l),
(537,119,l),
(323.86,119,l),
(480.823,310.257,l),
(517.206,352.203,o),
(540,408.481,o),
(540,468,c),
(540,600.053,o),
(432.053,708,o),
(300,708,c),
(167.947,708,o),
(60,600.053,o),
(60,468,c),
(180,468,l)
);
}
);
width = 600;
}
);
unicode = 50;
}
{
glyphname = three;
layers = (
{
layerId = m01;
shapes = (
{
closed = 1;
nodes = (
(120,592.98,o),
(178.841,648,o),
(260,648,c),
(342.046,648,o),
(400,593.096,o),
(400,512,c),
(400,432.283,o),
(342.413,380,o),
(260,380,c),
(260,320,l),
(342.538,320,o),
(400,268.587,o),
(400,188,c),
(400,107.782,o),
(341.926,52,o),
(260,52,c),
(171.646,52,o),
(120,111.241,o),
(120,196,c),
(60,196,l),
(60,84.759,o),
(140.354,-8,o),
(260,-8,c),
(370.074,-8,o),
(460,78.218,o),
(460,188,c),
(460,299.413,o),
(369.462,380,o),
(260,380,c),
(260,320,l),
(369.587,320,o),
(460,401.717,o),
(460,512,c),
(460,622.904,o),
(369.954,708,o),
(260,708,c),
(151.159,708,o),
(60,623.02,o),
(60,512,c),
(120,512,l)
);
},
{
closed = 1;
nodes = (
(224,320,l),
(261,320,l),
(261,380,l),
(224,380,l)
);
}
);
width = 520;
},
{
layerId = m002;
shapes = (
{
closed = 1;
nodes = (
(186,554.836,o),
(219.561,586,o),
(280,586,c),
(341.19,586,o),
(374,555.092,o),
(374,496,c),
(374,441.183,o),
(334.267,410,o),
(270,410,c),
(270,290,l),
(334.531,290,o),
(374,259.524,o),
(374,204,c),
(374,145.637,o),
(340.925,114,o),
(280,114,c),
(222.743,114,o),
(186,139.437,o),
(186,211,c),
(66,211,l),
(66,71.963,o),
(173.857,-6,o),
(280,-6,c),
(397.275,-6,o),
(494,86.163,o),
(494,204,c),
(494,325.276,o),
(385.069,410,o),
(270,410,c),
(270,290,l),
(384.933,290,o),
(494,375.617,o),
(494,496,c),
(494,615.108,o),
(397.01,706,o),
(280,706,c),
(164.239,706,o),
(66,615.364,o),
(66,496,c),
(186,496,l)
);
},
{
closed = 1;
nodes = (
(244,290,l),
(271,290,l),
(271,410,l),
(244,410,l)
);
}
);
width = 560;
}
);
unicode = 51;
}
{
glyphname = four;
layers = (
{
background = {
shapes = (
{
attr = {
strokeWidth = 60;
};
closed = 0;
nodes = (
(412,700,l),
(74,159,l),
(510,159,l)
);
},
{
attr = {
strokeWidth = 60;
};
closed = 0;
nodes = (
(412,0,l),
(412,500,l)
);
}
);
};
layerId = m01;
shapes = (
{
closed = 1;
nodes = (
(128,189,l),
(447,700,l),
(377,700,l),
(20,129,l),
(540,129,l),
(540,189,l)
);
},
{
closed = 1;
nodes = (
(382,0,l),
(442,0,l),
(442,500,l),
(382,500,l)
);
}
);
width = 580;
},
{
background = {
shapes = (
{
attr = {
strokeWidth = 120;
};
closed = 0;
nodes = (
(396,700,l),
(118,159,l),
(604,159,l)
);
},
{
attr = {
strokeWidth = 120;
};
closed = 0;
nodes = (
(456,0,l),
(456,500,l)
);
}
);
};
layerId = m002;
shapes = (
{
closed = 1;
nodes = (
(216,219,l),
(463,700,l),
(329,700,l),
(20,99,l),
(604,99,l),
(604,219,l)
);
},
{
closed = 1;
nodes = (
(396,0,l),
(516,0,l),
(516,500,l),
(396,500,l)
);
}
);
width = 644;
}
);
unicode = 52;
}
{
glyphname = five;
layers = (
{
background = {
guides = (
{
angle = 60;
pos = (233,202);
}
);
shapes = (
{
attr = {
strokeHeight = 60;
strokeWidth = 60;
};
closed = 1;
nodes = (
(332,23,o),
(413,104,o),
(413,203,cs),
(413,302,o),
(332,383,o),
(233,383,cs),
(134,383,o),
(53,302,o),
(53,203,cs),
(53,104,o),
(134,23,o),
(233,23,cs)
);
}
);
};
guides = (
{
angle = 30;
pos = (229,202);
},
{
angle = -45;
pos = (229,202);
}
);
layerId = m01;
shapes = (
{
closed = 1;
nodes = (
(121,294,l),
(166,341,o),
(200,353,o),
(233,353,c),
(325,353,o),
(383,289,o),
(383,202,c),
(383,115,o),
(320,52,o),
(233,52,c),
(175,52,o),
(129,80,o),
(102,129,c),
(50,99,l),
(86,36,o),
(155,-8,o),
(233,-8,c),
(348,-8,o),
(443,87,o),
(443,202,c),
(443,317,o),
(355,413,o),
(233,413,c),
(199,413,o),
(151,403,o),
(122,381,c),
(122,640,l),
(423,640,l),
(423,700,l),
(62,700,l),
(63,343,l)
);
}
);
width = 493;
},
{
background = {
guides = (
{
angle = 30;
pos = (266,202);
},
{
angle = -45;
pos = (266,202);
}
);
shapes = (
{
attr = {
strokeHeight = 120;
strokeWidth = 120;
};
closed = 1;
nodes = (
(354,53,o),
(426,125,o),
(426,213,cs),
(426,301,o),
(354,373,o),
(266,373,cs),
(178,373,o),
(106,301,o),
(106,213,cs),
(106,125,o),
(178,53,o),
(266,53,cs)
);
}
);
};
guides = (
{
angle = 30;
pos = (262,202);
},
{
angle = -45;
pos = (262,202);
}
);
layerId = m002;
shapes = (
{
closed = 1;
nodes = (
(179,269,l),
(205,311,o),
(244,313,o),
(266,313,c),
(329,313,o),
(366,276,o),
(366,213,c),
(366,150,o),
(329,113,o),
(266,113,c),
(215,113,o),
(184,128,o),
(155,162,c),
(60,87,l),
(103,32,o),
(180,-7,o),
(266,-7,c),
(387,-7,o),
(486,92,o),
(486,213,c),
(486,334,o),
(387,433,o),
(266,433,cs),
(245,433,o),
(211,427,o),
(191,418,c),
(191,580,l),
(462,580,l),
(462,700,l),
(80,700,l),
(80,329,l)
);
}
);
width = 526;
}
);
unicode = 53;
}
{
glyphname = six;
layers = (
{
background = {
shapes = (
{
attr = {
strokeHeight = 60;
strokeWidth = 60;
};
closed = 1;
nodes = (
(369,22,o),
(450,103,o),
(450,202,cs),
(450,301,o),
(369,382,o),
(270,382,cs),
(171,382,o),
(90,301,o),
(90,202,cs),
(90,103,o),
(171,22,o),
(270,22,cs)
);
},
{
attr = {
strokeHeight = 60;
strokeWidth = 60;
};
closed = 0;
nodes = (
(414,810,l),
(114,291,l)
);
}
);
};
guides = (
{
angle = -30;
pos = (270,202);
}
);
layerId = m01;
shapes = (
{
closed = 1;
nodes = (
(183,52,o),
(120,115,o),
(120,202,c),
(120,289,o),
(183,352,o),
(270,352,c),
(357,352,o),
(420,289,o),
(420,202,c),
(420,115,o),
(357,52,o),
(270,52,c)
);
},
{
closed = 1;
nodes = (
(385,-8,o),
(480,87,o),
(480,202,c),
(480,317,o),
(385,412,o),
(270,412,c),
(155,412,o),
(60,317,o),
(60,202,c),
(60,87,o),
(155,-8,o),
(270,-8,c)
);
},
{
closed = 1;
nodes = (
(176,338,l),
(385,700,l),
(316,700,l),
(88,306,l),
(120,276,l)
);
}
);
width = 540;
},
{
background = {
guides = (
{
angle = -30;
pos = (283,222);
}
);
shapes = (
{
attr = {
strokeHeight = 120;
strokeWidth = 120;
};
closed = 1;
nodes = (
(372,52,o),
(446,126,o),
(446,215,cs),
(446,304,o),
(372,378,o),
(283,378,cs),
(194,378,o),
(120,304,o),
(120,215,cs),
(120,126,o),
(194,52,o),
(283,52,cs)
);
},
{
attr = {
strokeHeight = 120;
strokeWidth = 120;
};
closed = 0;
nodes = (
(442,815,l),
(142,296,l)
);
}
);
};
layerId = m002;
shapes = (
{
closed = 1;
nodes = (
(219,112,o),
(180,151,o),
(180,215,c),
(180,279,o),
(219,318,o),
(283,318,c),
(347,318,o),
(386,279,o),
(386,215,c),
(386,151,o),
(347,112,o),
(283,112,c)
);
},
{
closed = 1;
nodes = (
(405,-8,o),
(506,93,o),
(506,215,c),
(506,337,o),
(405,438,o),
(283,438,c),
(161,438,o),
(60,337,o),
(60,215,c),
(60,93,o),
(161,-8,o),
(283,-8,c)
);
},
{
closed = 1;
nodes = (
(223,315,l),
(445,700,l),
(306,700,l),
(90,326,l),
(160,274,l)
);
}
);
width = 546;
}
);
unicode = 54;
}
{
glyphname = seven;
layers = (
{
background = {
shapes = (
{
attr = {
strokeHeight = 60;
strokeWidth = 60;
};
closed = 0;
nodes = (
(61,670,l),
(481,670,l),
(131,0,l)
);
}
);
};
layerId = m01;
shapes = (
{
closed = 1;
nodes = (
(530,700,l),
(60,700,l),
(60,640,l),
(430,640,l),
(96,0,l),
(164,0,l)
);
}
);
width = 550;
},
{
background = {
shapes = (
{
attr = {
strokeHeight = 120;
strokeWidth = 120;
};
closed = 0;
nodes = (
(70,640,l),
(490,640,l),
(130,0,l)
);
}
);
};
layerId = m002;
shapes = (
{
closed = 1;
nodes = (
(593,700,l),
(50,700,l),
(50,580,l),
(387,580,l),
(62,0,l),
(198,0,l)
);
}
);
width = 613;
}
);
unicode = 55;
}
{
glyphname = eight;
layers = (
{
layerId = m01;
shapes = (
{
closed = 1;
nodes = (
(193.989,54,o),
(130,114.868,o),
(130,204,c),
(130,293.663,o),
(193.535,351,o),
(280,351,c),
(368.253,351,o),
(430,293.884,o),
(430,204,c),
(430,114.649,o),
(367.795,54,o),
(280,54,c)
);
},
{
closed = 1;
nodes = (
(396.205,-6,o),
(490,85.351,o),
(490,204,c),
(490,324.116,o),
(395.747,411,o),
(280,411,c),
(166.465,411,o),
(70,324.337,o),
(70,204,c),
(70,85.132,o),
(166.011,-6,o),
(280,-6,c)
);
},
{
closed = 1;
nodes = (
(209.623,411,o),
(160,456.245,o),
(160,528,c),
(160,601.038,o),
(209.897,648,o),
(280,648,c),
(350.974,648,o),
(400,601.169,o),
(400,528,c),
(400,456.113,o),
(351.249,411,o),
(280,411,c)
);
},
{
closed = 1;
nodes = (
(378.751,351,o),
(460,425.887,o),
(460,528,c),
(460,630.831,o),
(379.026,708,o),
(280,708,c),
(182.103,708,o),
(100,630.962,o),
(100,528,c),
(100,425.755,o),
(182.377,351,o),
(280,351,c)
);
}
);
width = 560;
},
{
layerId = m002;
shapes = (
{
closed = 1;
nodes = (
(198.129,115,o),
(160,151.583,o),
(160,218,c),
(160,284.385,o),
(197.127,318,o),
(263,318,c),
(329.64,318,o),
(366,284.628,o),
(366,218,c),
(366,151.342,o),
(328.634,115,o),
(263,115,c)
);
},
{
closed = 1;
nodes = (
(385.566,-5,o),
(486,92.458,o),
(486,218,c),
(486,345.572,o),
(384.56,438,o),
(263,438,c),
(142.673,438,o),
(40,345.815,o),
(40,218,c),
(40,92.217,o),
(141.671,-5,o),
(263,-5,c)
);
},
{
closed = 1;
nodes = (
(212.085,438,o),
(187,460.658,o),
(187,511,c),
(187,562.968,o),
(212.69,587,o),
(263,587,c),
(314.029,587,o),
(339,563.257,o),
(339,511,c),
(339,460.368,o),
(314.635,438,o),
(263,438,c)
);
},
{
closed = 1;
nodes = (
(369.565,318,o),
(459,399.432,o),
(459,511,c),
(459,622.943,o),
(370.171,707,o),
(263,707,c),
(157.11,707,o),
(67,623.232,o),
(67,511,c),
(67,399.142,o),
(157.715,318,o),
(263,318,c)
);
}
);
width = 526;
}
);
unicode = 56;
}
{
glyphname = nine;
layers = (
{
background = {
shapes = (
{
attr = {
strokeHeight = 60;
strokeWidth = 60;
};
closed = 1;
nodes = (
(369,22,o),
(450,103,o),
(450,202,cs),
(450,301,o),
(369,382,o),
(270,382,cs),
(171,382,o),
(90,301,o),
(90,202,cs),
(90,103,o),
(171,22,o),
(270,22,cs)
);
},
{
attr = {
strokeHeight = 60;
strokeWidth = 60;
};
closed = 0;
nodes = (
(414,810,l),
(114,291,l)
);
}
);
};
guides = (
{
angle = -30;
pos = (270,202);
}
);
layerId = m01;
shapes = (
{
closed = 1;
nodes = (
(357,648,o),
(420,585,o),
(420,498,c),
(420,411,o),
(357,348,o),
(270,348,c),
(183,348,o),
(120,411,o),
(120,498,c),
(120,585,o),
(183,648,o),
(270,648,c)
);
},
{
closed = 1;
nodes = (
(155,708,o),
(60,613,o),
(60,498,c),
(60,383,o),
(155,288,o),
(270,288,c),
(385,288,o),
(480,383,o),
(480,498,c),
(480,613,o),
(385,708,o),
(270,708,c)
);
},
{
closed = 1;
nodes = (
(364,362,l),
(155,0,l),
(224,0,l),
(452,394,l),
(420,424,l)
);
}
);
width = 540;
},
{
layerId = m002;
shapes = (
{
closed = 1;
nodes = (
(327,588,o),
(366,549,o),
(366,485,c),
(366,421,o),
(327,382,o),
(263,382,c),
(199,382,o),
(160,421,o),
(160,485,c),
(160,549,o),
(199,588,o),
(263,588,c)
);
},
{
closed = 1;
nodes = (
(141,708,o),
(40,607,o),
(40,485,c),
(40,363,o),
(141,262,o),
(263,262,c),
(385,262,o),
(486,363,o),
(486,485,c),
(486,607,o),
(385,708,o),
(263,708,c)
);
},
{
closed = 1;
nodes = (
(323,385,l),
(101,0,l),
(240,0,l),
(456,374,l),
(386,426,l)
);
}
);
width = 546;
}
);
unicode = 57;
}
{
glyphname = colon;
layers = (
{
layerId = m01;
shapes = (
{
closed = 1;
nodes = (
(60,431,l),
(128,431,l),
(128,499,l),
(60,499,l)
);
},
{
closed = 1;
nodes = (
(60,1,l),
(128,1,l),
(128,69,l),
(60,69,l)
);
}
);
width = 188;
},
{
layerId = m002;
shapes = (
{
closed = 1;
nodes = (
(60,380,l),
(180,380,l),
(180,500,l),
(60,500,l)
);
},
{
closed = 1;
nodes = (
(60,0,l),
(180,0,l),
(180,120,l),
(60,120,l)
);
}
);
width = 240;
}
);
unicode = 58;
}
{
glyphname = semicolon;
layers = (
{
layerId = m01;
shapes = (
{
ref = comma;
},
{
closed = 1;
nodes = (
(60,432,l),
(128,432,l),
(128,500,l),
(60,500,l)
);
}
);
width = 188;
},
{
layerId = m002;
shapes = (
{
pos = (20,0);
ref = comma;
},
{
closed = 1;
nodes = (
(60,380,l),
(180,380,l),
(180,500,l),
(60,500,l)
);
}
);
width = 260;
}
);
unicode = 59;
}
{
glyphname = less;
layers = (
{
background = {
shapes = (
{
attr = {
strokeWidth = 60;
};
closed = 0;
nodes = (
(94,90,l),
(394,250,l),
(94,410,l)
);
}
);
};
layerId = m01;
shapes = (
{
closed = 1;
nodes = (
(536,450,l),
(20,250,l),
(536,50,l),
(536,114,l),
(186,250,l),
(536,386,l)
);
}
);
width = 586;
},
{
background = {
shapes = (
{
attr = {
strokeWidth = 120;
};
closed = 0;
nodes = (
(71,90,l),
(411,250,l),
(71,410,l)
);
}
);
};
layerId = m002;
shapes = (
{
closed = 1;
nodes = (
(522,483,l),
(20,250,l),
(522,17,l),
(522,150,l),
(291,250,l),
(522,350,l)
);
}
);
width = 572;
}
);
unicode = 60;
}
{
glyphname = equal;
kernLeft = "-";
kernRight = "-";
layers = (
{
layerId = m01;
shapes = (
{
closed = 1;
nodes = (
(80,200,l),
(80,140,l),
(440,140,l),
(440,200,l)
);
},
{
closed = 1;
nodes = (
(80,360,l),
(80,300,l),
(440,300,l),
(440,360,l)
);
}
);
width = 520;
},
{
layerId = m002;
shapes = (
{
closed = 1;
nodes = (
(80,210,l),
(80,90,l),
(520,90,l),
(520,210,l)
);
},
{
closed = 1;
nodes = (
(80,410,l),
(80,290,l),
(520,290,l),
(520,410,l)
);
}
);
width = 600;
}
);
unicode = 61;
}
{
glyphname = greater;
layers = (
{
background = {
shapes = (
{
attr = {
strokeWidth = 60;
};
closed = 0;
nodes = (
(124,90,l),
(424,250,l),
(124,410,l)
);
}
);
};
layerId = m01;
shapes = (
{
closed = 1;
nodes = (
(400,250,l),
(50,114,l),
(50,50,l),
(566,250,l),
(50,450,l),
(50,386,l)
);
}
);
width = 586;
},
{
background = {
shapes = (
{
attr = {
strokeWidth = 120;
};
closed = 0;
nodes = (
(101,90,l),
(441,250,l),
(101,410,l)
);
}
);
};
layerId = m002;
shapes = (
{
closed = 1;
nodes = (
(281,250,l),
(50,150,l),
(50,17,l),
(552,250,l),
(50,483,l),
(50,350,l)
);
}
);
width = 572;
}
);
unicode = 62;
}
{
glyphname = question;
layers = (
{
layerId = m01;
shapes = (
{
closed = 1;
nodes = (
(300,300,l),
(401,305,o),
(480,393,o),
(480,498,c),
(480,613,o),
(385,708,o),
(270,708,c),
(155,708,o),
(60,613,o),
(60,498,c),
(120,498,l),
(120,585,o),
(183,648,o),
(270,648,c),
(357,648,o),
(420,585,o),
(420,498,c),
(420,412,o),
(357,348,o),
(270,348,cs),
(240,348,l),
(240,120,l),
(300,120,l)
);
},
{
closed = 1;
nodes = (
(240,0,l),
(300,0,l),
(300,60,l),
(240,60,l)
);
}
);
width = 540;
},
{
layerId = m002;
shapes = (
{
closed = 1;
nodes = (
(360,256,l),
(463,272,o),
(540,367,o),
(540,478,c),
(540,610,o),
(432,718,o),
(300,718,c),
(168,718,o),
(60,610,o),
(60,478,c),
(180,478,l),
(180,552,o),
(226,598,o),
(300,598,c),
(374,598,o),
(420,552,o),
(420,478,c),
(420,403,o),
(374,358,o),
(300,358,cs),
(240,358,l),
(240,180,l),
(360,180,l)
);
},
{
closed = 1;
nodes = (
(240,0,l),
(360,0,l),
(360,120,l),
(240,120,l)
);
}
);
width = 600;
}
);
unicode = 63;
}
{
glyphname = at;
layers = (
{
layerId = m002;
shapes = (
{
closed = 1;
nodes = (
(363,287,o),
(337,308,o),
(337,350,cs),
(337,392,o),
(363,413,o),
(405,413,cs),
(447,413,o),
(473,392,o),
(473,350,cs),
(473,308,o),
(447,287,o),
(405,287,cs)
);
},
{
closed = 1;
nodes = (
(50,157,o),
(207,0,o),
(400,0,cs),
(494,0,o),
(580,38,o),
(643,99,c),
(573,171,l),
(526,124,o),
(471,100,o),
(400,100,cs),
(256,100,o),
(150,206,o),
(150,350,cs),
(150,494,o),
(256,600,o),
(400,600,cs),
(544,600,o),
(650,494,o),
(650,350,cs),
(650,329,o),
(648,310,o),
(643,292,c),
(563,292,l),
(563,510,l),
(463,510,l),
(463,491,l),
(454,499,o),
(422,513,o),
(400,513,cs),
(309,513,o),
(237,441,o),
(237,350,cs),
(237,259,o),
(309,187,o),
(400,187,cs),
(422,187,o),
(454,201,o),
(463,209,c),
(463,192,l),
(712,192,l),
(736,238,o),
(750,294,o),
(750,350,cs),
(750,543,o),
(593,700,o),
(400,700,cs),
(207,700,o),
(50,543,o),
(50,350,cs)
);
}
);
width = 800;
},
{
background = {
shapes = (
{
ref = O;
}
);
};
layerId = m01;
shapes = (
{
closed = 1;
nodes = (
(331,224,o),
(274,276,o),
(274,350,cs),
(274,424,o),
(331,476,o),
(405,476,cs),
(479,476,o),
(536,424,o),
(536,350,cs),
(536,276,o),
(479,224,o),
(405,224,cs)
);
},
{
closed = 1;
nodes = (
(45,155,o),
(205,-5,o),
(400,-5,cs),
(495,-5,o),
(585,33,o),
(652,98,c),
(610,142,l),
(552,85,o),
(481,55,o),
(400,55,cs),
(233,55,o),
(105,183,o),
(105,350,cs),
(105,517,o),
(233,645,o),
(400,645,cs),
(567,645,o),
(695,517,o),
(695,350,cs),
(695,312,o),
(686,270,o),
(673,235,c),
(585,235,l),
(585,520,l),
(525,520,l),
(525,477,l),
(512,508,o),
(448,536,o),
(400,536,cs),
(298,536,o),
(214,452,o),
(214,350,cs),
(214,248,o),
(298,164,o),
(400,164,cs),
(449,164,o),
(514,193,o),
(527,224,c),
(527,175,l),
(712,175,l),
(735,219,o),
(755,290,o),
(755,350,cs),
(755,545,o),
(595,705,o),
(400,705,cs),
(205,705,o),
(45,545,o),
(45,350,cs)
);
}
);
width = 800;
}
);
unicode = 64;
}
{
glyphname = A;
kernLeft = A;
kernRight = A;
layers = (
{
anchors = (
{
name = bottom;
pos = (300,90);
},
{
name = ogonek;
pos = (540,10);
},
{
name = top;
pos = (300,730);
}
);
background = {
shapes = (
{
attr = {
strokeHeight = 60;
strokeWidth = 60;
};
closed = 0;
nodes = (
(48,-11,l),
(300,634,l),
(552,-11,l)
);
}
);
};
guides = (
{
angle = 90;
pos = (580,0);
},
{
angle = 90;
pos = (20,0);
}
);
layerId = m01;
shapes = (
{
closed = 1;
nodes = (
(300,716,l),
(20,0,l),
(84,0,l),
(300,552,l),
(515,0,l),
(580,0,l)
);
},
{
closed = 1;
nodes = (
(150,200,l),
(450,200,l),
(450,260,l),
(150,260,l)
);
}
);
width = 600;
},
{
anchors = (
{
name = bottom;
pos = (333,90);
},
{
name = ogonek;
pos = (573,10);
},
{
name = top;
pos = (333,730);
}
);
background = {
shapes = (
{
attr = {
strokeHeight = 120;
strokeWidth = 120;
};
closed = 0;
nodes = (
(81,-11,l),
(333,566,l),
(585,-11,l)
);
}
);
};
guides = (
{
angle = 90;
pos = (643,0);
},
{
angle = 90;
pos = (86,0);
}
);
layerId = m002;
shapes = (
{
closed = 1;
nodes = (
(333,716,l),
(20,0,l),
(152,0,l),
(333,417,l),
(515,0,l),
(646,0,l)
);
},
{
closed = 1;
nodes = (
(183,110,l),
(483,110,l),
(483,230,l),
(183,230,l)
);
}
);
width = 666;
}
);
unicode = 65;
}
{
glyphname = B;
kernLeft = H;
kernRight = H;
layers = (
{
layerId = m01;
shapes = (
{
closed = 1;
nodes = (
(360,0,ls),
(464,0,o),
(550,84,o),
(550,190,cs),
(550,259,o),
(513,320,o),
(457,353,c),
(507,387,o),
(540,445,o),
(540,510,cs),
(540,614,o),
(454,700,o),
(350,700,cs),
(80,700,l),
(80,0,l)
);
},
{
closed = 1;
nodes = (
(140,320,l),
(350,320,l),
(426,320,o),
(490,266,o),
(490,190,cs),
(490,114,o),
(436,60,o),
(360,60,cs),
(140,60,l)
);
},
{
closed = 1;
nodes = (
(140,640,l),
(350,640,ls),
(426,640,o),
(480,586,o),
(480,510,cs),
(480,434,o),
(426,380,o),
(350,380,cs),
(140,380,l)
);
}
);
width = 600;
},
{
layerId = m002;
shapes = (
{
closed = 1;
nodes = (
(360,0,ls),
(479,0,o),
(580,79,o),
(580,203,cs),
(580,266,o),
(554,318,o),
(513,355,c),
(548,390,o),
(570,439,o),
(570,497,cs),
(570,621,o),
(468,700,o),
(350,700,cs),
(50,700,l),
(50,0,l)
);
},
{
closed = 1;
nodes = (
(170,290,l),
(350,290,l),
(417,290,o),
(460,263,o),
(460,203,cs),
(460,144,o),
(428,120,o),
(360,120,cs),
(170,120,l)
);
},
{
closed = 1;
nodes = (
(170,580,l),
(350,580,ls),
(418,580,o),
(450,555,o),
(450,497,cs),
(450,437,o),
(417,410,o),
(350,410,cs),
(170,410,l)
);
}
);
width = 610;
}
);
unicode = 66;
}
{
glyphname = C;
kernLeft = O;
layers = (
{
anchors = (
{
name = bottom;
pos = (400,0);
},
{
name = top;
pos = (400,710);
}
);
guides = (
{
angle = 42;
pos = (400,350);
},
{
angle = -42;
pos = (400,350);
}
);
layerId = m01;
shapes = (
{
closed = 1;
nodes = (
(563.552,91.377,o),
(489.066,55,o),
(400,55,c),
(233.426,55,o),
(105,183.426,o),
(105,350,c),
(105,516.574,o),
(233.426,645,o),
(400,645,c),
(489.066,645,o),
(563.552,608.623,o),
(618.634,547.006,c),
(663.366,586.994,l),
(599.248,658.719,o),
(504.734,705,o),
(400,705,c),
(204.574,705,o),
(45,545.426,o),
(45,350,c),
(45,154.574,o),
(204.574,-5,o),
(400,-5,c),
(504.734,-5,o),
(599.248,41.281,o),
(663.366,113.006,c),
(618.634,152.994,l)
);
}
);
width = 708;
},
{
anchors = (
{
name = bottom;
pos = (403,0);
},
{
name = top;
pos = (403,710);
}
);
guides = (
{
angle = 42;
pos = (403,350);
},
{
angle = -42;
pos = (403,350);
}
);
layerId = m002;
shapes = (
{
closed = 1;
nodes = (
(531,138,o),
(474,110,o),
(400,110,c),
(260,110,o),
(160,210,o),
(160,350,c),
(160,490,o),
(260,590,o),
(400,590,c),
(474,590,o),
(531,562,o),
(577,510,c),
(667,590,l),
(602,663,o),
(506,710,o),
(400,710,c),
(202,710,o),
(40,548,o),
(40,350,c),
(40,152,o),
(202,-10,o),
(400,-10,c),
(506,-10,o),
(602,37,o),
(667,110,c),
(577,190,l)
);
}
);
width = 711;
}
);
metricLeft = "=O";
unicode = 67;
}
{
glyphname = D;
kernLeft = D;
kernRight = D;
layers = (
{
anchors = (
{
name = bottom;
pos = (310,0);
},
{
name = center;
pos = (310,350);
},
{
name = top;
pos = (280,700);
}
);
layerId = m01;
shapes = (
{
closed = 1;
nodes = (
(250,0,ls),
(445,0,o),
(600,155,o),
(600,350,cs),
(600,545,o),
(445,700,o),
(250,700,cs),
(60,700,l),
(60,0,l)
);
},
{
closed = 1;
nodes = (
(120,640,l),
(250,640,ls),
(417,640,o),
(540,517,o),
(540,350,cs),
(540,183,o),
(417,60,o),
(250,60,cs),
(120,60,l)
);
}
);
width = 645;
},
{
anchors = (
{
name = bottom;
pos = (340,0);
},
{
name = center;
pos = (340,350);
},
{
name = top;
pos = (310,710);
}
);
layerId = m002;
shapes = (
{
closed = 1;
nodes = (
(280,0,ls),
(490,0,o),
(660,136,o),
(660,350,cs),
(660,564,o),
(490,700,o),
(280,700,cs),
(60,700,l),
(60,0,l)
);
},
{
closed = 1;
nodes = (
(180,580,l),
(280,580,ls),
(438,580,o),
(540,500,o),
(540,350,cs),
(540,200,o),
(438,120,o),
(280,120,cs),
(180,120,l)
);
}
);
width = 700;
}
);
metricLeft = "=H";
metricRight = "=O";
unicode = 68;
}
{
glyphname = E;
kernLeft = H;
kernRight = H;
layers = (
{
anchors = (
{
name = bottom;
pos = (300,0);
},
{
name = ogonek;
pos = (490,0);
},
{
name = top;
pos = (300,701);
},
{
name = topleft;
pos = (20,700);
}
);
layerId = m01;
shapes = (
{
closed = 1;
nodes = (
(140,700,l),
(80,700,l),
(80,0,l),
(140,0,l)
);
},
{
closed = 1;
nodes = (
(140,380,l),
(140,320,l),
(520,320,l),
(520,380,l)
);
},
{
closed = 1;
nodes = (
(140,60,l),
(140,0,l),
(520,0,l),
(520,60,l)
);
},
{
closed = 1;
nodes = (
(140,700,l),
(140,640,l),
(520,640,l),
(520,700,l)
);
}
);
width = 600;
},
{
anchors = (
{
name = bottom;
pos = (310,0);
},
{
name = ogonek;
pos = (490,0);
},
{
name = top;
pos = (310,701);
},
{
name = topleft;
pos = (30,700);
}
);
layerId = m002;
shapes = (
{
closed = 1;
nodes = (
(180,700,l),
(60,700,l),
(60,0,l),
(180,0,l)
);
},
{
closed = 1;
nodes = (
(150,410,l),
(150,290,l),
(530,290,l),
(530,410,l)
);
},
{
closed = 1;
nodes = (
(150,120,l),
(150,0,l),
(530,0,l),
(530,120,l)
);
},
{
closed = 1;
nodes = (
(150,700,l),
(150,580,l),
(530,580,l),
(530,700,l)
);
}
);
width = 590;
}
);
unicode = 69;
}
{
glyphname = F;
layers = (
{
layerId = m01;
shapes = (
{
closed = 1;
nodes = (
(140,700,l),
(80,700,l),
(80,0,l),
(140,0,l)
);
},
{
closed = 1;
nodes = (
(140,380,l),
(140,320,l),
(520,320,l),
(520,380,l)
);
},
{
closed = 1;
nodes = (
(140,700,l),
(140,640,l),
(520,640,l),
(520,700,l)
);
}
);
width = 600;
},
{
layerId = m002;
shapes = (
{
closed = 1;
nodes = (
(180,700,l),
(60,700,l),
(60,0,l),
(180,0,l)
);
},
{
closed = 1;
nodes = (
(150,410,l),
(150,290,l),
(530,290,l),
(530,410,l)
);
},
{
closed = 1;
nodes = (
(150,700,l),
(150,580,l),
(530,580,l),
(530,700,l)
);
}
);
width = 590;
}
);
unicode = 70;
}
{
glyphname = G;
kernLeft = O;
layers = (
{
anchors = (
{
name = bottom;
pos = (400,0);
},
{
name = top;
pos = (400,700);
}
);
guides = (
{
angle = 42;
pos = (400,350);
}
);
layerId = m01;
shapes = (
{
closed = 1;
nodes = (
(692.914,290,l),
(675.601,165.292,o),
(552.552,55,o),
(400,55,c),
(233.426,55,o),
(105,183.426,o),
(105,350,c),
(105,516.574,o),
(233.426,645,o),
(400,645,c),
(489.066,645,o),
(563.552,608.623,o),
(618.634,547.006,c),
(663.366,586.994,l),
(599.248,658.719,o),
(504.734,705,o),
(400,705,c),
(204.574,705,o),
(45,545.426,o),
(45,350,c),
(45,154.574,o),
(204.574,-5,o),
(400,-5,c),
(604.971,-5,o),
(774.398,174.277,o),
(753.205,350,c),
(459,350,l),
(459,290,l)
);
}
);
width = 800;
},
{
anchors = (
{
name = bottom;
pos = (400,0);
},
{
name = top;
pos = (400,710);
}
);
guides = (
{
angle = 42;
pos = (400,350);
}
);
layerId = m002;
shapes = (
{
closed = 1;
nodes = (
(630.09,262,l),
(601.378,176.668,o),
(512.946,110,o),
(400,110,c),
(259.853,110,o),
(160,209.853,o),
(160,350,c),
(160,490.147,o),
(259.853,590,o),
(400,590,c),
(474.997,590,o),
(530.88,562.412,o),
(577.074,510.23,c),
(666.926,589.77,l),
(602.468,662.583,o),
(507.003,710,o),
(400,710,c),
(201.947,710,o),
(40,548.053,o),
(40,350,c),
(40,151.947,o),
(201.947,-10,o),
(400,-10,c),
(618.746,-10,o),
(798.062,191.816,o),
(753.018,382,c),
(434,382,l),
(434,262,l)
);
}
);
width = 800;
}
);
unicode = 71;
}
{
glyphname = H;
kernLeft = H;
kernRight = H;
layers = (
{
anchors = (
{
name = bottom;
pos = (320,0);
},
{
name = center;
pos = (300,350);
},
{
name = top;
pos = (320,690);
},
{
name = topleft;
pos = (20,700);
}
);
layerId = m01;
shapes = (
{
closed = 1;
nodes = (
(140,700,l),
(80,700,l),
(80,0,l),
(140,0,l)
);
},
{
closed = 1;
nodes = (
(110,380,l),
(110,320,l),
(530,320,l),
(530,380,l)
);
},
{
closed = 1;
nodes = (
(560,700,l),
(500,700,l),
(500,0,l),
(560,0,l)
);
}
);
width = 640;
},
{
anchors = (
{
name = bottom;
pos = (330,0);
},
{
name = center;
pos = (310,350);
},
{
name = top;
pos = (330,700);
},
{
name = topleft;
pos = (30,700);
}
);
layerId = m002;
shapes = (
{
closed = 1;
nodes = (
(180,700,l),
(60,700,l),
(60,0,l),
(180,0,l)
);
},
{
closed = 1;
nodes = (
(120,410,l),
(120,290,l),
(540,290,l),
(540,410,l)
);
},
{
closed = 1;
nodes = (
(600,700,l),
(480,700,l),
(480,0,l),
(600,0,l)
);
}
);
width = 660;
}
);
unicode = 72;
}
{
glyphname = I;
kernLeft = H;
kernRight = l;
layers = (
{
anchors = (
{
name = bottom;
pos = (90,0);
},
{
name = ogonek;
pos = (90,0);
},
{
name = top;
pos = (90,700);
},
{
name = topleft;
pos = (0,700);
}
);
layerId = m01;
shapes = (
{
closed = 1;
nodes = (
(120,700,l),
(60,700,l),
(60,0,l),
(120,0,l)
);
}
);
width = 180;
},
{
anchors = (
{
name = bottom;
pos = (120,0);
},
{
name = ogonek;
pos = (120,0);
},
{
name = top;
pos = (120,700);
},
{
name = topleft;
pos = (30,700);
}
);
layerId = m002;
shapes = (
{
closed = 1;
nodes = (
(180,700,l),
(60,700,l),
(60,0,l),
(180,0,l)
);
}
);
width = 240;
}
);
metricLeft = "=H";
metricRight = "=H";
unicode = 73;
}
{
glyphname = J;
layers = (
{
anchors = (
{
name = bottom;
pos = (300,0);
},
{
name = top;
pos = (500,701);
}
);
layerId = m01;
shapes = (
{
closed = 1;
nodes = (
(470,222,l),
(470,124.426,o),
(397.574,52,o),
(300,52,c),
(202.426,52,o),
(130,124.426,o),
(130,222,c),
(70,222,l),
(70,95.574,o),
(173.574,-8,o),
(300,-8,c),
(426.426,-8,o),
(530,95.574,o),
(530,222,c),
(530,701,l),
(470,701,l)
);
}
);
width = 600;
},
{
anchors = (
{
name = bottom;
pos = (340,0);
},
{
name = top;
pos = (540,710);
}
);
layerId = m002;
shapes = (
{
closed = 1;
nodes = (
(480,252,l),
(480,166.853,o),
(425.147,112,o),
(340,112,c),
(254.853,112,o),
(200,166.853,o),
(200,252,c),
(80,252,l),
(80,108.947,o),
(196.947,-8,o),
(340,-8,c),
(483.053,-8,o),
(600,108.947,o),
(600,252,c),
(600,701,l),
(480,701,l)
);
}
);
width = 680;
}
);
unicode = 74;
}
{
glyphname = K;
kernLeft = H;
layers = (
{
anchors = (
{
name = bottom;
pos = (280,30);
},
{
name = top;
pos = (260,630);
}
);
background = {
shapes = (
{
attr = {
strokeHeight = 60;
strokeWidth = 60;
};
closed = 0;
nodes = (
(90,0,l),
(90,700,l)
);
},
{
attr = {
strokeHeight = 60;
strokeWidth = 60;
};
closed = 0;
nodes = (
(580,-50,l),
(180,350,l),
(580,750,l)
);
}
);
};
layerId = m01;
shapes = (
{
closed = 1;
nodes = (
(60,0,l),
(120,0,l),
(120,700,l),
(60,700,l)
);
},
{
closed = 1;
nodes = (
(128,350,l),
(478,0,l),
(562,0,l),
(212,350,l),
(562,700,l),
(478,700,l)
);
},
{
closed = 1;
nodes = (
(60,320,l),
(190,320,l),
(190,380,l),
(60,380,l)
);
}
);
width = 602;
},
{
anchors = (
{
name = bottom;
pos = (310,50);
},
{
name = top;
pos = (290,630);
}
);
background = {
shapes = (
{
attr = {
strokeHeight = 60;
strokeWidth = 60;
};
closed = 0;
nodes = (
(120,0,l),
(120,700,l)
);
},
{
attr = {
strokeHeight = 120;
strokeWidth = 120;
};
closed = 0;
nodes = (
(610,-50,l),
(210,350,l),
(610,750,l)
);
}
);
};
layerId = m002;
shapes = (
{
closed = 1;
nodes = (
(60,0,l),
(180,0,l),
(180,700,l),
(60,700,l)
);
},
{
closed = 1;
nodes = (
(155,350,l),
(505,0,l),
(675,0,l),
(325,350,l),
(675,700,l),
(505,700,l)
);
},
{
closed = 1;
nodes = (
(90,290,l),
(220,290,l),
(220,410,l),
(90,410,l)
);
}
);
width = 715;
}
);
metricLeft = "=H";
unicode = 75;
}
{
glyphname = L;
kernLeft = H;
layers = (
{
anchors = (
{
name = bottom;
pos = (300,0);
},
{
name = center;
pos = (300,350);
},
{
name = top;
pos = (110,700);
},
{
name = topright;
pos = (201,700);
}
);
layerId = m01;
shapes = (
{
closed = 1;
nodes = (
(140,700,l),
(80,700,l),
(80,0,l),
(140,0,l)
);
},
{
closed = 1;
nodes = (
(140,60,l),
(140,0,l),
(520,0,l),
(520,60,l)
);
}
);
width = 600;
},
{
anchors = (
{
name = bottom;
pos = (310,0);
},
{
name = center;
pos = (310,350);
},
{
name = top;
pos = (120,710);
},
{
name = topright;
pos = (301,700);
}
);
layerId = m002;
shapes = (
{
closed = 1;
nodes = (
(180,700,l),
(60,700,l),
(60,0,l),
(180,0,l)
);
},
{
closed = 1;
nodes = (
(150,120,l),
(150,0,l),
(530,0,l),
(530,120,l)
);
}
);
width = 570;
}
);
unicode = 76;
}
{
glyphname = M;
layers = (
{
anchors = (
{
name = bottom;
pos = (390,60);
},
{
name = top;
pos = (390,590);
}
);
background = {
shapes = (
{
attr = {
strokeHeight = 60;
strokeWidth = 60;
};
closed = 0;
nodes = (
(90,0,l),
(90,611,l),
(390,130,l),
(690,611,l),
(690,0,l)
);
}
);
};
layerId = m01;
shapes = (
{
closed = 1;
nodes = (
(720,716,l),
(390,187,l),
(60,716,l),
(60,0,l),
(120,0,l),
(120,506,l),
(390,73,l),
(660,506,l),
(660,0,l),
(720,0,l)
);
}
);
width = 780;
},
{
anchors = (
{
name = bottom;
pos = (420,0);
},
{
name = top;
pos = (420,580);
}
);
background = {
shapes = (
{
attr = {
strokeHeight = 120;
strokeWidth = 120;
};
closed = 0;
nodes = (
(120,0,l),
(120,541,l),
(420,150,l),
(720,541,l),
(720,0,l)
);
}
);
};
layerId = m002;
shapes = (
{
closed = 1;
nodes = (
(780,717.766,l),
(420,248.566,l),
(60,717.766,l),
(60,0,l),
(180,0,l),
(180,364.234,l),
(420,51.434,l),
(660,364.234,l),
(660,0,l),
(780,0,l)
);
}
);
width = 840;
}
);
metricLeft = "=H";
metricRight = "=H";
unicode = 77;
}
{
glyphname = N;
layers = (
{
anchors = (
{
name = bottom;
pos = (310,80);
},
{
name = top;
pos = (310,650);
}
);
background = {
shapes = (
{
attr = {
strokeHeight = 60;
strokeWidth = 60;
};
closed = 0;
nodes = (
(90,1,l),
(90,630,l),
(530,76,l),
(530,700,l)
);
}
);
};
layerId = m01;
shapes = (
{
closed = 1;
nodes = (
(500,162,l),
(60,716,l),
(60,0,l),
(120,0,l),
(120,544,l),
(560,-10,l),
(560,700,l),
(500,700,l)
);
}
);
width = 620;
},
{
anchors = (
{
name = bottom;
pos = (340,40);
},
{
name = top;
pos = (340,650);
}
);
background = {
shapes = (
{
attr = {
strokeHeight = 120;
strokeWidth = 120;
};
closed = 0;
nodes = (
(120,1,l),
(120,578,l),
(560,128,l),
(560,700,l)
);
}
);
};
layerId = m002;
shapes = (
{
closed = 1;
nodes = (
(500,275,l),
(60,725,l),
(60,0,l),
(180,0,l),
(180,431,l),
(620,-19,l),
(620,700,l),
(500,700,l)
);
}
);
width = 680;
}
);
metricLeft = "=|H";
metricRight = "=|H";
unicode = 78;
}
{
glyphname = O;
kernLeft = O;
layers = (
{
anchors = (
{
name = bottom;
pos = (400,0);
},
{
name = center;
pos = (400,350);
},
{
name = ogonek;
pos = (720,10);
},
{
name = top;
pos = (400,700);
},
{
name = topleft;
pos = (20,700);
},
{
name = topright;
pos = (607,600);
}
);
layerId = m01;
shapes = (
{
closed = 1;
nodes = (
(233.426,55,o),
(105,183.426,o),
(105,350,c),
(105,516.574,o),
(233.426,645,o),
(400,645,c),
(566.574,645,o),
(695,516.574,o),
(695,350,c),
(695,183.426,o),
(566.574,55,o),
(400,55,c)
);
},
{
closed = 1;
nodes = (
(595.426,-5,o),
(755,154.574,o),
(755,350,c),
(755,545.426,o),
(595.426,705,o),
(400,705,c),
(204.574,705,o),
(45,545.426,o),
(45,350,c),
(45,154.574,o),
(204.574,-5,o),
(400,-5,c)
);
}
);
width = 800;
},
{
anchors = (
{
name = bottom;
pos = (400,0);
},
{
name = center;
pos = (400,350);
},
{
name = ogonek;
pos = (720,10);
},
{
name = top;
pos = (400,710);
},
{
name = topleft;
pos = (20,700);
},
{
name = topright;
pos = (614,560);
}
);
layerId = m002;
shapes = (
{
closed = 1;
nodes = (
(259.853,110,o),
(160,209.853,o),
(160,350,c),
(160,490.147,o),
(259.853,590,o),
(400,590,c),
(540.147,590,o),
(640,490.147,o),
(640,350,c),
(640,209.853,o),
(540.147,110,o),
(400,110,c)
);
},
{
closed = 1;
nodes = (
(598.053,-10,o),
(760,151.947,o),
(760,350,c),
(760,548.053,o),
(598.053,710,o),
(400,710,c),
(201.947,710,o),
(40,548.053,o),
(40,350,c),
(40,151.947,o),
(201.947,-10,o),
(400,-10,c)
);
}
);
width = 800;
}
);
unicode = 79;
}
{
glyphname = P;
kernLeft = H;
layers = (
{
layerId = m01;
shapes = (
{
closed = 1;
nodes = (
(310,280,l),
(425,280,o),
(520,375,o),
(520,490,c),
(520,605,o),
(425,700,o),
(310,700,c),
(120,700,l),
(120,640,l),
(310,640,l),
(397,640,o),
(460,577,o),
(460,490,c),
(460,403,o),
(397,340,o),
(310,340,c),
(120,340,l),
(120,280,l)
);
},
{
closed = 1;
nodes = (
(120,700,l),
(60,700,l),
(60,0,l),
(120,0,l)
);
}
);
width = 540;
},
{
layerId = m002;
shapes = (
{
closed = 1;
nodes = (
(340,250,l),
(469,250,o),
(580,340,o),
(580,475,c),
(580,610,o),
(469,700,o),
(340,700,c),
(150,700,l),
(150,580,l),
(340,580,l),
(418,580,o),
(460,545,o),
(460,475,c),
(460,405,o),
(418,370,o),
(340,370,c),
(150,370,l),
(150,250,l)
);
},
{
closed = 1;
nodes = (
(180,700,l),
(60,700,l),
(60,0,l),
(180,0,l)
);
}
);
width = 610;
}
);
metricLeft = "=H";
unicode = 80;
}
{
glyphname = Q;
kernLeft = O;
layers = (
{
layerId = m01;
shapes = (
{
attr = {
strokeHeight = 60;
strokeWidth = 60;
};
closed = 1;
nodes = (
(579,25,o),
(725,171,o),
(725,350,cs),
(725,529,o),
(579,675,o),
(400,675,cs),
(221,675,o),
(75,529,o),
(75,350,cs),
(75,171,o),
(221,25,o),
(400,25,cs)
);
},
{
closed = 1;
nodes = (
(648,0,l),
(728,0,l),
(528,280,l),
(448,280,l)
);
}
);
width = 800;
},
{
layerId = m002;
shapes = (
{
attr = {
strokeHeight = 120;
strokeWidth = 120;
};
closed = 1;
nodes = (
(565,50,o),
(700,185,o),
(700,350,cs),
(700,515,o),
(565,650,o),
(400,650,cs),
(235,650,o),
(100,515,o),
(100,350,cs),
(100,185,o),
(235,50,o),
(400,50,cs)
);
},
{
closed = 1;
nodes = (
(598,0,l),
(758,0,l),
(558,280,l),
(398,280,l)
);
}
);
width = 800;
}
);
unicode = 81;
}
{
glyphname = R;
layers = (
{
anchors = (
{
name = bottom;
pos = (300,40);
},
{
name = top;
pos = (270,700);
}
);
background = {
shapes = (
{
attr = {
strokeHeight = 60;
strokeWidth = 60;
};
closed = 0;
nodes = (
(330,310,l),
(533,-21,l)
);
}
);
};
layerId = m01;
shapes = (
{
closed = 1;
nodes = (
(330,280,l),
(445.426,280,o),
(540,374.574,o),
(540,490,c),
(540,605.426,o),
(445.426,700,o),
(330,700,c),
(140,700,l),
(140,640,l),
(330,640,l),
(416.574,640,o),
(480,576.574,o),
(480,490,c),
(480,403.426,o),
(416.574,340,o),
(330,340,c),
(140,340,l),
(140,280,l)
);
},
{
closed = 1;
nodes = (
(140,700,l),
(80,700,l),
(80,0,l),
(140,0,l)
);
},
{
closed = 1;
nodes = (
(556,1,l),
(374,297,l),
(308,287,l),
(484,0,l)
);
}
);
width = 600;
},
{
anchors = (
{
name = bottom;
pos = (300,30);
},
{
name = top;
pos = (270,710);
}
);
background = {
shapes = (
{
attr = {
strokeHeight = 60;
strokeWidth = 60;
};
closed = 0;
nodes = (
(340,310,l),
(543,-21,l)
);
}
);
};
layerId = m002;
shapes = (
{
closed = 1;
nodes = (
(340,250,l),
(469.149,250,o),
(580,340.293,o),
(580,475,c),
(580,609.707,o),
(469.149,700,o),
(340,700,c),
(150,700,l),
(150,580,l),
(340,580,l),
(417.651,580,o),
(460,545.493,o),
(460,475,c),
(460,404.507,o),
(417.651,370,o),
(340,370,c),
(150,370,l),
(150,250,l)
);
},
{
closed = 1;
nodes = (
(180,700,l),
(60,700,l),
(60,0,l),
(180,0,l)
);
},
{
closed = 1;
nodes = (
(586,1,l),
(404,297,l),
(268,287,l),
(444,0,l)
);
}
);
width = 610;
}
);
unicode = 82;
}
{
glyphname = S;
layers = (
{
anchors = (
{
name = bottom;
pos = (300,0);
},
{
name = top;
pos = (300,710);
}
);
background = {
shapes = (
{
attr = {
strokeHeight = 60;
strokeWidth = 60;
};
closed = 0;
nodes = (
(87,197,l),
(87,97,o),
(182,24,o),
(300,24,cs),
(418,24,o),
(491,82,o),
(500,172,cs),
(510,273,o),
(401,321,o),
(300,349,cs),
(196,378,o),
(80,424,o),
(90,528,cs),
(99,618,o),
(182,676,o),
(300,676,cs),
(418,676,o),
(513,603,o),
(513,503,c)
);
}
);
};
layerId = m01;
shapes = (
{
closed = 1;
nodes = (
(543,621.782,o),
(432.195,706,o),
(300,706,c),
(168.557,706,o),
(70.918,638.677,o),
(60.143,530.928,c),
(47.903,403.629,o),
(183.333,350.388,o),
(291.964,320.096,c),
(390.895,292.67,o),
(478.003,254.31,o),
(470.147,174.97,c),
(462.411,97.601,o),
(407.533,54,o),
(300,54,c),
(192.195,54,o),
(117,111.782,o),
(117,197,c),
(57,197,l),
(57,78.218,o),
(167.805,-6,o),
(300,-6,c),
(432.467,-6,o),
(519.191,62.419,o),
(529.853,169.03,c),
(542.135,293.083,o),
(413.611,348.635,o),
(308.036,377.904,c),
(205.585,406.472,o),
(112.021,443.575,o),
(119.857,525.072,c),
(127.48,601.303,o),
(191.443,646,o),
(300,646,c),
(407.805,646,o),
(483,588.218,o),
(483,503,c),
(543,503,l)
);
}
);
width = 600;
},
{
anchors = (
{
name = bottom;
pos = (300,-10);
},
{
name = top;
pos = (300,720);
}
);
background = {
shapes = (
{
attr = {
strokeHeight = 120;
strokeWidth = 120;
};
closed = 0;
nodes = (
(97,227,l),
(97,127,o),
(187,44,o),
(300,44,cs),
(408,44,o),
(491,92,o),
(500,182,cs),
(510,278,o),
(401,330,o),
(300,349,cs),
(194,369,o),
(80,419,o),
(90,518,cs),
(99,608,o),
(193,656,o),
(300,656,cs),
(413,656,o),
(503,573,o),
(503,473,c)
);
}
);
};
layerId = m002;
shapes = (
{
closed = 1;
nodes = (
(563,607.486,o),
(444.643,716,o),
(300,716,c),
(169.967,716,o),
(43.113,652.119,o),
(30.301,524,c),
(17.128,393.59,o),
(140.391,318.056,o),
(288.891,290.037,c),
(382.223,272.48,o),
(445.934,242.085,o),
(440.31,188.093,c),
(434.356,128.553,o),
(391.9,104,o),
(300,104,c),
(210.443,104,o),
(157,153.286,o),
(157,227,c),
(37,227,l),
(37,92.514,o),
(155.357,-16,o),
(300,-16,c),
(432.1,-16,o),
(547.027,49.278,o),
(559.69,175.907,c),
(573.034,304.009,o),
(451.619,381.53,o),
(311.109,407.963,c),
(211.841,426.693,o),
(144.084,456.41,o),
(149.699,512,c),
(155.445,569.453,o),
(207.433,596,o),
(300,596,c),
(389.557,596,o),
(443,546.714,o),
(443,473,c),
(563,473,l)
);
}
);
width = 600;
}
);
unicode = 83;
}
{
glyphname = T;
kernLeft = V;
kernRight = V;
layers = (
{
anchors = (
{
name = bottom;
pos = (280,0);
},
{
name = center;
pos = (280,350);
},
{
name = top;
pos = (280,700);
}
);
layerId = m01;
shapes = (
{
closed = 1;
nodes = (
(310,700,l),
(250,700,l),
(250,0,l),
(310,0,l)
);
},
{
closed = 1;
nodes = (
(20,700,l),
(20,640,l),
(540,640,l),
(540,700,l)
);
}
);
width = 560;
},
{
anchors = (
{
name = bottom;
pos = (300,0);
},
{
name = center;
pos = (300,350);
},
{
name = top;
pos = (300,710);
}
);
layerId = m002;
shapes = (
{
closed = 1;
nodes = (
(360,700,l),
(240,700,l),
(240,0,l),
(360,0,l)
);
},
{
closed = 1;
nodes = (
(20,700,l),
(20,580,l),
(580,580,l),
(580,700,l)
);
}
);
width = 600;
}
);
unicode = 84;
}
{
glyphname = U;
layers = (
{
anchors = (
{
name = bottom;
pos = (300,0);
},
{
name = ogonek;
pos = (300,0);
},
{
name = top;
pos = (300,700);
},
{
name = topright;
pos = (540,670);
}
);
layerId = m01;
shapes = (
{
closed = 1;
nodes = (
(480,231,l),
(480,124.361,o),
(398.488,51,o),
(300,51,c),
(201.512,51,o),
(120,124.361,o),
(120,231,c),
(120,700,l),
(60,700,l),
(60,231,l),
(60,93.639,o),
(174.488,-9,o),
(300,-9,c),
(425.512,-9,o),
(540,93.639,o),
(540,231,c),
(540,700,l),
(480,700,l)
);
}
);
width = 600;
},
{
anchors = (
{
name = bottom;
pos = (330,0);
},
{
name = ogonek;
pos = (330,0);
},
{
name = top;
pos = (330,690);
},
{
name = topright;
pos = (600,640);
}
);
layerId = m002;
shapes = (
{
closed = 1;
nodes = (
(480,261,l),
(480,171,o),
(421,111,o),
(330,111,c),
(240,111,o),
(180,171,o),
(180,261,c),
(180,700,l),
(60,700,l),
(60,261,l),
(60,113,o),
(182,-9,o),
(330,-9,c),
(479,-9,o),
(600,113,o),
(600,261,c),
(600,700,l),
(480,700,l)
);
}
);
width = 660;
}
);
unicode = 85;
}
{
glyphname = V;
kernLeft = V;
kernRight = V;
layers = (
{
layerId = m01;
shapes = (
{
closed = 1;
nodes = (
(515,700,l),
(292,148,l),
(84,700,l),
(20,700,l),
(290,-16,l),
(580,700,l)
);
}
);
width = 600;
},
{
layerId = m002;
shapes = (
{
closed = 1;
nodes = (
(515,700,l),
(333,283,l),
(152,700,l),
(20,700,l),
(333,-16,l),
(646,700,l)
);
}
);
width = 666;
}
);
unicode = 86;
}
{
glyphname = W;
layers = (
{
anchors = (
{
name = bottom;
pos = (500,0);
},
{
name = top;
pos = (500,710);
}
);
background = {
shapes = (
{
attr = {
strokeHeight = 60;
strokeWidth = 60;
};
closed = 0;
nodes = (
(75,725,l),
(265,74,l),
(500,637,l),
(735,74,l),
(925,725,l)
);
}
);
};
layerId = m01;
shapes = (
{
closed = 1;
nodes = (
(260,-16,l),
(500,559,l),
(740,-16,l),
(949,700,l),
(887,700,l),
(730,164,l),
(500,715,l),
(270,164,l),
(114,700,l),
(51,700,l)
);
}
);
width = 1000;
},
{
anchors = (
{
name = bottom;
pos = (517,0);
},
{
name = top;
pos = (517,710);
}
);
background = {
shapes = (
{
attr = {
strokeHeight = 120;
strokeWidth = 120;
};
closed = 0;
nodes = (
(65,725,l),
(267,133,l),
(517,591,l),
(767,133,l),
(969,725,l)
);
}
);
};
layerId = m002;
shapes = (
{
closed = 1;
nodes = (
(254,-16,l),
(517,466,l),
(780,-16,l),
(1024,700,l),
(897,700,l),
(754,282,l),
(517,715,l),
(280,282,l),
(137,700,l),
(10,700,l)
);
}
);
width = 1034;
}
);
unicode = 87;
}
{
glyphname = X;
layers = (
{
background = {
shapes = (
{
attr = {
strokeHeight = 60;
strokeWidth = 60;
};
closed = 0;
nodes = (
(552,722,l),
(62,-22,l)
);
},
{
attr = {
strokeHeight = 60;
strokeWidth = 60;
};
closed = 0;
nodes = (
(62,722,l),
(552,-22,l)
);
}
);
};
layerId = m01;
shapes = (
{
closed = 1;
nodes = (
(271,350,l),
(40,0,l),
(113,0,l),
(307,295,l),
(501,0,l),
(574,0,l),
(343,350,l),
(574,700,l),
(501,700,l),
(307,405,l),
(113,700,l),
(40,700,l)
);
}
);
width = 614;
},
{
background = {
shapes = (
{
attr = {
strokeHeight = 120;
strokeWidth = 120;
};
closed = 0;
nodes = (
(587,722,l),
(67,-22,l)
);
},
{
attr = {
strokeHeight = 120;
strokeWidth = 120;
};
closed = 0;
nodes = (
(67,722,l),
(587,-22,l)
);
}
);
};
layerId = m002;
shapes = (
{
closed = 1;
nodes = (
(254,350,l),
(10,0,l),
(155,0,l),
(327,245,l),
(499,0,l),
(644,0,l),
(400,350,l),
(644,700,l),
(499,700,l),
(327,455,l),
(155,700,l),
(10,700,l)
);
}
);
width = 654;
}
);
unicode = 88;
}
{
glyphname = Y;
layers = (
{
anchors = (
{
name = bottom;
pos = (320,0);
},
{
name = top;
pos = (320,660);
},
{
name = topleft;
pos = (20,700);
}
);
background = {
shapes = (
{
attr = {
strokeHeight = 60;
strokeWidth = 60;
};
closed = 0;
nodes = (
(44,718,l),
(320,340,l),
(596,718,l)
);
}
);
};
guides = (
{
angle = 90;
pos = (20,0);
},
{
angle = 90;
pos = (620,0);
}
);
layerId = m01;
shapes = (
{
closed = 1;
nodes = (
(320,390.874,l),
(94,700,l),
(19.771,700.309,l),
(320,289.126,l),
(620.229,700.309,l),
(546,700,l)
);
},
{
closed = 1;
nodes = (
(290,0,l),
(350,0,l),
(350,382,l),
(290,382,l)
);
}
);
width = 640;
},
{
anchors = (
{
name = bottom;
pos = (356,0);
},
{
name = top;
pos = (356,690);
},
{
name = topleft;
pos = (56,700);
}
);
background = {
shapes = (
{
attr = {
strokeHeight = 120;
strokeWidth = 120;
};
closed = 0;
nodes = (
(80,718,l),
(356,340,l),
(632,718,l)
);
}
);
};
guides = (
{
angle = 90;
pos = (56,0);
},
{
angle = 90;
pos = (656,0);
}
);
layerId = m002;
shapes = (
{
closed = 1;
nodes = (
(356,442,l),
(167,700,l),
(20,700,l),
(356,238,l),
(692,700,l),
(545,700,l)
);
},
{
closed = 1;
nodes = (
(296,0,l),
(416,0,l),
(416,382,l),
(296,382,l)
);
}
);
width = 712;
}
);
unicode = 89;
}
{
glyphname = Z;
layers = (
{
anchors = (
{
name = bottom;
pos = (271,0);
},
{
name = center;
pos = (271,350);
},
{
name = top;
pos = (271,700);
}
);
background = {
shapes = (
{
attr = {
strokeWidth = 60;
};
closed = 0;
nodes = (
(51,667,l),
(451,667,l),
(91,30,l),
(491,30,l)
);
}
);
};
layerId = m01;
shapes = (
{
closed = 1;
nodes = (
(142,60,l),
(502,697,l),
(51,697,l),
(51,637,l),
(400,637,l),
(40,0,l),
(491,0,l),
(491,60,l)
);
}
);
width = 542;
},
{
anchors = (
{
name = bottom;
pos = (320,0);
},
{
name = center;
pos = (320,350);
},
{
name = top;
pos = (320,710);
}
);
background = {
shapes = (
{
attr = {
strokeHeight = 120;
strokeWidth = 120;
};
closed = 0;
nodes = (
(60,637,l),
(500,637,l),
(140,60,l),
(580,60,l)
);
}
);
};
layerId = m002;
shapes = (
{
closed = 1;
nodes = (
(248.155,120,l),
(608.155,697,l),
(60,697,l),
(60,577,l),
(391.845,577,l),
(31.845,0,l),
(580,0,l),
(580,120,l)
);
}
);
width = 640;
}
);
unicode = 90;
}
{
glyphname = bracketleft;
layers = (
{
layerId = m01;
shapes = (
{
closed = 1;
nodes = (
(140,0,l),
(140,700,l),
(260,700,l),
(260,760,l),
(80,760,l),
(80,-60,l),
(260,-60,l),
(260,0,l)
);
}
);
width = 310;
},
{
layerId = m002;
shapes = (
{
closed = 1;
nodes = (
(220,30,l),
(220,670,l),
(340,670,l),
(340,790,l),
(100,790,l),
(100,-90,l),
(340,-90,l),
(340,30,l)
);
}
);
width = 390;
}
);
unicode = 91;
}
{
glyphname = backslash;
layers = (
{
layerId = m002;
shapes = (
{
closed = 1;
nodes = (
(260,-60,l),
(390,-60,l),
(210,700,l),
(80,700,l)
);
}
);
width = 470;
},
{
layerId = m01;
shapes = (
{
closed = 1;
nodes = (
(220,-60,l),
(282,-60,l),
(102,700,l),
(40,700,l)
);
}
);
width = 322;
}
);
unicode = 92;
}
{
glyphname = bracketright;
layers = (
{
layerId = m01;
shapes = (
{
closed = 1;
nodes = (
(230,-60,l),
(230,760,l),
(60,760,l),
(60,700,l),
(170,700,l),
(170,0,l),
(50,0,l),
(50,-60,l)
);
}
);
width = 310;
},
{
layerId = m002;
shapes = (
{
closed = 1;
nodes = (
(290,-90,l),
(290,790,l),
(60,790,l),
(60,670,l),
(170,670,l),
(170,30,l),
(50,30,l),
(50,-90,l)
);
}
);
width = 390;
}
);
unicode = 93;
}
{
glyphname = asciicircum;
layers = (
{
layerId = m01;
shapes = (
{
closed = 1;
nodes = (
(440,194,l),
(240,710,l),
(40,194,l),
(104,194,l),
(240,544,l),
(376,194,l)
);
}
);
width = 480;
},
{
layerId = m002;
shapes = (
{
closed = 1;
nodes = (
(536,194,l),
(283,710,l),
(30,194,l),
(163,194,l),
(283,438,l),
(403,194,l)
);
}
);
width = 566;
}
);
unicode = 94;
}
{
glyphname = underscore;
layers = (
{
layerId = m01;
shapes = (
{
closed = 1;
nodes = (
(0,-140,l),
(400,-140,l),
(400,-80,l),
(0,-80,l)
);
}
);
width = 400;
},
{
layerId = m002;
shapes = (
{
closed = 1;
nodes = (
(0,-180,l),
(500,-180,l),
(500,-60,l),
(0,-60,l)
);
}
);
width = 500;
}
);
unicode = 95;
}
{
glyphname = a;
kernLeft = o;
layers = (
{
anchors = (
{
name = bottom;
pos = (295,0);
},
{
name = ogonek;
pos = (522,0);
},
{
name = top;
pos = (295,510);
}
);
layerId = m01;
shapes = (
{
closed = 1;
nodes = (
(192,55,o),
(110,138,o),
(110,250,cs),
(110,362,o),
(192,445,o),
(304,445,cs),
(416,445,o),
(490,362,o),
(490,250,cs),
(490,138,o),
(416,55,o),
(304,55,cs)
);
},
{
closed = 1;
nodes = (
(550,500,l),
(490,500,l),
(490,414,l),
(453,469,o),
(373,505,o),
(295,505,cs),
(155,505,o),
(40,390,o),
(40,250,cs),
(40,110,o),
(155,-5,o),
(295,-5,cs),
(373,-5,o),
(453,31,o),
(490,86,c),
(490,0,l),
(550,0,l)
);
}
);
width = 610;
},
{
anchors = (
{
name = bottom;
pos = (294,0);
},
{
name = ogonek;
pos = (516,0);
},
{
name = top;
pos = (300,520);
}
);
layerId = m002;
shapes = (
{
closed = 1;
nodes = (
(224,111,o),
(160,165,o),
(160,250,cs),
(160,335,o),
(224,389,o),
(309,389,cs),
(394,389,o),
(458,335,o),
(458,250,cs),
(458,165,o),
(394,111,o),
(309,111,cs)
);
},
{
closed = 1;
nodes = (
(569,500,l),
(449,500,l),
(449,451,l),
(427,481,o),
(355,509,o),
(299,509,cs),
(156,509,o),
(40,393,o),
(40,250,cs),
(40,107,o),
(156,-9,o),
(299,-9,cs),
(355,-9,o),
(427,19,o),
(449,49,c),
(449,0,l),
(569,0,l)
);
}
);
width = 619;
}
);
metricLeft = "=o";
metricRight = "=n";
unicode = 97;
}
{
glyphname = b;
kernLeft = l;
kernRight = o;
layers = (
{
layerId = m01;
shapes = (
{
closed = 1;
nodes = (
(413,445,o),
(495,362,o),
(495,250,cs),
(495,138,o),
(413,55,o),
(301,55,cs),
(189,55,o),
(115,138,o),
(115,250,cs),
(115,362,o),
(189,445,o),
(301,445,cs)
);
},
{
closed = 1;
nodes = (
(55,0,l),
(115,0,l),
(115,86,l),
(152,31,o),
(232,-5,o),
(310,-5,cs),
(450,-5,o),
(565,110,o),
(565,250,cs),
(565,390,o),
(450,505,o),
(310,505,cs),
(232,505,o),
(152,469,o),
(115,414,c),
(115,800,l),
(55,800,l)
);
}
);
width = 600;
},
{
layerId = m002;
shapes = (
{
closed = 1;
nodes = (
(425,389,o),
(489,335,o),
(489,250,cs),
(489,165,o),
(425,111,o),
(340,111,cs),
(255,111,o),
(191,165,o),
(191,250,cs),
(191,335,o),
(255,389,o),
(340,389,cs)
);
},
{
closed = 1;
nodes = (
(80,0,l),
(200,0,l),
(200,49,l),
(222,19,o),
(294,-9,o),
(350,-9,cs),
(493,-9,o),
(609,107,o),
(609,250,cs),
(609,393,o),
(493,509,o),
(350,509,cs),
(294,509,o),
(222,481,o),
(200,451,c),
(200,800,l),
(80,800,l)
);
}
);
width = 649;
}
);
unicode = 98;
}
{
glyphname = c;
kernLeft = o;
kernRight = c;
layers = (
{
anchors = (
{
name = bottom;
pos = (295,0);
},
{
name = top;
pos = (295,510);
}
);
guides = (
{
angle = 42;
pos = (295,250);
}
);
layerId = m01;
shapes = (
{
closed = 1;
nodes = (
(403,78,o),
(354,55,o),
(295,55,c),
(183,55,o),
(100,138,o),
(100,250,c),
(100,362,o),
(183,445,o),
(295,445,c),
(354,445,o),
(403,422,o),
(440,380,c),
(484,420,l),
(438,472,o),
(370,505,o),
(295,505,c),
(155,505,o),
(40,390,o),
(40,250,c),
(40,110,o),
(155,-5,o),
(295,-5,c),
(370,-5,o),
(438,28,o),
(484,80,c),
(440,120,l)
);
}
);
width = 504;
},
{
anchors = (
{
name = bottom;
pos = (299,0);
},
{
name = top;
pos = (299,515);
}
);
guides = (
{
angle = 42;
pos = (299,250);
}
);
layerId = m002;
shapes = (
{
closed = 1;
nodes = (
(368.085,128.927,o),
(338.559,115,o),
(295,115,c),
(212.652,115,o),
(160,167.054,o),
(160,250,c),
(160,332.946,o),
(212.652,385,o),
(295,385,c),
(338.559,385,o),
(368.085,371.073,o),
(394.845,340.49,c),
(485.155,419.51,l),
(439.281,471.938,o),
(369.441,505,o),
(295,505,c),
(155.148,505,o),
(40,391.254,o),
(40,250,c),
(40,108.746,o),
(155.148,-5,o),
(295,-5,c),
(369.441,-5,o),
(439.281,28.062,o),
(485.155,80.49,c),
(394.845,159.51,l)
);
}
);
width = 505;
}
);
metricLeft = "=o";
unicode = 99;
}
{
glyphname = d;
kernLeft = o;
kernRight = l;
layers = (
{
anchors = (
{
name = bottom;
pos = (313,0);
},
{
name = center;
pos = (323,250);
},
{
name = top;
pos = (323,680);
},
{
name = topright;
pos = (625,800);
}
);
layerId = m01;
shapes = (
{
closed = 1;
nodes = (
(431,445,o),
(505,362,o),
(505,250,cs),
(505,138,o),
(431,55,o),
(319,55,cs),
(207,55,o),
(125,138,o),
(125,250,cs),
(125,362,o),
(207,445,o),
(319,445,cs)
);
},
{
closed = 1;
nodes = (
(565,800,l),
(505,800,l),
(505,414,l),
(468,469,o),
(388,505,o),
(310,505,cs),
(170,505,o),
(55,390,o),
(55,250,cs),
(55,110,o),
(170,-5,o),
(310,-5,cs),
(388,-5,o),
(468,31,o),
(505,86,c),
(505,0,l),
(565,0,l)
);
}
);
width = 645;
},
{
anchors = (
{
name = bottom;
pos = (295,0);
},
{
name = center;
pos = (325,250);
},
{
name = top;
pos = (295,690);
},
{
name = topright;
pos = (629,800);
}
);
layerId = m002;
shapes = (
{
closed = 1;
nodes = (
(394,389,o),
(458,335,o),
(458,250,cs),
(458,165,o),
(394,111,o),
(309,111,cs),
(224,111,o),
(160,165,o),
(160,250,cs),
(160,335,o),
(224,389,o),
(309,389,cs)
);
},
{
closed = 1;
nodes = (
(569,800,l),
(449,800,l),
(449,451,l),
(427,481,o),
(355,509,o),
(299,509,cs),
(156,509,o),
(40,393,o),
(40,250,cs),
(40,107,o),
(156,-9,o),
(299,-9,cs),
(355,-9,o),
(427,19,o),
(449,49,c),
(449,0,l),
(569,0,l)
);
}
);
width = 649;
}
);
unicode = 100;
}
{
glyphname = e;
kernLeft = o;
kernRight = o;
layers = (
{
anchors = (
{
name = bottom;
pos = (300,0);
},
{
name = top;
pos = (300,500);
}
);
layerId = m01;
shapes = (
{
closed = 1;
nodes = (
(553.267,220,l),
(570.998,373.733,o),
(450.309,505,o),
(300,505,c),
(159.574,505,o),
(45,390.426,o),
(45,250,c),
(45,109.574,o),
(159.574,-5,o),
(300,-5,c),
(412.51,-5,o),
(489.663,55.854,o),
(539.665,138.466,c),
(488.335,169.534,l),
(445.197,98.263,o),
(389.69,55,o),
(300,55,c),
(188.426,55,o),
(105,138.426,o),
(105,250,c),
(105,361.574,o),
(188.426,445,o),
(300,445,c),
(401.322,445,o),
(479.431,376.201,o),
(492.93,280,c),
(88,280,l),
(88,220,l)
);
}
);
width = 600;
},
{
anchors = (
{
name = bottom;
pos = (295,0);
},
{
name = top;
pos = (295,520);
}
);
layerId = m002;
shapes = (
{
closed = 1;
nodes = (
(543.198,190,l),
(581.075,357.266,o),
(455.609,505,o),
(295,505,c),
(153.947,505,o),
(40,391.053,o),
(40,250,c),
(40,108.947,o),
(153.947,-5,o),
(295,-5,c),
(391.516,-5,o),
(462.469,40.602,o),
(511.557,104.417,c),
(416.443,177.583,l),
(382.971,134.069,o),
(352.684,115,o),
(295,115,c),
(211.853,115,o),
(160,166.853,o),
(160,250,c),
(160,333.147,o),
(211.853,385,o),
(295,385,c),
(355.74,385,o),
(399.78,357.328,o),
(419.106,310,c),
(111,310,l),
(111,190,l)
);
}
);
width = 590;
}
);
unicode = 101;
}
{
glyphname = f;
kernLeft = t;
kernRight = f;
layers = (
{
layerId = m01;
shapes = (
{
closed = 1;
nodes = (
(130,610,l),
(130,626,o),
(144,640,o),
(160,640,c),
(190,640,l),
(190,700,l),
(160,700,l),
(116,700,o),
(70,654,o),
(70,610,c),
(70,0,l),
(130,0,l)
);
},
{
closed = 1;
nodes = (
(20,500,l),
(20,440,l),
(180,440,l),
(180,500,l)
);
}
);
width = 210;
},
{
layerId = m002;
shapes = (
{
closed = 1;
nodes = (
(230,550,l),
(230,575,o),
(235,580,o),
(260,580,c),
(310,580,l),
(310,700,l),
(260,700,l),
(177,700,o),
(110,633,o),
(110,550,c),
(110,0,l),
(230,0,l)
);
},
{
closed = 1;
nodes = (
(20,500,l),
(20,380,l),
(320,380,l),
(320,500,l)
);
}
);
width = 340;
}
);
metricLeft = "=t";
metricRight = "=t";
unicode = 102;
}
{
glyphname = g;
layers = (
{
anchors = (
{
name = bottom;
pos = (306,-200);
},
{
name = top;
pos = (295,500);
}
);
layerId = m01;
shapes = (
{
closed = 1;
nodes = (
(192,55,o),
(110,138,o),
(110,250,cs),
(110,362,o),
(192,445,o),
(304,445,cs),
(416,445,o),
(490,362,o),
(490,250,cs),
(490,138,o),
(416,55,o),
(304,55,cs)
);
},
{
closed = 1;
nodes = (
(550,500,l),
(490,500,l),
(490,414,l),
(453,469,o),
(373,505,o),
(295,505,cs),
(155,505,o),
(40,390,o),
(40,250,cs),
(40,110,o),
(155,-5,o),
(295,-5,cs),
(373,-5,o),
(453,31,o),
(490,86,c),
(490,20,l),
(550,20,l)
);
},
{
closed = 1;
nodes = (
(60,-127,o),
(167,-210,o),
(306,-210,c),
(445,-210,o),
(550,-107,o),
(550,20,c),
(490,20,l),
(490,-75,o),
(417,-150,o),
(306,-150,c),
(195,-150,o),
(120,-95,o),
(120,0,c),
(60,0,l)
);
}
);
width = 590;
},
{
anchors = (
{
name = bottom;
pos = (310,-200);
},
{
name = top;
pos = (310,510);
}
);
layerId = m002;
shapes = (
{
closed = 1;
nodes = (
(234,111,o),
(170,165,o),
(170,250,cs),
(170,335,o),
(234,389,o),
(319,389,cs),
(404,389,o),
(468,335,o),
(468,250,cs),
(468,165,o),
(404,111,o),
(319,111,cs)
);
},
{
closed = 1;
nodes = (
(579,500,l),
(459,500,l),
(459,451,l),
(437,481,o),
(365,509,o),
(309,509,cs),
(166,509,o),
(50,393,o),
(50,250,cs),
(50,107,o),
(166,-9,o),
(309,-9,cs),
(365,-9,o),
(437,19,o),
(459,49,c),
(459,0,l),
(579,0,l)
);
},
{
closed = 1;
nodes = (
(61,-125,o),
(172,-210,o),
(320,-210,c),
(460,-210,o),
(579,-120,o),
(579,0,c),
(459,0,l),
(459,-53,o),
(410,-90,o),
(320,-90,c),
(228,-90,o),
(181,-59,o),
(181,-20,c),
(61,-20,l)
);
}
);
width = 619;
}
);
unicode = 103;
}
{
glyphname = h;
kernLeft = H;
kernRight = n;
layers = (
{
anchors = (
{
name = bottom;
pos = (270,40);
},
{
name = center;
pos = (270,400);
},
{
name = top;
pos = (91,760);
}
);
layerId = m01;
shapes = (
{
closed = 1;
nodes = (
(61,0,l),
(121,0,l),
(120,301,l),
(121,381,o),
(190,450,o),
(273,450,cs),
(360,450,o),
(419,387,o),
(419,300,cs),
(420,0,l),
(480,0,l),
(479,300,ls),
(479,415,o),
(388,510,o),
(273,510,cs),
(215,510,o),
(138,476,o),
(120,426,c),
(120,800,l),
(60,800,l),
(60,301,l)
);
}
);
width = 540;
},
{
anchors = (
{
name = bottom;
pos = (282,0);
},
{
name = center;
pos = (280,400);
},
{
name = top;
pos = (121,790);
}
);
layerId = m002;
shapes = (
{
closed = 1;
nodes = (
(60,0,l),
(181,0,l),
(181,301,ls),
(181,344,o),
(221,391,o),
(288,391,cs),
(353,391,o),
(396,351,o),
(396,300,cs),
(396,0,l),
(515,0,l),
(515,300,ls),
(515,415,o),
(411,510,o),
(301,510,cs),
(238,510,o),
(204,495,o),
(181,476,c),
(181,800,l),
(60,800,l),
(60,301,l)
);
}
);
width = 575;
}
);
metricLeft = "=n";
metricRight = "=n";
unicode = 104;
}
{
glyphname = i;
kernLeft = i;
kernRight = i;
layers = (
{
anchors = (
{
name = bottom;
pos = (80,0);
}
);
layerId = m01;
shapes = (
{
closed = 1;
nodes = (
(50,0,l),
(110,0,l),
(110,500,l),
(50,500,l)
);
},
{
closed = 1;
nodes = (
(50,570,l),
(110,570,l),
(110,630,l),
(50,630,l)
);
}
);
width = 160;
},
{
anchors = (
{
name = bottom;
pos = (120,0);
}
);
layerId = m002;
shapes = (
{
closed = 1;
nodes = (
(60,0,l),
(180,0,l),
(180,500,l),
(60,500,l)
);
},
{
closed = 1;
nodes = (
(60,560,l),
(180,560,l),
(180,680,l),
(60,680,l)
);
}
);
width = 240;
}
);
metricLeft = "=l";
metricRight = "=l";
unicode = 105;
}
{
glyphname = j;
kernLeft = j;
layers = (
{
layerId = m01;
shapes = (
{
closed = 1;
nodes = (
(70,-110,ls),
(70,-126,o),
(56,-140,o),
(40,-140,cs),
(10,-140,l),
(10,-200,l),
(40,-200,ls),
(84,-200,o),
(130,-154,o),
(130,-110,cs),
(130,500,l),
(70,500,l)
);
},
{
closed = 1;
nodes = (
(70,570,l),
(130,570,l),
(130,630,l),
(70,630,l)
);
}
);
width = 190;
},
{
layerId = m002;
shapes = (
{
closed = 1;
nodes = (
(60,-50,ls),
(60,-75,o),
(55,-80,o),
(30,-80,cs),
(20,-80,l),
(20,-200,l),
(30,-200,ls),
(113,-200,o),
(180,-133,o),
(180,-50,cs),
(180,500,l),
(60,500,l)
);
},
{
closed = 1;
nodes = (
(60,560,l),
(180,560,l),
(180,680,l),
(60,680,l)
);
}
);
width = 240;
}
);
unicode = 106;
}
{
glyphname = k;
kernLeft = l;
layers = (
{
anchors = (
{
name = bottom;
pos = (242,30);
},
{
name = top;
pos = (90,810);
}
);
background = {
shapes = (
{
attr = {
strokeHeight = 60;
strokeWidth = 60;
};
closed = 0;
nodes = (
(90,800,l),
(90,0,l)
);
},
{
attr = {
strokeHeight = 60;
strokeWidth = 60;
};
closed = 0;
nodes = (
(390,550,l),
(90,250,l),
(390,-50,l)
);
}
);
};
layerId = m01;
shapes = (
{
closed = 1;
nodes = (
(120,800,l),
(60,800,l),
(60,0,l),
(120,0,l)
);
},
{
closed = 1;
nodes = (
(442,500,l),
(358,500,l),
(130,272,l),
(172,230,l)
);
},
{
closed = 1;
nodes = (
(359,0,l),
(443,0,l),
(174,269,l),
(132,227,l)
);
},
{
closed = 1;
nodes = (
(70,220,l),
(190,220,l),
(190,280,l),
(70,280,l)
);
}
);
width = 473;
},
{
anchors = (
{
name = bottom;
pos = (272,10);
},
{
name = top;
pos = (106,800);
}
);
background = {
shapes = (
{
attr = {
strokeHeight = 60;
strokeWidth = 60;
};
closed = 0;
nodes = (
(110,800,l),
(110,0,l)
);
},
{
attr = {
strokeHeight = 120;
strokeWidth = 120;
};
closed = 0;
nodes = (
(550,550,l),
(250,250,l),
(550,-50,l)
);
}
);
};
layerId = m002;
shapes = (
{
closed = 1;
nodes = (
(170,800,l),
(50,800,l),
(50,0,l),
(170,0,l)
);
},
{
closed = 1;
nodes = (
(555,500,l),
(385,500,l),
(157,272,l),
(285,230,l)
);
},
{
closed = 1;
nodes = (
(386,0,l),
(556,0,l),
(287,269,l),
(159,227,l)
);
},
{
closed = 1;
nodes = (
(120,190,l),
(300,190,l),
(300,310,l),
(120,310,l)
);
}
);
width = 586;
}
);
metricLeft = "=n";
unicode = 107;
}
{
glyphname = l;
kernLeft = H;
kernRight = H;
layers = (
{
anchors = (
{
name = bottom;
pos = (80,0);
},
{
name = center;
pos = (80,400);
},
{
name = top;
pos = (80,810);
},
{
name = topright;
pos = (170,800);
}
);
layerId = m01;
shapes = (
{
closed = 1;
nodes = (
(110,800,l),
(50,800,l),
(50,0,l),
(110,0,l)
);
}
);
width = 160;
},
{
anchors = (
{
name = bottom;
pos = (120,0);
},
{
name = center;
pos = (120,400);
},
{
name = top;
pos = (120,810);
},
{
name = topright;
pos = (240,800);
}
);
layerId = m002;
shapes = (
{
closed = 1;
nodes = (
(180,800,l),
(60,800,l),
(60,0,l),
(180,0,l)
);
}
);
width = 240;
}
);
unicode = 108;
}
{
glyphname = m;
kernLeft = n;
kernRight = n;
layers = (
{
anchors = (
{
name = bottom;
pos = (450,0);
},
{
name = top;
pos = (450,490);
}
);
background = {
shapes = (
{
closed = 1;
nodes = (
(420,0,l),
(480,0,l),
(480,301,l),
(481,381,o),
(550,450,o),
(633,450,cs),
(720,450,o),
(779,387,o),
(779,300,cs),
(779,0,l),
(839,0,l),
(839,300,ls),
(839,415,o),
(748,510,o),
(633,510,cs),
(575,510,o),
(498,476,o),
(480,426,c),
(480,500,l),
(420,500,l),
(420,301,l)
);
}
);
};
layerId = m01;
shapes = (
{
closed = 1;
nodes = (
(60,0,l),
(120,0,l),
(120,301,ls),
(120,381,o),
(190,450,o),
(273,450,cs),
(360,450,o),
(419,387,o),
(419,300,cs),
(419,0,l),
(479,0,l),
(479,300,ls),
(479,387,o),
(548,450,o),
(635,450,cs),
(718,450,o),
(778,381,o),
(778,301,cs),
(778,0,l),
(838,0,l),
(839,300,l),
(839,415,o),
(756,510,o),
(635,510,cs),
(560,510,o),
(485,469,o),
(449,409,c),
(413,469,o),
(348,510,o),
(273,510,cs),
(215,510,o),
(138,476,o),
(120,426,c),
(120,500,l),
(60,500,l)
);
}
);
width = 899;
},
{
anchors = (
{
name = bottom;
pos = (446,0);
},
{
name = top;
pos = (446,500);
}
);
background = {
shapes = (
{
closed = 1;
nodes = (
(841,500,l),
(720,500,l),
(720,476,l),
(697,495,o),
(663,510,o),
(600,510,cs),
(490,510,o),
(386,415,o),
(386,300,cs),
(386,0,l),
(505,0,l),
(505,300,ls),
(505,351,o),
(548,391,o),
(613,391,cs),
(680,391,o),
(720,344,o),
(720,301,cs),
(720,0,l),
(841,0,l),
(841,301,l)
);
}
);
};
layerId = m002;
shapes = (
{
closed = 1;
nodes = (
(50,0,l),
(171,0,l),
(171,301,ls),
(171,344,o),
(211,391,o),
(278,391,cs),
(343,391,o),
(386,351,o),
(386,300,cs),
(386,0,l),
(507,0,l),
(507,301,ls),
(507,344,o),
(547,391,o),
(614,391,cs),
(679,391,o),
(722,351,o),
(722,300,cs),
(722,0,l),
(841,0,l),
(841,300,ls),
(841,415,o),
(737,510,o),
(627,510,cs),
(558,510,o),
(491,487,o),
(446,433,c),
(405,484,o),
(348,510,o),
(291,510,cs),
(228,510,o),
(194,495,o),
(171,476,c),
(171,500,l),
(50,500,l)
);
}
);
width = 891;
}
);
metricLeft = "=n";
metricRight = "=n";
unicode = 109;
}
{
glyphname = n;
kernLeft = n;
kernRight = n;
layers = (
{
anchors = (
{
name = bottom;
pos = (270,50);
},
{
name = top;
pos = (270,510);
}
);
background = {
shapes = (
{
attr = {
strokeHeight = 60;
strokeWidth = 60;
};
closed = 1;
nodes = (
(369,126,o),
(450,207,o),
(450,306,cs),
(450,405,o),
(369,486,o),
(270,486,cs),
(171,486,o),
(90,405,o),
(90,306,cs),
(90,207,o),
(171,126,o),
(270,126,cs)
);
}
);
};
layerId = m01;
shapes = (
{
closed = 1;
nodes = (
(60,0,l),
(120,0,l),
(120,301,ls),
(120,381,o),
(190,450,o),
(273,450,cs),
(360,450,o),
(419,387,o),
(419,300,cs),
(419,0,l),
(480,0,l),
(480,300,ls),
(480,415,o),
(388,510,o),
(273,510,cs),
(215,510,o),
(138,476,o),
(120,426,c),
(120,500,l),
(60,500,l),
(60,301,l)
);
}
);
width = 540;
},
{
anchors = (
{
name = bottom;
pos = (289,20);
},
{
name = top;
pos = (289,510);
}
);
background = {
shapes = (
{
attr = {
strokeHeight = 120;
strokeWidth = 120;
};
closed = 1;
nodes = (
(382,113,o),
(458,189,o),
(458,282,cs),
(458,375,o),
(382,451,o),
(289,451,cs),
(196,451,o),
(120,375,o),
(120,282,cs),
(120,189,o),
(196,113,o),
(289,113,cs)
);
}
);
};
layerId = m002;
shapes = (
{
closed = 1;
nodes = (
(60,0,l),
(181,0,l),
(181,301,ls),
(181,344,o),
(221,391,o),
(288,391,cs),
(353,391,o),
(396,351,o),
(396,300,cs),
(396,0,l),
(515,0,l),
(515,300,ls),
(515,415,o),
(411,510,o),
(301,510,cs),
(238,510,o),
(204,495,o),
(181,476,c),
(181,500,l),
(60,500,l),
(60,301,l)
);
}
);
width = 575;
}
);
unicode = 110;
}
{
glyphname = o;
kernLeft = o;
kernRight = o;
layers = (
{
anchors = (
{
name = bottom;
pos = (300,0);
},
{
name = top;
pos = (300,510);
},
{
name = topright;
pos = (467,400);
}
);
layerId = m01;
shapes = (
{
attr = {
strokeHeight = 60;
strokeWidth = 60;
};
closed = 1;
nodes = (
(424,25,o),
(525,126,o),
(525,250,cs),
(525,374,o),
(424,475,o),
(300,475,cs),
(176,475,o),
(75,374,o),
(75,250,cs),
(75,126,o),
(176,25,o),
(300,25,cs)
);
}
);
width = 600;
},
{
anchors = (
{
name = bottom;
pos = (299,0);
},
{
name = top;
pos = (299,520);
},
{
name = topright;
pos = (465,360);
}
);
layerId = m002;
shapes = (
{
attr = {
strokeHeight = 120;
strokeWidth = 120;
};
closed = 1;
nodes = (
(409,51,o),
(498,140,o),
(498,250,cs),
(498,360,o),
(409,449,o),
(299,449,cs),
(189,449,o),
(100,360,o),
(100,250,cs),
(100,140,o),
(189,51,o),
(299,51,cs)
);
}
);
width = 598;
}
);
unicode = 111;
}
{
glyphname = p;
kernRight = o;
layers = (
{
background = {
shapes = (
{
closed = 1;
nodes = (
(96,0,l),
(156,0,l),
(155,301,l),
(156,381,o),
(225,450,o),
(308,450,cs),
(395,450,o),
(454,387,o),
(454,300,cs),
(455,0,l),
(515,0,l),
(514,300,ls),
(514,415,o),
(423,510,o),
(308,510,cs),
(250,510,o),
(173,476,o),
(155,426,c),
(155,500,l),
(95,500,l),
(95,301,l)
);
}
);
};
layerId = m01;
shapes = (
{
closed = 1;
nodes = (
(194,55,o),
(120,138,o),
(120,250,cs),
(120,362,o),
(194,445,o),
(306,445,cs),
(418,445,o),
(500,362,o),
(500,250,cs),
(500,138,o),
(418,55,o),
(306,55,cs)
);
},
{
closed = 1;
nodes = (
(120,-200,l),
(120,86,l),
(157,31,o),
(237,-5,o),
(315,-5,cs),
(455,-5,o),
(570,110,o),
(570,250,cs),
(570,390,o),
(455,505,o),
(315,505,cs),
(237,505,o),
(157,469,o),
(120,414,c),
(120,500,l),
(60,500,l),
(60,-200,l)
);
}
);
width = 610;
},
{
background = {
shapes = (
{
closed = 1;
nodes = (
(110,0,l),
(170,0,l),
(169,301,l),
(170,381,o),
(239,450,o),
(322,450,cs),
(409,450,o),
(468,387,o),
(468,300,cs),
(469,0,l),
(529,0,l),
(528,300,ls),
(528,415,o),
(437,510,o),
(322,510,cs),
(264,510,o),
(187,476,o),
(169,426,c),
(169,500,l),
(109,500,l),
(109,301,l)
);
}
);
};
layerId = m002;
shapes = (
{
closed = 1;
nodes = (
(235,112,o),
(171,166,o),
(171,251,cs),
(171,336,o),
(235,390,o),
(320,390,cs),
(405,390,o),
(469,336,o),
(469,251,cs),
(469,166,o),
(405,112,o),
(320,112,cs)
);
},
{
closed = 1;
nodes = (
(180,-199,l),
(180,50,l),
(202,20,o),
(274,-8,o),
(330,-8,cs),
(473,-8,o),
(589,108,o),
(589,251,cs),
(589,394,o),
(473,510,o),
(330,510,cs),
(274,510,o),
(202,482,o),
(180,452,c),
(180,501,l),
(60,501,l),
(60,-199,l)
);
}
);
width = 629;
}
);
metricLeft = "=n";
metricRight = "=o";
unicode = 112;
}
{
glyphname = q;
kernLeft = o;
layers = (
{
layerId = m01;
shapes = (
{
closed = 1;
nodes = (
(207,55,o),
(125,138,o),
(125,250,cs),
(125,362,o),
(207,445,o),
(319,445,cs),
(431,445,o),
(505,362,o),
(505,250,cs),
(505,138,o),
(431,55,o),
(319,55,cs)
);
},
{
closed = 1;
nodes = (
(565,500,l),
(505,500,l),
(505,414,l),
(468,469,o),
(388,505,o),
(310,505,cs),
(170,505,o),
(55,390,o),
(55,250,cs),
(55,110,o),
(170,-5,o),
(310,-5,cs),
(388,-5,o),
(468,31,o),
(505,86,c),
(505,-200,l),
(565,-200,l)
);
}
);
width = 600;
},
{
layerId = m002;
shapes = (
{
closed = 1;
nodes = (
(225,111,o),
(161,165,o),
(161,250,cs),
(161,335,o),
(225,389,o),
(310,389,cs),
(395,389,o),
(459,335,o),
(459,250,cs),
(459,165,o),
(395,111,o),
(310,111,cs)
);
},
{
closed = 1;
nodes = (
(570,500,l),
(450,500,l),
(450,451,l),
(428,481,o),
(356,509,o),
(300,509,cs),
(157,509,o),
(41,393,o),
(41,250,cs),
(41,107,o),
(157,-9,o),
(300,-9,cs),
(356,-9,o),
(428,19,o),
(450,49,c),
(450,-200,l),
(570,-200,l)
);
}
);
width = 600;
}
);
unicode = 113;
}
{
glyphname = r;
kernLeft = i;
kernRight = r;
layers = (
{
anchors = (
{
name = bottom;
pos = (95,0);
},
{
name = top;
pos = (225,510);
}
);
layerId = m01;
shapes = (
{
closed = 1;
nodes = (
(61,0,l),
(121,0,l),
(120,301,ls),
(120,381,o),
(190,450,o),
(273,450,cs),
(317,450,o),
(354,434,o),
(380,407,c),
(420,447,l),
(383,486,o),
(331,510,o),
(273,510,cs),
(215,510,o),
(138,476,o),
(120,426,c),
(120,500,l),
(60,500,l),
(60,301,l)
);
}
);
width = 420;
},
{
anchors = (
{
name = bottom;
pos = (125,0);
},
{
name = top;
pos = (235,510);
}
);
layerId = m002;
shapes = (
{
closed = 1;
nodes = (
(60,0,l),
(181,0,l),
(181,301,ls),
(181,344,o),
(221,391,o),
(288,391,cs),
(324,391,o),
(353,379,o),
(372,359,c),
(457,441,l),
(416,483,o),
(359,510,o),
(301,510,cs),
(238,510,o),
(204,495,o),
(181,476,c),
(181,500,l),
(60,500,l),
(60,301,l)
);
}
);
width = 457;
}
);
metricLeft = "=n";
unicode = 114;
}
{
glyphname = s;
layers = (
{
anchors = (
{
name = bottom;
pos = (238,0);
},
{
name = top;
pos = (238,510);
}
);
background = {
shapes = (
{
attr = {
strokeHeight = 60;
strokeWidth = 60;
};
closed = 0;
nodes = (
(67,143,l),
(67,73,o),
(144,17,o),
(238,17,cs),
(337,17,o),
(411,58,o),
(411,133,cs),
(411,221,o),
(314,253,o),
(239,260,cs),
(160,267,o),
(65,279,o),
(65,367,cs),
(65,432,o),
(139,483,o),
(238,483,cs),
(332,483,o),
(408,427,o),
(409,357,c)
);
}
);
};
layerId = m01;
shapes = (
{
closed = 1;
nodes = (
(438,446,o),
(346,513,o),
(238,513,c),
(125,513,o),
(35,452,o),
(35,367,c),
(35,252,o),
(156,237,o),
(236,230,c),
(308,223,o),
(381,199,o),
(381,133,c),
(381,76,o),
(329,47,o),
(238,47,c),
(154,47,o),
(97,88,o),
(97,143,c),
(37,143,l),
(37,54,o),
(130,-13,o),
(238,-13,c),
(350,-13,o),
(441,37,o),
(441,133,c),
(441,245,o),
(322,282,o),
(242,290,c),
(163,297,o),
(95,305,o),
(95,367,c),
(95,416,o),
(148,453,o),
(238,453,c),
(322,453,o),
(378,412,o),
(379,357,c),
(439,357,l)
);
}
);
width = 476;
},
{
anchors = (
{
name = bottom;
pos = (246,0);
},
{
name = top;
pos = (246,510);
}
);
background = {
shapes = (
{
attr = {
strokeHeight = 120;
strokeWidth = 120;
};
closed = 0;
nodes = (
(90,159,l),
(90,103,o),
(170,48,o),
(246,48,cs),
(332,48,o),
(396,84,o),
(403,150,cs),
(411,222,o),
(315,242,o),
(243,250,cs),
(168,258,o),
(97,274,o),
(89,330,cs),
(80,396,o),
(160,452,o),
(246,452,cs),
(322,452,o),
(402,397,o),
(402,341,c)
);
}
);
};
layerId = m002;
shapes = (
{
closed = 1;
nodes = (
(462,433,o),
(354.835,512,o),
(246,512,c),
(118.487,512,o),
(15.74,423.167,o),
(29.577,321.704,c),
(42.468,231.46,o),
(131.939,201.506,o),
(236.505,190.353,c),
(305.547,182.681,o),
(345.341,174.391,o),
(343.351,156.477,c),
(339.6,121.116,o),
(316.283,108,o),
(246,108,c),
(188.635,108,o),
(150,134.562,o),
(150,159,c),
(30,159,l),
(30,67,o),
(137.165,-12,o),
(246,-12,c),
(368.117,-12,o),
(452.67,49.43,o),
(462.649,143.523,c),
(475.293,257.316,o),
(360.233,297.343,o),
(249.495,309.647,c),
(177.81,317.294,o),
(150.547,323.438,o),
(148.423,338.296,c),
(144.396,367.838,o),
(178.913,392,o),
(246,392,c),
(303.365,392,o),
(342,365.438,o),
(342,341,c),
(462,341,l)
);
}
);
width = 492;
}
);
unicode = 115;
}
{
glyphname = t;
kernLeft = t;
kernRight = t;
layers = (
{
anchors = (
{
name = bottom;
pos = (100,0);
},
{
name = center;
pos = (100,250);
},
{
name = top;
pos = (100,710);
},
{
name = topright;
pos = (190,700);
}
);
layerId = m01;
shapes = (
{
closed = 1;
nodes = (
(130,700,l),
(70,700,l),
(70,0,l),
(130,0,l)
);
},
{
closed = 1;
nodes = (
(20,500,l),
(20,440,l),
(180,440,l),
(180,500,l)
);
}
);
width = 200;
},
{
anchors = (
{
name = bottom;
pos = (160,0);
},
{
name = center;
pos = (160,250);
},
{
name = top;
pos = (160,710);
},
{
name = topright;
pos = (370,700);
}
);
layerId = m002;
shapes = (
{
closed = 1;
nodes = (
(220,700,l),
(100,700,l),
(100,0,l),
(220,0,l)
);
},
{
closed = 1;
nodes = (
(10,500,l),
(10,380,l),
(310,380,l),
(310,500,l)
);
}
);
width = 320;
}
);
unicode = 116;
}
{
glyphname = u;
kernRight = i;
layers = (
{
anchors = (
{
name = bottom;
pos = (290,0);
},
{
name = ogonek;
pos = (470,1);
},
{
name = top;
pos = (290,500);
},
{
name = topright;
pos = (499,470);
}
);
layerId = m01;
shapes = (
{
closed = 1;
nodes = (
(499,500,l),
(439,500,l),
(440,199,l),
(439,119,o),
(370,50,o),
(287,50,cs),
(200,50,o),
(141,113,o),
(141,200,cs),
(140,500,l),
(80,500,l),
(81,200,ls),
(81,85,o),
(172,-10,o),
(287,-10,cs),
(345,-10,o),
(422,24,o),
(440,74,c),
(440,0,l),
(500,0,l),
(500,199,l)
);
}
);
width = 580;
},
{
anchors = (
{
name = bottom;
pos = (294,0);
},
{
name = ogonek;
pos = (475,0);
},
{
name = top;
pos = (306,500);
},
{
name = topright;
pos = (535,440);
}
);
layerId = m002;
shapes = (
{
closed = 1;
nodes = (
(535,500,l),
(414,500,l),
(414,199,ls),
(414,156,o),
(374,109,o),
(307,109,cs),
(242,109,o),
(199,149,o),
(199,200,cs),
(199,500,l),
(80,500,l),
(80,200,ls),
(80,85,o),
(184,-10,o),
(294,-10,cs),
(357,-10,o),
(391,5,o),
(414,24,c),
(414,0,l),
(535,0,l),
(535,199,l)
);
}
);
width = 600;
}
);
unicode = 117;
}
{
glyphname = v;
kernLeft = v;
kernRight = v;
layers = (
{
background = {
shapes = (
{
attr = {
strokeHeight = 60;
strokeWidth = 60;
};
closed = 0;
nodes = (
(68,511,l),
(260,67,l),
(452,511,l)
);
}
);
};
guides = (
{
angle = 90;
pos = (60,0);
},
{
angle = 90;
pos = (460,0);
},
{
angle = 90;
pos = (60,0);
},
{
angle = 90;
pos = (460,0);
}
);
layerId = m01;
shapes = (
{
closed = 1;
nodes = (
(260,143,l),
(106,500,l),
(40,500,l),
(260,-16,l),
(480,500,l),
(414,500,l)
);
}
);
width = 520;
},
{
background = {
shapes = (
{
attr = {
strokeHeight = 120;
strokeWidth = 120;
};
closed = 0;
nodes = (
(81,511,l),
(273,120,l),
(465,511,l)
);
}
);
};
guides = (
{
angle = 90;
pos = (73,0);
},
{
angle = 90;
pos = (473,0);
},
{
angle = 90;
pos = (73,0);
},
{
angle = 90;
pos = (473,0);
}
);
layerId = m002;
shapes = (
{
closed = 1;
nodes = (
(273,256,l),
(153,500,l),
(20,500,l),
(273,-16,l),
(526,500,l),
(393,500,l)
);
}
);
width = 546;
}
);
unicode = 118;
}
{
glyphname = w;
kernRight = w;
layers = (
{
anchors = (
{
name = bottom;
pos = (320,40);
},
{
name = top;
pos = (320,510);
}
);
background = {
shapes = (
{
attr = {
strokeHeight = 60;
strokeWidth = 60;
};
closed = 0;
nodes = (
(49,507,l),
(170,76,l),
(320,438,l),
(470,76,l),
(591,507,l)
);
}
);
};
guides = (
{
angle = 90;
pos = (20,0);
},
{
angle = 90;
pos = (620,0);
}
);
layerId = m01;
shapes = (
{
closed = 1;
nodes = (
(20,500,l),
(165,-16,l),
(320,360,l),
(475,-16,l),
(620,500,l),
(558,500,l),
(465,169,l),
(320,516,l),
(175,169,l),
(82,500,l)
);
}
);
width = 640;
},
{
anchors = (
{
name = bottom;
pos = (373,40);
},
{
name = top;
pos = (373,520);
}
);
background = {
shapes = (
{
attr = {
strokeHeight = 120;
strokeWidth = 120;
};
closed = 0;
nodes = (
(91,507,l),
(217,129,l),
(373,396,l),
(529,129,l),
(655,507,l)
);
}
);
};
guides = (
{
angle = 90;
pos = (73,0);
},
{
angle = 90;
pos = (673,0);
}
);
layerId = m002;
shapes = (
{
closed = 1;
nodes = (
(30,500,l),
(202,-16,l),
(373,277,l),
(544,-16,l),
(716,500,l),
(589,500,l),
(514,274,l),
(373,516,l),
(232,274,l),
(157,500,l)
);
}
);
width = 746;
}
);
unicode = 119;
}
{
glyphname = x;
kernLeft = x;
kernRight = x;
layers = (
{
background = {
shapes = (
{
attr = {
strokeHeight = 60;
strokeWidth = 60;
};
closed = 0;
nodes = (
(405,516,l),
(55,-16,l)
);
},
{
attr = {
strokeHeight = 60;
strokeWidth = 60;
};
closed = 0;
nodes = (
(55,516,l),
(405,-16,l)
);
}
);
};
guides = (
{
angle = 90;
pos = (30,0);
},
{
angle = 90;
pos = (430,0);
}
);
layerId = m01;
shapes = (
{
closed = 1;
nodes = (
(430,500,l),
(359,500,l),
(30,0,l),
(101,0,l)
);
},
{
closed = 1;
nodes = (
(101,500,l),
(30,500,l),
(359,0,l),
(430,0,l)
);
}
);
width = 460;
},
{
background = {
shapes = (
{
attr = {
strokeHeight = 120;
strokeWidth = 120;
};
closed = 0;
nodes = (
(483,516,l),
(103,-16,l)
);
},
{
attr = {
strokeHeight = 120;
strokeWidth = 120;
};
closed = 0;
nodes = (
(103,516,l),
(483,-16,l)
);
}
);
};
guides = (
{
angle = 90;
pos = (78,0);
},
{
angle = 90;
pos = (543,0);
}
);
layerId = m002;
shapes = (
{
closed = 1;
nodes = (
(546,500,l),
(397,500,l),
(40,0,l),
(188,0,l)
);
},
{
closed = 1;
nodes = (
(188,500,l),
(40,500,l),
(398,0,l),
(546,0,l)
);
}
);
width = 586;
}
);
unicode = 120;
}
{
glyphname = y;
kernLeft = v;
kernRight = v;
layers = (
{
anchors = (
{
name = bottom;
pos = (300,0);
},
{
name = top;
pos = (240,500);
}
);
background = {
shapes = (
{
attr = {
strokeHeight = 60;
strokeWidth = 60;
};
closed = 0;
nodes = (
(68,511,l),
(240,67,l)
);
},
{
attr = {
strokeHeight = 60;
strokeWidth = 60;
};
closed = 0;
nodes = (
(412,511,l),
(132,-212,l)
);
}
);
};
layerId = m01;
shapes = (
{
closed = 1;
nodes = (
(105,500,l),
(40,500,l),
(212,56,l),
(268,78,l)
);
},
{
closed = 1;
nodes = (
(440,500,l),
(375,500,l),
(104,-200,l),
(169,-200,l)
);
}
);
width = 480;
},
{
anchors = (
{
name = bottom;
pos = (393,0);
},
{
name = top;
pos = (283,510);
}
);
background = {
shapes = (
{
attr = {
strokeHeight = 120;
strokeWidth = 120;
};
closed = 0;
nodes = (
(100,511,l),
(283,67,l)
);
},
{
attr = {
strokeHeight = 120;
strokeWidth = 120;
};
closed = 0;
nodes = (
(466,511,l),
(168,-212,l)
);
}
);
};
layerId = m002;
shapes = (
{
closed = 1;
nodes = (
(169,500,l),
(40,500,l),
(221,59,l),
(337,92,l)
);
},
{
closed = 1;
nodes = (
(526,500,l),
(397,500,l),
(109,-200,l),
(238,-200,l)
);
}
);
width = 566;
}
);
metricLeft = "=v";
metricRight = "=v";
unicode = 121;
}
{
glyphname = z;
layers = (
{
anchors = (
{
name = bottom;
pos = (255,0);
},
{
name = center;
pos = (255,250);
},
{
name = top;
pos = (255,500);
}
);
background = {
shapes = (
{
attr = {
strokeHeight = 60;
strokeWidth = 60;
};
closed = 0;
nodes = (
(53,470,l),
(420,470,l),
(90,30,l),
(453,30,l)
);
}
);
};
guides = (
{
angle = 90;
pos = (53,0);
},
{
angle = 90;
pos = (453,0);
}
);
layerId = m01;
shapes = (
{
closed = 1;
nodes = (
(150,60,l),
(480,500,l),
(53,500,l),
(53,440,l),
(360,440,l),
(30,0,l),
(453,0,l),
(453,60,l)
);
}
);
width = 510;
},
{
anchors = (
{
name = bottom;
pos = (241,0);
},
{
name = center;
pos = (241,250);
},
{
name = top;
pos = (241,510);
}
);
background = {
shapes = (
{
attr = {
strokeHeight = 120;
strokeWidth = 120;
};
closed = 0;
nodes = (
(39,440,l),
(356,440,l),
(126,60,l),
(439,60,l)
);
}
);
};
guides = (
{
angle = 90;
pos = (39,0);
},
{
angle = 90;
pos = (439,0);
}
);
layerId = m002;
shapes = (
{
closed = 1;
nodes = (
(232,120,l),
(462,500,l),
(39,500,l),
(39,380,l),
(250,380,l),
(20,0,l),
(439,0,l),
(439,120,l)
);
}
);
width = 482;
}
);
unicode = 122;
}
{
glyphname = braceleft;
layers = (
{
layerId = m01;
shapes = (
{
closed = 1;
nodes = (
(230,0,l),
(214.426,0,o),
(200,14.426,o),
(200,30,c),
(200,290,l),
(200,334.4,o),
(154.4,380,o),
(110,380,c),
(80,380,l),
(80,320,l),
(110,320,l),
(154.4,320,o),
(200,365.6,o),
(200,410,c),
(200,670,l),
(200,685.574,o),
(214.426,700,o),
(230,700,c),
(320,700,l),
(320,760,l),
(230,760,l),
(185.6,760,o),
(140,714.4,o),
(140,670,c),
(140,410,l),
(140,394.426,o),
(125.574,380,o),
(110,380,c),
(80,380,l),
(80,320,l),
(110,320,l),
(125.574,320,o),
(140,305.574,o),
(140,290,c),
(140,30,l),
(140,-14.4,o),
(185.6,-60,o),
(230,-60,c),
(320,-60,l),
(320,0,l)
);
}
);
width = 370;
},
{
layerId = m002;
shapes = (
{
closed = 1;
nodes = (
(290,0,l),
(272.853,0,o),
(260,12.853,o),
(260,30,c),
(260,260,l),
(260,335,o),
(185,410,o),
(110,410,c),
(80,410,l),
(80,290,l),
(110,290,l),
(185,290,o),
(260,365,o),
(260,440,c),
(260,670,l),
(260,687.147,o),
(272.853,700,o),
(290,700,c),
(350,700,l),
(350,820,l),
(290,820,l),
(215,820,o),
(140,745,o),
(140,670,c),
(140,440,l),
(140,422.853,o),
(127.147,410,o),
(110,410,c),
(80,410,l),
(80,290,l),
(110,290,l),
(127.147,290,o),
(140,277.147,o),
(140,260,c),
(140,30,l),
(140,-45,o),
(215,-120,o),
(290,-120,c),
(350,-120,l),
(350,0,l)
);
}
);
width = 400;
}
);
unicode = 123;
}
{
glyphname = bar;
layers = (
{
layerId = m01;
shapes = (
{
closed = 1;
nodes = (
(140,700,l),
(80,700,l),
(80,-100,l),
(140,-100,l)
);
}
);
width = 220;
},
{
layerId = m002;
shapes = (
{
closed = 1;
nodes = (
(200,700,l),
(80,700,l),
(80,-100,l),
(200,-100,l)
);
}
);
width = 280;
}
);
unicode = 124;
}
{
glyphname = braceright;
layers = (
{
layerId = m01;
shapes = (
{
closed = 1;
nodes = (
(140,-60,l),
(184.4,-60,o),
(230,-14.4,o),
(230,30,c),
(230,290,l),
(230,305.574,o),
(244.426,320,o),
(260,320,c),
(290,320,l),
(290,380,l),
(260,380,l),
(244.426,380,o),
(230,394.426,o),
(230,410,c),
(230,670,l),
(230,714.4,o),
(184.4,760,o),
(140,760,c),
(50,760,l),
(50,700,l),
(140,700,l),
(155.574,700,o),
(170,685.574,o),
(170,670,c),
(170,410,l),
(170,365.6,o),
(215.6,320,o),
(260,320,c),
(290,320,l),
(290,380,l),
(260,380,l),
(215.6,380,o),
(170,334.4,o),
(170,290,c),
(170,30,l),
(170,14.426,o),
(155.574,0,o),
(140,0,c),
(50,0,l),
(50,-60,l)
);
}
);
width = 370;
},
{
layerId = m002;
shapes = (
{
closed = 1;
nodes = (
(110,-120,l),
(185,-120,o),
(260,-45,o),
(260,30,c),
(260,260,l),
(260,277.147,o),
(272.853,290,o),
(290,290,c),
(320,290,l),
(320,410,l),
(290,410,l),
(272.853,410,o),
(260,422.853,o),
(260,440,c),
(260,670,l),
(260,745,o),
(185,820,o),
(110,820,c),
(50,820,l),
(50,700,l),
(110,700,l),
(127.147,700,o),
(140,687.147,o),
(140,670,c),
(140,440,l),
(140,365,o),
(215,290,o),
(290,290,c),
(320,290,l),
(320,410,l),
(290,410,l),
(215,410,o),
(140,335,o),
(140,260,c),
(140,30,l),
(140,12.853,o),
(127.147,0,o),
(110,0,c),
(50,0,l),
(50,-120,l)
);
}
);
width = 400;
}
);
unicode = 125;
}
{
glyphname = asciitilde;
layers = (
{
background = {
guides = (
{
pos = (300,250);
}
);
shapes = (
{
attr = {
strokeWidth = 60;
};
closed = 0;
nodes = (
(20,200,l),
(62,250,o),
(110,290,o),
(190,290,cs),
(270,290,o),
(330,210,o),
(410,210,cs),
(490,210,o),
(538,250,o),
(580,300,cs)
);
}
);
};
guides = (
{
angle = 90;
pos = (80,0);
},
{
angle = 90;
pos = (520,0);
}
);
layerId = m01;
shapes = (
{
closed = 1;
nodes = (
(520,281,l),
(491,255,o),
(458,240,o),
(410,240,c),
(345,240,o),
(285,320,o),
(190,320,c),
(146,320,o),
(110,309,o),
(80,292,c),
(80,220,l),
(109,245,o),
(142,260,o),
(190,260,c),
(255,260,o),
(315,180,o),
(410,180,c),
(454,180,o),
(490,191,o),
(520,208,c)
);
}
);
width = 600;
},
{
layerId = m002;
shapes = (
{
closed = 1;
nodes = (
(520,301,l),
(491,275,o),
(458,260,o),
(410,260,c),
(345,260,o),
(285,340,o),
(190,340,c),
(146,340,o),
(110,329,o),
(80,312,c),
(80,200,l),
(109,225,o),
(142,240,o),
(190,240,c),
(255,240,o),
(315,160,o),
(410,160,c),
(454,160,o),
(490,171,o),
(520,188,c)
);
}
);
width = 600;
}
);
unicode = 126;
}
{
glyphname = exclamdown;
layers = (
{
layerId = m01;
shapes = (
{
closed = 1;
nodes = (
(120,441,l),
(120,501,l),
(60,501,l),
(60,441,l)
);
},
{
closed = 1;
nodes = (
(120,-200,l),
(120,351,l),
(60,351,l),
(60,-200,l)
);
}
);
width = 180;
},
{
layerId = m002;
shapes = (
{
closed = 1;
nodes = (
(180,380,l),
(180,500,l),
(60,500,l),
(60,380,l)
);
},
{
closed = 1;
nodes = (
(180,-200,l),
(180,320,l),
(60,320,l),
(60,-200,l)
);
}
);
width = 240;
}
);
unicode = 161;
}
{
glyphname = cent;
layers = (
{
layerId = m01;
shapes = (
{
alignment = -1;
pos = (0,100);
ref = c;
},
{
closed = 1;
nodes = (
(310,700,l),
(250,700,l),
(250,0,l),
(310,0,l)
);
}
);
width = 534;
},
{
layerId = m002;
shapes = (
{
alignment = -1;
pos = (0,100);
ref = c;
},
{
closed = 1;
nodes = (
(335,700,l),
(235,700,l),
(235,0,l),
(335,0,l)
);
}
);
width = 505;
}
);
unicode = 162;
}
{
glyphname = sterling;
layers = (
{
layerId = m01;
shapes = (
{
closed = 1;
nodes = (
(131.426,0,o),
(185,53.574,o),
(185,120,c),
(185,490,l),
(185,577.574,o),
(247.426,640,o),
(335,640,c),
(495,640,l),
(495,700,l),
(335,700,l),
(218.574,700,o),
(125,606.426,o),
(125,490,c),
(125,120,l),
(125,82.426,o),
(102.574,60,o),
(65,60,c),
(65,0,l)
);
},
{
closed = 1;
nodes = (
(65,60,l),
(65,0,l),
(535,0,l),
(535,60,l)
);
},
{
closed = 1;
nodes = (
(65,390,l),
(65,330,l),
(415,330,l),
(415,390,l)
);
}
);
width = 600;
},
{
layerId = m002;
shapes = (
{
closed = 1;
nodes = (
(165.053,0,o),
(245,79.947,o),
(245,180,c),
(245,460,l),
(245,535.147,o),
(289.853,580,o),
(365,580,c),
(495,580,l),
(495,700,l),
(365,700,l),
(231.947,700,o),
(125,593.053,o),
(125,460,c),
(125,180,l),
(125,137.853,o),
(107.147,120,o),
(65,120,c),
(65,0,l)
);
},
{
closed = 1;
nodes = (
(65,120,l),
(65,0,l),
(535,0,l),
(535,120,l)
);
},
{
closed = 1;
nodes = (
(65,420,l),
(65,300,l),
(415,300,l),
(415,420,l)
);
}
);
width = 600;
}
);
unicode = 163;
}
{
glyphname = currency;
layers = (
{
guides = (
{
angle = -45;
pos = (352,350);
},
{
angle = 45;
pos = (352,350);
}
);
layerId = m01;
shapes = (
{
closed = 1;
nodes = (
(240.426,155,o),
(157,238.426,o),
(157,350,c),
(157,461.574,o),
(240.426,545,o),
(352,545,c),
(463.574,545,o),
(547,461.574,o),
(547,350,c),
(547,238.426,o),
(463.574,155,o),
(352,155,c)
);
},
{
closed = 1;
nodes = (
(492.426,95,o),
(607,209.574,o),
(607,350,c),
(607,490.426,o),
(492.426,605,o),
(352,605,c),
(211.574,605,o),
(97,490.426,o),
(97,350,c),
(97,209.574,o),
(211.574,95,o),
(352,95,c)
);
},
{
closed = 1;
nodes = (
(673.288,629.862,l),
(630.712,672.138,l),
(489.712,530.138,l),
(532.288,487.862,l)
);
},
{
closed = 1;
nodes = (
(214.288,169.862,l),
(171.712,212.138,l),
(30.712,70.138,l),
(73.288,27.862,l)
);
},
{
closed = 1;
nodes = (
(171.862,488.712,l),
(214.138,531.288,l),
(72.138,672.288,l),
(29.862,629.712,l)
);
},
{
closed = 1;
nodes = (
(631.862,28.712,l),
(674.138,71.288,l),
(532.138,212.288,l),
(489.862,169.712,l)
);
}
);
width = 704;
},
{
guides = (
{
angle = -45;
pos = (373,350);
},
{
angle = 45;
pos = (373,350);
}
);
layerId = m002;
shapes = (
{
closed = 1;
nodes = (
(287.853,211,o),
(234,264.853,o),
(234,350,c),
(234,435.147,o),
(287.853,489,o),
(373,489,c),
(458.147,489,o),
(512,435.147,o),
(512,350,c),
(512,264.853,o),
(458.147,211,o),
(373,211,c)
);
},
{
closed = 1;
nodes = (
(516.053,91,o),
(632,206.947,o),
(632,350,c),
(632,493.053,o),
(516.053,609,o),
(373,609,c),
(229.947,609,o),
(114,493.053,o),
(114,350,c),
(114,206.947,o),
(229.947,91,o),
(373,91,c)
);
},
{
closed = 1;
nodes = (
(715.576,608.724,l),
(630.424,693.276,l),
(489.424,551.276,l),
(574.576,466.724,l)
);
},
{
closed = 1;
nodes = (
(256.576,148.724,l),
(171.424,233.276,l),
(30.424,91.276,l),
(115.576,6.724,l)
);
},
{
closed = 1;
nodes = (
(171.724,467.424,l),
(256.276,552.576,l),
(114.276,693.576,l),
(29.724,608.424,l)
);
},
{
closed = 1;
nodes = (
(631.724,7.424,l),
(716.276,92.576,l),
(574.276,233.576,l),
(489.724,148.424,l)
);
}
);
width = 746;
}
);
unicode = 164;
}
{
glyphname = yen;
layers = (
{
layerId = m01;
shapes = (
{
ref = Y;
},
{
closed = 1;
nodes = (
(150,180,l),
(150,120,l),
(490,120,l),
(490,180,l)
);
},
{
closed = 1;
nodes = (
(150,300,l),
(150,240,l),
(490,240,l),
(490,300,l)
);
}
);
width = 640;
},
{
layerId = m002;
shapes = (
{
ref = Y;
},
{
closed = 1;
nodes = (
(136,180,l),
(136,60,l),
(576,60,l),
(576,180,l)
);
},
{
closed = 1;
nodes = (
(136,360,l),
(136,240,l),
(576,240,l),
(576,360,l)
);
}
);
width = 712;
}
);
unicode = 165;
}
{
glyphname = section;
layers = (
{
layerId = m01;
shapes = (
{
closed = 1;
nodes = (
(490,645,o),
(402,707,o),
(300,707,cs),
(204,707,o),
(107,661,o),
(107,578,cs),
(107,522,o),
(135,482,o),
(177,458,c),
(135,435,o),
(107,398,o),
(107,349,cs),
(107,244,o),
(222,209,o),
(301,209,cs),
(377,209,o),
(433,183,o),
(433,119,cs),
(433,69,o),
(379,50,o),
(300,50,cs),
(222,50,o),
(169,87,o),
(169,138,c),
(109,138,l),
(109,52,o),
(198,-10,o),
(300,-10,cs),
(393,-10,o),
(493,25,o),
(493,119,cs),
(493,174,o),
(466,213,o),
(426,237,c),
(466,259,o),
(493,295,o),
(493,350,cs),
(493,441,o),
(401,488,o),
(301,488,cs),
(223,488,o),
(167,514,o),
(167,578,cs),
(167,620,o),
(223,647,o),
(300,647,cs),
(378,647,o),
(430,609,o),
(431,559,c),
(491,559,l)
);
},
{
closed = 1;
nodes = (
(167,400,o),
(223,428,o),
(300,428,cs),
(378,428,o),
(432,390,o),
(433,349,cs),
(433,289,o),
(379,269,o),
(300,269,cs),
(220,270,o),
(167,307,o),
(167,349,cs)
);
}
);
width = 600;
},
{
layerId = m002;
shapes = (
{
closed = 1;
nodes = (
(515,633,o),
(408,712,o),
(299,712,cs),
(185,712,o),
(67,628,o),
(83,530,cs),
(88,497,o),
(106,469,o),
(131,446,c),
(101,418,o),
(82,384,o),
(82,349,cs),
(82,251,o),
(182,188,o),
(298,188,cs),
(363,188,o),
(400,173,o),
(396,146,cs),
(393,123,o),
(361,107,o),
(299,107,cs),
(242,107,o),
(203,134,o),
(203,158,c),
(83,158,l),
(83,66,o),
(190,-13,o),
(299,-13,cs),
(409,-13,o),
(505,45,o),
(516,132,cs),
(522,179,o),
(504,219,o),
(472,248,c),
(500,275,o),
(517,310,o),
(516,350,cs),
(514,438,o),
(399,511,o),
(298,511,cs),
(236,511,o),
(205,525,o),
(201,550,cs),
(199,566,o),
(240,592,o),
(299,592,cs),
(356,592,o),
(395,565,o),
(395,541,c),
(515,541,l)
);
},
{
closed = 1;
nodes = (
(202,374,o),
(242,391,o),
(298,391,cs),
(360,391,o),
(396,376,o),
(396,348,cs),
(396,323,o),
(362,308,o),
(298,308,cs),
(235,308,o),
(202,322,o),
(202,349,cs)
);
}
);
width = 600;
}
);
unicode = 167;
}
{
glyphname = copyright;
layers = (
{
layerId = m01;
shapes = (
{
closed = 1;
nodes = (
(233.426,55,o),
(105,183.426,o),
(105,350,c),
(105,516.574,o),
(233.426,645,o),
(400,645,c),
(566.574,645,o),
(695,516.574,o),
(695,350,c),
(695,183.426,o),
(566.574,55,o),
(400,55,c)
);
},
{
closed = 1;
nodes = (
(595.426,-5,o),
(755,154.574,o),
(755,350,c),
(755,545.426,o),
(595.426,705,o),
(400,705,c),
(204.574,705,o),
(45,545.426,o),
(45,350,c),
(45,154.574,o),
(204.574,-5,o),
(400,-5,c)
);
},
{
closed = 1;
nodes = (
(487.629,207.562,o),
(447.411,189,o),
(399,189,c),
(306.223,189,o),
(237,256.631,o),
(237,350,c),
(237,443.369,o),
(306.223,511,o),
(399,511,c),
(447.411,511,o),
(487.629,492.438,o),
(518.423,457.245,c),
(563.577,496.755,l),
(523.186,542.917,o),
(462.389,571,o),
(399,571,c),
(277.777,571,o),
(177,472.631,o),
(177,350,c),
(177,227.369,o),
(277.777,129,o),
(399,129,c),
(462.389,129,o),
(523.186,157.083,o),
(563.577,203.245,c),
(518.423,242.755,l)
);
}
);
width = 800;
},
{
layerId = m002;
shapes = (
{
closed = 1;
nodes = (
(259.853,110,o),
(160,209.853,o),
(160,350,c),
(160,490.147,o),
(259.853,590,o),
(400,590,c),
(540.147,590,o),
(640,490.147,o),
(640,350,c),
(640,209.853,o),
(540.147,110,o),
(400,110,c)
);
},
{
closed = 1;
nodes = (
(598.053,-10,o),
(760,151.947,o),
(760,350,c),
(760,548.053,o),
(598.053,710,o),
(400,710,c),
(201.947,710,o),
(40,548.053,o),
(40,350,c),
(40,151.947,o),
(201.947,-10,o),
(400,-10,c)
);
},
{
closed = 1;
nodes = (
(435.862,281.606,o),
(421.823,275,o),
(396,275,c),
(347.711,275,o),
(321,301.711,o),
(321,350,c),
(321,398.289,o),
(347.711,425,o),
(396,425,c),
(421.823,425,o),
(435.862,418.394,o),
(450.831,400.703,c),
(527.169,465.297,l),
(495.942,502.202,o),
(447.577,525,o),
(396,525,c),
(299.489,525,o),
(221,446.511,o),
(221,350,c),
(221,253.489,o),
(299.489,175,o),
(396,175,c),
(447.577,175,o),
(495.942,197.798,o),
(527.169,234.703,c),
(450.831,299.297,l)
);
}
);
width = 800;
}
);
unicode = 169;
}
{
glyphname = degree;
layers = (
{
layerId = m01;
shapes = (
{
closed = 1;
nodes = (
(137.426,530,o),
(110,557.426,o),
(110,600,c),
(110,642.574,o),
(137.426,670,o),
(180,670,c),
(222.574,670,o),
(250,642.574,o),
(250,600,c),
(250,557.426,o),
(222.574,530,o),
(180,530,c)
);
},
{
closed = 1;
nodes = (
(251.426,470,o),
(310,528.574,o),
(310,600,c),
(310,671.426,o),
(251.426,730,o),
(180,730,c),
(108.574,730,o),
(50,671.426,o),
(50,600,c),
(50,528.574,o),
(108.574,470,o),
(180,470,c)
);
}
);
width = 360;
},
{
layerId = m002;
shapes = (
{
closed = 1;
nodes = (
(174,550,o),
(150,574,o),
(150,600,c),
(150,626,o),
(174,650,o),
(200,650,c),
(226,650,o),
(250,626,o),
(250,600,c),
(250,574,o),
(226,550,o),
(200,550,c)
);
},
{
closed = 1;
nodes = (
(282.511,450,o),
(350,517.489,o),
(350,600,c),
(350,682.511,o),
(282.511,750,o),
(200,750,c),
(117.489,750,o),
(50,682.511,o),
(50,600,c),
(50,517.489,o),
(117.489,450,o),
(200,450,c)
);
}
);
width = 400;
}
);
unicode = 176;
}
{
glyphname = plusminus;
layers = (
{
layerId = m01;
shapes = (
{
closed = 1;
nodes = (
(290,470,l),
(230,470,l),
(230,150,l),
(290,150,l)
);
},
{
closed = 1;
nodes = (
(80,340,l),
(80,280,l),
(440,280,l),
(440,340,l)
);
},
{
closed = 1;
nodes = (
(80,120,l),
(80,60,l),
(440,60,l),
(440,120,l)
);
}
);
width = 520;
},
{
layerId = m002;
shapes = (
{
closed = 1;
nodes = (
(320,480,l),
(200,480,l),
(200,160,l),
(320,160,l)
);
},
{
closed = 1;
nodes = (
(60,380,l),
(60,260,l),
(460,260,l),
(460,380,l)
);
},
{
closed = 1;
nodes = (
(60,140,l),
(60,20,l),
(460,20,l),
(460,140,l)
);
}
);
width = 520;
}
);
unicode = 177;
}
{
glyphname = micro;
layers = (
{
layerId = m01;
shapes = (
{
closed = 1;
nodes = (
(80,-200,l),
(140,-200,l),
(140,53,l),
(177,14,o),
(226,-10,o),
(290,-10,cs),
(347,-10,o),
(411,18,o),
(448,56,c),
(463,25,o),
(497,0,o),
(530,0,cs),
(548,0,l),
(548,60,l),
(530,60,ls),
(514,60,o),
(500,74,o),
(500,90,cs),
(500,500,l),
(439,500,l),
(439,200,ls),
(439,118,o),
(372,51,o),
(290,50,cs),
(208,51,o),
(141,118,o),
(141,200,cs),
(141,500,l),
(80,500,l)
);
}
);
width = 580;
},
{
layerId = m002;
shapes = (
{
closed = 1;
nodes = (
(80,-200,l),
(201,-200,l),
(201,13,l),
(230,-2,o),
(270,-10,o),
(304,-10,cs),
(371,-10,o),
(423,13,o),
(454,55,c),
(483,23,o),
(524,0,o),
(565,0,cs),
(585,0,l),
(585,120,l),
(565,120,ls),
(548,120,o),
(535,133,o),
(535,150,cs),
(535,500,l),
(414,500,l),
(414,199,ls),
(414,156,o),
(374,109,o),
(308,109,cs),
(241,109,o),
(201,156,o),
(201,199,cs),
(201,500,l),
(80,500,l)
);
}
);
width = 600;
}
);
unicode = 181;
}
{
glyphname = periodcentered;
layers = (
{
layerId = m01;
shapes = (
{
closed = 1;
nodes = (
(60,290,l),
(120,290,l),
(120,350,l),
(60,350,l)
);
}
);
width = 180;
},
{
layerId = m002;
shapes = (
{
closed = 1;
nodes = (
(40,265,l),
(150,265,l),
(150,375,l),
(40,375,l)
);
}
);
width = 190;
}
);
unicode = 183;
}
{
glyphname = AE;
kernLeft = A;
kernRight = H;
layers = (
{
anchors = (
{
name = bottom;
pos = (410,0);
},
{
name = top;
pos = (530,700);
}
);
background = {
shapes = (
{
attr = {
strokeHeight = 60;
strokeWidth = 60;
};
closed = 0;
nodes = (
(436,350,l),
(790,350,l)
);
},
{
attr = {
strokeHeight = 60;
strokeWidth = 60;
};
closed = 0;
nodes = (
(470,30,l),
(790,30,l)
);
},
{
attr = {
strokeHeight = 60;
strokeWidth = 60;
};
closed = 0;
nodes = (
(470,670,l),
(790,670,l)
);
},
{
attr = {
strokeHeight = 60;
strokeWidth = 60;
};
closed = 0;
nodes = (
(63,-1,l),
(436,686,l)
);
},
{
attr = {
strokeHeight = 60;
strokeWidth = 60;
};
closed = 0;
nodes = (
(440,700,l),
(440,0,l)
);
},
{
attr = {
strokeHeight = 60;
strokeWidth = 60;
};
closed = 0;
nodes = (
(198,243,l),
(430,243,l)
);
}
);
};
layerId = m01;
shapes = (
{
closed = 1;
nodes = (
(470,380,l),
(470,640,l),
(790,640,l),
(790,700,l),
(410,700,l),
(30,0,l),
(97,0,l),
(213,213,l),
(410,213,l),
(410,0,l),
(790,0,l),
(790,60,l),
(470,60,l),
(470,320,l),
(790,320,l),
(790,380,l)
);
},
{
closed = 1;
nodes = (
(410,574,l),
(410,273,l),
(246,273,l)
);
}
);
width = 820;
},
{
anchors = (
{
name = bottom;
pos = (428,0);
},
{
name = top;
pos = (508,700);
}
);
background = {
shapes = (
{
attr = {
strokeHeight = 120;
strokeWidth = 120;
};
closed = 0;
nodes = (
(454,350,l),
(808,350,l)
);
},
{
attr = {
strokeHeight = 120;
strokeWidth = 120;
};
closed = 0;
nodes = (
(488,60,l),
(808,60,l)
);
},
{
attr = {
strokeHeight = 120;
strokeWidth = 120;
};
closed = 0;
nodes = (
(488,640,l),
(808,640,l)
);
},
{
attr = {
strokeHeight = 120;
strokeWidth = 120;
};
closed = 0;
nodes = (
(81,-1,l),
(450,671,l)
);
},
{
attr = {
strokeHeight = 120;
strokeWidth = 120;
};
closed = 0;
nodes = (
(458,700,l),
(458,0,l)
);
},
{
attr = {
strokeHeight = 120;
strokeWidth = 120;
};
closed = 0;
nodes = (
(216,193,l),
(448,193,l)
);
}
);
};
layerId = m002;
shapes = (
{
closed = 1;
nodes = (
(517,410,l),
(517,580,l),
(808,580,l),
(808,700,l),
(397,700,l),
(10,0,l),
(150,0,l),
(223,133,l),
(397,133,l),
(397,0,l),
(808,0,l),
(808,120,l),
(517,120,l),
(517,290,l),
(808,290,l),
(808,410,l)
);
},
{
closed = 1;
nodes = (
(397,451,l),
(397,253,l),
(289,253,l)
);
}
);
width = 838;
}
);
unicode = 198;
}
{
glyphname = Eth;
kernRight = D;
layers = (
{
layerId = m01;
shapes = (
{
closed = 1;
nodes = (
(290,0,ls),
(485,0,o),
(640,155,o),
(640,350,cs),
(640,545,o),
(485,700,o),
(290,700,cs),
(100,700,l),
(100,0,l)
);
},
{
closed = 1;
nodes = (
(160,640,l),
(290,640,ls),
(457,640,o),
(580,517,o),
(580,350,cs),
(580,183,o),
(457,60,o),
(290,60,cs),
(160,60,l)
);
},
{
closed = 1;
nodes = (
(50,320,l),
(350,320,l),
(350,380,l),
(50,380,l)
);
}
);
width = 680;
},
{
layerId = m002;
shapes = (
{
closed = 1;
nodes = (
(300,0,ls),
(510,0,o),
(680,136,o),
(680,350,cs),
(680,564,o),
(510,700,o),
(300,700,cs),
(80,700,l),
(80,0,l)
);
},
{
closed = 1;
nodes = (
(200,580,l),
(300,580,ls),
(458,580,o),
(560,500,o),
(560,350,cs),
(560,200,o),
(458,120,o),
(300,120,cs),
(200,120,l)
);
},
{
closed = 1;
nodes = (
(20,290,l),
(320,290,l),
(320,410,l),
(20,410,l)
);
}
);
width = 710;
}
);
unicode = 208;
}
{
glyphname = multiply;
layers = (
{
layerId = m01;
shapes = (
{
closed = 1;
nodes = (
(377.171,355.745,l),
(334.829,398.255,l),
(79.829,144.255,l),
(122.171,101.745,l)
);
},
{
closed = 1;
nodes = (
(122.171,398.255,l),
(79.829,355.745,l),
(334.829,101.745,l),
(377.171,144.255,l)
);
}
);
width = 457;
},
{
layerId = m002;
shapes = (
{
closed = 1;
nodes = (
(426.426,348.574,l),
(341.574,433.426,l),
(59.574,151.426,l),
(144.426,66.574,l)
);
},
{
closed = 1;
nodes = (
(144.426,433.426,l),
(59.574,348.574,l),
(341.574,66.574,l),
(426.426,151.426,l)
);
}
);
width = 486;
}
);
unicode = 215;
}
{
glyphname = Oslash;
kernLeft = O;
kernRight = O;
layers = (
{
layerId = m01;
shapes = (
{
ref = O;
},
{
closed = 1;
nodes = (
(125,0,l),
(205,0,l),
(675,700,l),
(595,700,l)
);
}
);
width = 800;
},
{
layerId = m002;
shapes = (
{
ref = O;
},
{
closed = 1;
nodes = (
(85,0,l),
(245,0,l),
(715,700,l),
(555,700,l)
);
}
);
width = 800;
}
);
unicode = 216;
}
{
glyphname = Thorn;
layers = (
{
layerId = m01;
shapes = (
{
closed = 1;
nodes = (
(330,140,l),
(445.426,140,o),
(540,234.574,o),
(540,350,c),
(540,465.426,o),
(445.426,560,o),
(330,560,c),
(140,560,l),
(140,500,l),
(330,500,l),
(416.574,500,o),
(480,436.574,o),
(480,350,c),
(480,263.426,o),
(416.574,200,o),
(330,200,c),
(140,200,l),
(140,140,l)
);
},
{
closed = 1;
nodes = (
(140,700,l),
(80,700,l),
(80,0,l),
(140,0,l)
);
}
);
width = 600;
},
{
layerId = m002;
shapes = (
{
closed = 1;
nodes = (
(330,110,l),
(462.053,110,o),
(570,217.947,o),
(570,350,c),
(570,482.053,o),
(462.053,590,o),
(330,590,c),
(140,590,l),
(140,470,l),
(330,470,l),
(404.147,470,o),
(450,424.147,o),
(450,350,c),
(450,275.853,o),
(404.147,230,o),
(330,230,c),
(140,230,l),
(140,110,l)
);
},
{
closed = 1;
nodes = (
(170,700,l),
(50,700,l),
(50,0,l),
(170,0,l)
);
}
);
width = 600;
}
);
unicode = 222;
}
{
glyphname = germandbls;
layers = (
{
background = {
shapes = (
{
attr = {
strokeHeight = 60;
strokeWidth = 60;
};
closed = 0;
nodes = (
(110,0,l),
(110,527,ls),
(110,610,o),
(177,677,o),
(260,677,cs),
(343,677,o),
(410,610,o),
(410,527,cs),
(410,444,o),
(343,376,o),
(260,377,c),
(359,378,o),
(440,296,o),
(440,197,cs),
(440,98,o),
(359,17,o),
(260,17,cs),
(215,17,l)
);
},
{
attr = {
strokeHeight = 60;
strokeWidth = 60;
};
closed = 0;
nodes = (
(260,517,l)
);
}
);
};
layerId = m01;
shapes = (
{
closed = 1;
nodes = (
(260,-13,l),
(375,-13,o),
(470,82,o),
(470,197,c),
(470,275,o),
(427,343,o),
(364,380,c),
(410,412,o),
(440,466,o),
(440,527,c),
(440,626,o),
(359,707,o),
(260,707,c),
(161,707,o),
(80,626,o),
(80,527,c),
(80,0,l),
(140,0,l),
(140,527,l),
(140,598,o),
(189,647,o),
(260,647,c),
(331,647,o),
(380,598,o),
(380,527,c),
(380,456,o),
(331,406,o),
(260,407,c),
(260,347,l),
(347,348,o),
(410,284,o),
(410,197,c),
(410,110,o),
(347,47,o),
(260,47,c),
(215,47,l),
(215,-13,l)
);
}
);
width = 530;
},
{
background = {
shapes = (
{
attr = {
strokeHeight = 120;
strokeWidth = 120;
};
closed = 0;
nodes = (
(140,0,l),
(140,527,ls),
(140,610,o),
(217,677,o),
(300,677,cs),
(383,677,o),
(460,610,o),
(460,527,cs),
(460,444,o),
(383,376,o),
(300,377,c),
(399,378,o),
(490,311,o),
(490,212,cs),
(490,113,o),
(409,47,o),
(310,47,cs),
(255,47,l)
);
},
{
attr = {
strokeHeight = 120;
strokeWidth = 120;
};
closed = 0;
nodes = (
(290,517,l)
);
}
);
};
layerId = m002;
shapes = (
{
closed = 1;
nodes = (
(310,-13,l),
(439.149,-13,o),
(550,77.293,o),
(550,212,c),
(550,285.526,o),
(514.211,345.798,o),
(460.958,385.393,c),
(497.025,422.528,o),
(520,472.049,o),
(520,527,c),
(520,645.526,o),
(413.649,737,o),
(300,737,c),
(186.351,737,o),
(80,645.526,o),
(80,527,c),
(80,0,l),
(200,0,l),
(200,527,l),
(200,582.674,o),
(239.449,617,o),
(300,617,c),
(360.551,617,o),
(400,582.674,o),
(400,527,c),
(400,471.061,o),
(360.609,436.274,o),
(300.723,436.996,c),
(300.606,317.003,l),
(379.565,317.801,o),
(430,280.667,o),
(430,212,c),
(430,141.507,o),
(387.651,107,o),
(310,107,c),
(255,107,l),
(255,-13,l)
);
}
);
width = 600;
}
);
unicode = 223;
}
{
glyphname = ae;
layers = (
{
anchors = (
{
name = bottom;
pos = (501,20);
},
{
name = top;
pos = (501,460);
}
);
layerId = m01;
shapes = (
{
alignment = -1;
pos = (426,0);
ref = e;
},
{
closed = 1;
nodes = (
(205,280,l),
(120.917,280,o),
(45,229.056,o),
(45,142,c),
(45,54.798,o),
(121.179,0,o),
(205,0,c),
(280,0,l),
(419.983,0,o),
(535,109.125,o),
(535,250,c),
(535,390.426,o),
(420.426,505,o),
(280,505,c),
(167.49,505,o),
(90.337,444.146,o),
(40.335,361.534,c),
(91.665,330.466,l),
(134.803,401.737,o),
(190.31,445,o),
(280,445,c),
(391.574,445,o),
(475,361.574,o),
(475,250,c),
(475,138.875,o),
(392.017,60,o),
(280,60,c),
(205,60,l),
(144.821,60,o),
(105,89.202,o),
(105,142,c),
(105,193.944,o),
(144.083,220,o),
(205,220,c),
(492,220,l),
(492,280,l)
);
}
);
width = 1021;
},
{
anchors = (
{
name = bottom;
pos = (501,20);
},
{
name = top;
pos = (501,460);
}
);
layerId = m002;
shapes = (
{
alignment = -1;
pos = (426,0);
ref = e;
},
{
closed = 1;
nodes = (
(226,310,l),
(127.034,310,o),
(43,246,o),
(43,156,c),
(43,65.6,o),
(127.858,0,o),
(226,0,c),
(281,0,l),
(419.822,0,o),
(536,107.698,o),
(536,250,c),
(536,391.254,o),
(420.852,505,o),
(281,505,c),
(192.4,505,o),
(123.799,466.128,o),
(76.158,409.711,c),
(167.842,332.289,l),
(198.781,368.928,o),
(227.6,385,o),
(281,385,c),
(363.348,385,o),
(416,332.946,o),
(416,250,c),
(416,168.102,o),
(364.378,120,o),
(281,120,c),
(226,120,l),
(181.542,120,o),
(163,131.066,o),
(163,156,c),
(163,179.971,o),
(180.766,190,o),
(226,190,c),
(465,190,l),
(465,310,l)
);
}
);
width = 1021;
}
);
unicode = 230;
}
{
glyphname = eth;
layers = (
{
layerId = m01;
shapes = (
{
closed = 1;
nodes = (
(188.426,55,o),
(105,138.426,o),
(105,250,c),
(105,361.574,o),
(188.426,445,o),
(300,445,c),
(411.574,445,o),
(495,361.574,o),
(495,250,c),
(495,138.426,o),
(411.574,55,o),
(300,55,c)
);
},
{
closed = 1;
nodes = (
(440.426,-5,o),
(555,109.574,o),
(555,250,c),
(555,390.426,o),
(440.426,505,o),
(300,505,c),
(159.574,505,o),
(45,390.426,o),
(45,250,c),
(45,109.574,o),
(159.574,-5,o),
(300,-5,c)
);
},
{
closed = 1;
nodes = (
(555,553.059,o),
(436.235,800,o),
(98,800,c),
(98,740,l),
(396.165,740,o),
(495,535.141,o),
(495,250,c),
(555,250,l)
);
},
{
closed = 1;
nodes = (
(277.787,593.213,l),
(320.213,550.787,l),
(500.213,730.787,l),
(457.787,773.213,l)
);
}
);
width = 600;
},
{
layerId = m002;
shapes = (
{
closed = 1;
nodes = (
(214.853,111,o),
(161,164.853,o),
(161,250,c),
(161,335.147,o),
(214.853,389,o),
(300,389,c),
(385.147,389,o),
(439,335.147,o),
(439,250,c),
(439,164.853,o),
(385.147,111,o),
(300,111,c)
);
},
{
closed = 1;
nodes = (
(443.053,-9,o),
(559,106.947,o),
(559,250,c),
(559,393.053,o),
(443.053,509,o),
(300,509,c),
(156.947,509,o),
(41,393.053,o),
(41,250,c),
(41,106.947,o),
(156.947,-9,o),
(300,-9,c)
);
},
{
closed = 1;
nodes = (
(559,563.401,o),
(459.322,800,o),
(98,800,c),
(98,680,l),
(375.278,680,o),
(439,529.799,o),
(439,250,c),
(559,250,l)
);
},
{
closed = 1;
nodes = (
(226.574,614.426,l),
(311.426,529.574,l),
(491.426,709.574,l),
(406.574,794.426,l)
);
}
);
width = 600;
}
);
unicode = 240;
}
{
glyphname = oslash;
layers = (
{
layerId = m01;
shapes = (
{
ref = o;
},
{
closed = 1;
nodes = (
(125,0,l),
(205,0,l),
(475,500,l),
(395,500,l)
);
}
);
width = 600;
},
{
layerId = m002;
shapes = (
{
ref = o;
},
{
closed = 1;
nodes = (
(65,0,l),
(205,0,l),
(535,500,l),
(395,500,l)
);
}
);
width = 600;
}
);
unicode = 248;
}
{
glyphname = thorn;
kernLeft = H;
kernRight = o;
layers = (
{
anchors = (
{
name = bottom;
pos = (315,0);
},
{
name = ogonek;
pos = (567,10);
},
{
name = top;
pos = (295,501);
}
);
layerId = m01;
shapes = (
{
closed = 1;
nodes = (
(214,55,o),
(140,138,o),
(140,250,cs),
(140,362,o),
(214,445,o),
(326,445,cs),
(438,445,o),
(520,362,o),
(520,250,cs),
(520,138,o),
(438,55,o),
(326,55,cs)
);
},
{
closed = 1;
nodes = (
(80,-200,l),
(140,-200,l),
(140,86,l),
(177,31,o),
(257,-5,o),
(335,-5,cs),
(475,-5,o),
(590,110,o),
(590,250,cs),
(590,390,o),
(475,505,o),
(335,505,cs),
(257,505,o),
(177,469,o),
(140,414,c),
(140,800,l),
(80,800,l)
);
}
);
width = 630;
},
{
anchors = (
{
name = bottom;
pos = (354,0);
},
{
name = ogonek;
pos = (606,10);
},
{
name = top;
pos = (334,501);
}
);
layerId = m002;
shapes = (
{
closed = 1;
nodes = (
(255,112,o),
(191,166,o),
(191,251,cs),
(191,336,o),
(255,390,o),
(340,390,cs),
(425,390,o),
(489,336,o),
(489,251,cs),
(489,166,o),
(425,112,o),
(340,112,cs)
);
},
{
closed = 1;
nodes = (
(80,-199,l),
(200,-199,l),
(200,50,l),
(222,20,o),
(294,-8,o),
(350,-8,cs),
(493,-8,o),
(609,108,o),
(609,251,cs),
(609,394,o),
(493,510,o),
(350,510,cs),
(294,510,o),
(222,482,o),
(200,452,c),
(200,801,l),
(80,801,l)
);
}
);
width = 669;
}
);
unicode = 254;
}
{
glyphname = Hbar;
layers = (
{
layerId = m01;
shapes = (
{
pos = (10,0);
ref = H;
},
{
closed = 1;
nodes = (
(50,599,l),
(50,539,l),
(610,539,l),
(610,599,l)
);
}
);
width = 660;
},
{
layerId = m002;
shapes = (
{
pos = (10,0);
ref = H;
},
{
closed = 1;
nodes = (
(40,619,l),
(40,499,l),
(640,499,l),
(640,619,l)
);
}
);
width = 680;
}
);
unicode = 294;
}
{
glyphname = hbar;
layers = (
{
layerId = m01;
shapes = (
{
pos = (30,0);
ref = h;
},
{
closed = 1;
nodes = (
(30,669,l),
(30,609,l),
(280,609,l),
(280,669,l)
);
}
);
width = 630;
},
{
layerId = m002;
shapes = (
{
pos = (25,0);
ref = h;
},
{
closed = 1;
nodes = (
(20,709,l),
(20,589,l),
(320,589,l),
(320,709,l)
);
}
);
width = 625;
}
);
unicode = 295;
}
{
glyphname = idotless;
kernLeft = i;
kernRight = i;
layers = (
{
anchors = (
{
name = bottom;
pos = (110,0);
},
{
name = ogonek;
pos = (110,1);
},
{
name = top;
pos = (110,500);
}
);
layerId = m01;
shapes = (
{
closed = 1;
nodes = (
(80,0,l),
(140,0,l),
(140,500,l),
(80,500,l)
);
}
);
width = 220;
},
{
anchors = (
{
name = bottom;
pos = (140,0);
},
{
name = ogonek;
pos = (140,0);
},
{
name = top;
pos = (140,510);
}
);
layerId = m002;
shapes = (
{
closed = 1;
nodes = (
(80,0,l),
(200,0,l),
(200,500,l),
(80,500,l)
);
}
);
width = 280;
}
);
unicode = 305;
}
{
glyphname = Lslash;
layers = (
{
layerId = m01;
shapes = (
{
pos = (30,0);
ref = L;
},
{
closed = 1;
nodes = (
(20,244,l),
(275,444,l),
(275,524,l),
(20,324,l)
);
}
);
width = 630;
},
{
layerId = m002;
shapes = (
{
pos = (40,0);
ref = L;
},
{
closed = 1;
nodes = (
(30,214,l),
(285,414,l),
(285,554,l),
(30,354,l)
);
}
);
width = 610;
}
);
unicode = 321;
}
{
glyphname = lslash;
layers = (
{
layerId = m01;
shapes = (
{
pos = (40,0);
ref = l;
},
{
closed = 1;
nodes = (
(20,264,l),
(275,464,l),
(275,544,l),
(20,344,l)
);
}
);
width = 295;
},
{
layerId = m002;
shapes = (
{
pos = (10,0);
ref = l;
},
{
closed = 1;
nodes = (
(20,234,l),
(275,434,l),
(275,574,l),
(20,374,l)
);
}
);
width = 295;
}
);
unicode = 322;
}
{
glyphname = Eng;
layers = (
{
layerId = m01;
shapes = (
{
closed = 1;
nodes = (
(50,716.009,l),
(50,1,l),
(110,1,l),
(110,543.991,l),
(550,-10.009,l),
(550,85,l)
);
},
{
closed = 1;
nodes = (
(498,-200,l),
(541,-200,o),
(586,-157,o),
(588,-111,c),
(590,0,l),
(590,700,l),
(530,700,l),
(530,0,l),
(528,-109,l),
(527,-125,o),
(513,-140,o),
(498,-140,c),
(470,-140,l),
(470,-200,l)
);
}
);
width = 640;
},
{
layerId = m002;
shapes = (
{
closed = 1;
nodes = (
(50,725,l),
(50,1,l),
(170,1,l),
(170,431,l),
(610,-19,l),
(610,157,l)
);
},
{
closed = 1;
nodes = (
(552,-200,l),
(629,-200,o),
(710,-130,o),
(710,-51,c),
(710,0,l),
(710,700,l),
(590,700,l),
(590,0,l),
(590,-51,l),
(590,-68,o),
(575,-80,o),
(552,-80,c),
(510,-80,l),
(510,-200,l)
);
}
);
width = 760;
}
);
unicode = 330;
}
{
glyphname = eng;
layers = (
{
layerId = m01;
shapes = (
{
closed = 1;
nodes = (
(90,0,l),
(150,0,l),
(150,301,ls),
(150,381,o),
(220,450,o),
(303,450,cs),
(390,450,o),
(449,387,o),
(449,300,cs),
(449,-109,ls),
(449,-125,o),
(434,-140,o),
(419,-140,cs),
(391,-140,l),
(391,-200,l),
(419,-200,ls),
(462,-200,o),
(509,-157,o),
(509,-111,cs),
(510,300,ls),
(510,415,o),
(418,510,o),
(303,510,cs),
(245,510,o),
(168,476,o),
(150,426,c),
(150,500,l),
(90,500,l)
);
}
);
width = 600;
},
{
layerId = m002;
shapes = (
{
closed = 1;
nodes = (
(80,0,l),
(201,0,l),
(201,301,ls),
(201,344,o),
(241,391,o),
(308,391,cs),
(373,391,o),
(416,351,o),
(416,300,cs),
(416,-51,ls),
(416,-68,o),
(401,-80,o),
(378,-80,cs),
(336,-80,l),
(336,-200,l),
(378,-200,ls),
(455,-200,o),
(536,-130,o),
(536,-51,cs),
(535,300,ls),
(535,415,o),
(431,510,o),
(321,510,cs),
(258,510,o),
(224,495,o),
(201,476,c),
(201,500,l),
(80,500,l)
);
}
);
width = 615;
}
);
unicode = 331;
}
{
glyphname = OE;
kernLeft = O;
kernRight = E;
layers = (
{
anchors = (
{
name = bottom;
pos = (400,0);
},
{
name = center;
pos = (400,350);
},
{
name = ogonek;
pos = (720,10);
},
{
name = top;
pos = (400,650);
},
{
name = topleft;
pos = (20,700);
},
{
name = topright;
pos = (780,700);
}
);
layerId = m01;
shapes = (
{
closed = 1;
nodes = (
(233,55,o),
(105,183,o),
(105,350,cs),
(105,517,o),
(233,645,o),
(400,645,cs),
(567,645,o),
(705,517,o),
(705,350,cs),
(705,183,o),
(567,55,o),
(400,55,cs)
);
},
{
closed = 1;
nodes = (
(45,155,o),
(205,-5,o),
(400,-5,cs),
(523,-5,o),
(651,68,o),
(695,163,c),
(695,0,l),
(1135,0,l),
(1135,60,l),
(755,60,l),
(755,320,l),
(1135,320,l),
(1135,380,l),
(755,380,l),
(755,640,l),
(1135,640,l),
(1135,700,l),
(695,700,l),
(695,537,l),
(651,632,o),
(523,705,o),
(400,705,cs),
(205,705,o),
(45,545,o),
(45,350,cs)
);
}
);
width = 1215;
},
{
anchors = (
{
name = bottom;
pos = (400,0);
},
{
name = center;
pos = (400,350);
},
{
name = ogonek;
pos = (720,10);
},
{
name = top;
pos = (400,650);
},
{
name = topleft;
pos = (20,700);
},
{
name = topright;
pos = (780,700);
}
);
layerId = m002;
shapes = (
{
closed = 1;
nodes = (
(270,110,o),
(160,210,o),
(160,350,cs),
(160,490,o),
(270,590,o),
(410,590,cs),
(550,590,o),
(660,490,o),
(660,350,cs),
(660,210,o),
(550,110,o),
(410,110,cs)
);
},
{
closed = 1;
nodes = (
(40,152,o),
(202,-10,o),
(400,-10,cs),
(497,-10,o),
(605,39,o),
(650,102,c),
(650,0,l),
(1120,0,l),
(1120,120,l),
(770,120,l),
(770,290,l),
(1120,290,l),
(1120,410,l),
(770,410,l),
(770,580,l),
(1120,580,l),
(1120,700,l),
(650,700,l),
(650,598,l),
(605,661,o),
(497,710,o),
(400,710,cs),
(202,710,o),
(40,548,o),
(40,350,cs)
);
}
);
width = 1180;
}
);
metricLeft = "=|O";
metricRight = "=|E";
unicode = 338;
}
{
glyphname = Schwa;
kernRight = O;
layers = (
{
layerId = m01;
shapes = (
{
closed = 1;
nodes = (
(47.261,380,l),
(29.816,172.264,o),
(195.659,-4,o),
(400,-4,c),
(594.426,-4,o),
(754,155.574,o),
(754,350,c),
(754,544.426,o),
(594.426,704,o),
(400,704,c),
(244.53,704,o),
(137.396,620.201,o),
(66.379,503.606,c),
(117.621,472.394,l),
(181.749,577.678,o),
(267.27,644,o),
(400,644,c),
(565.574,644,o),
(694,515.574,o),
(694,350,c),
(694,184.426,o),
(565.574,56,o),
(400,56,c),
(244.573,56,o),
(121.88,169.169,o),
(107.426,320,c),
(705,320,l),
(705,380,l)
);
}
);
width = 800;
},
{
layerId = m002;
shapes = (
{
closed = 1;
nodes = (
(45.978,410,l),
(8.984,186.931,o),
(183.256,-9,o),
(400,-9,c),
(597.053,-9,o),
(759,152.947,o),
(759,350,c),
(759,547.053,o),
(597.053,709,o),
(400,709,c),
(261.881,709,o),
(159.541,641.831,o),
(90.375,546.151,c),
(187.625,475.849,l),
(241.037,549.735,o),
(301.719,589,o),
(400,589,c),
(539.147,589,o),
(639,489.147,o),
(639,350,c),
(639,210.853,o),
(539.147,111,o),
(400,111,c),
(281.813,111,o),
(191.975,183.036,o),
(167.59,290,c),
(681,290,l),
(681,410,l)
);
}
);
width = 800;
}
);
unicode = 399;
}
{
glyphname = Fhook;
layers = (
{
layerId = m01;
shapes = (
{
closed = 1;
nodes = (
(138,320,l),
(518,320,l),
(518,380,l),
(138,380,l),
(138,640,l),
(518,640,l),
(518,700,l),
(78,700,l),
(78,-109,ls),
(78,-125,o),
(63,-140,o),
(48,-140,cs),
(20,-140,l),
(20,-200,l),
(48,-200,ls),
(91,-200,o),
(138,-157,o),
(138,-111,cs)
);
}
);
width = 598;
},
{
layerId = m002;
shapes = (
{
closed = 1;
nodes = (
(220,290,l),
(570,290,l),
(570,410,l),
(220,410,l),
(220,580,l),
(570,580,l),
(570,700,l),
(100,700,l),
(100,-51,ls),
(100,-68,o),
(85,-80,o),
(62,-80,cs),
(20,-80,l),
(20,-200,l),
(62,-200,ls),
(139,-200,o),
(220,-130,o),
(220,-51,cs)
);
}
);
width = 630;
}
);
unicode = 401;
}
{
glyphname = khook;
layers = (
{
layerId = m01;
shapes = (
{
closed = 1;
nodes = (
(150,220,l),
(169,220,l),
(389,0,l),
(473,0,l),
(223,251,l),
(472,500,l),
(388,500,l),
(168,280,l),
(150,280,l),
(150,710,ls),
(150,726,o),
(164,740,o),
(180,740,cs),
(210,740,l),
(210,800,l),
(180,800,ls),
(136,800,o),
(90,754,o),
(90,710,cs),
(90,0,l),
(150,0,l)
);
}
);
width = 543;
},
{
layerId = m002;
shapes = (
{
closed = 1;
nodes = (
(200,190,l),
(226,190,l),
(416,0,l),
(586,0,l),
(336,251,l),
(585,500,l),
(415,500,l),
(225,310,l),
(200,310,l),
(200,650,ls),
(200,675,o),
(205,680,o),
(230,680,cs),
(280,680,l),
(280,800,l),
(230,800,ls),
(147,800,o),
(80,733,o),
(80,650,cs),
(80,0,l),
(200,0,l)
);
}
);
width = 616;
}
);
unicode = 409;
}
{
glyphname = Nhookleft;
layers = (
{
layerId = m01;
shapes = (
{
closed = 1;
nodes = (
(500,162,l),
(60,716,l),
(60,-109,ls),
(60,-125,o),
(45,-140,o),
(30,-140,cs),
(2,-140,l),
(2,-200,l),
(30,-200,ls),
(73,-200,o),
(120,-157,o),
(120,-111,cs),
(120,544,l),
(560,-10,l),
(560,700,l),
(500,700,l)
);
}
);
width = 620;
},
{
layerId = m002;
shapes = (
{
closed = 1;
nodes = (
(500,275,l),
(60,725,l),
(60,-50,ls),
(60,-67,o),
(45,-80,o),
(22,-80,cs),
(-20,-80,l),
(-20,-200,l),
(22,-200,ls),
(99,-200,o),
(180,-129,o),
(180,-50,cs),
(180,431,l),
(620,-19,l),
(620,700,l),
(500,700,l)
);
}
);
width = 680;
}
);
unicode = 413;
}
{
glyphname = Esh;
layers = (
{
layerId = m01;
shapes = (
{
closed = 1;
nodes = (
(161.702,60,l),
(333.89,350,l),
(161.702,640,l),
(520,640,l),
(520,700,l),
(56.298,700,l),
(264.11,350,l),
(56.298,0,l),
(519,0,l),
(519,60,l)
);
}
);
width = 600;
},
{
layerId = m002;
shapes = (
{
closed = 1;
nodes = (
(250.041,120,l),
(400.731,350,l),
(250.041,580,l),
(550,580,l),
(550,700,l),
(27.959,700,l),
(257.269,350,l),
(27.959,0,l),
(549,0,l),
(549,120,l)
);
}
);
width = 590;
}
);
unicode = 425;
}
{
glyphname = Tretroflexhook;
layers = (
{
layerId = m01;
shapes = (
{
closed = 1;
nodes = (
(310,640,l),
(520,640,l),
(520,700,l),
(40,700,l),
(40,640,l),
(250,640,l),
(250,-111,ls),
(250,-157,o),
(297,-200,o),
(340,-200,cs),
(368,-200,l),
(368,-140,l),
(340,-140,ls),
(325,-140,o),
(310,-125,o),
(310,-109,cs)
);
}
);
width = 560;
},
{
layerId = m002;
shapes = (
{
closed = 1;
nodes = (
(340,580,l),
(520,580,l),
(520,700,l),
(40,700,l),
(40,580,l),
(220,580,l),
(220,-50,ls),
(220,-129,o),
(301,-200,o),
(378,-200,cs),
(420,-200,l),
(420,-80,l),
(378,-80,ls),
(355,-80,o),
(340,-67,o),
(340,-50,cs)
);
}
);
width = 560;
}
);
unicode = 430;
}
{
export = 0;
glyphname = Ezh;
layers = (
{
layerId = m01;
width = 600;
},
{
guides = (
{
angle = -45;
pos = (223,212);
},
{
angle = 52;
pos = (64,371);
},
{
angle = 52;
pos = (152,283);
}
);
layerId = m002;
shapes = (
{
closed = 1;
nodes = (
(177,307,o),
(194,311,o),
(223,311,cs),
(285,311,o),
(322,275,o),
(322,212,cs),
(322,149,o),
(285,113,o),
(223,113,cs),
(188,113,o),
(167,124,o),
(145,150,c),
(53,74,l),
(93,25,o),
(154,-7,o),
(223,-7,cs),
(343,-7,o),
(442,91,o),
(442,212,cs),
(442,310,o),
(377,392,o),
(289,421,cs),
(281,424,o),
(273,426,o),
(265,427,c),
(478,700,l),
(30,700,l),
(30,580,l),
(227,580,l),
(64,371,l),
(152,283,l)
);
}
);
width = 482;
}
);
unicode = 439;
}
{
glyphname = Gstroke;
layers = (
{
layerId = m01;
shapes = (
{
ref = G;
},
{
closed = 1;
nodes = (
(530,230,l),
(530,170,l),
(830,170,l),
(830,230,l)
);
}
);
width = 800;
},
{
layerId = m002;
shapes = (
{
ref = G;
},
{
closed = 1;
nodes = (
(434,233,l),
(434,133,l),
(794,133,l),
(794,233,l)
);
}
);
width = 800;
}
);
unicode = 484;
}
{
glyphname = jdotless;
layers = (
{
anchors = (
{
name = bottom;
pos = (136,-200);
},
{
name = top;
pos = (160,500);
}
);
layerId = m01;
shapes = (
{
closed = 1;
nodes = (
(131,-110,ls),
(131,-126,o),
(117,-140,o),
(101,-140,cs),
(71,-140,l),
(71,-200,l),
(101,-200,ls),
(145,-200,o),
(191,-154,o),
(191,-110,cs),
(191,500,l),
(131,500,l)
);
}
);
width = 271;
},
{
anchors = (
{
name = bottom;
pos = (136,-200);
},
{
name = top;
pos = (160,510);
}
);
layerId = m002;
shapes = (
{
closed = 1;
nodes = (
(101,-50,ls),
(101,-75,o),
(96,-80,o),
(71,-80,cs),
(60,-80,l),
(60,-200,l),
(71,-200,ls),
(154,-200,o),
(221,-133,o),
(221,-50,cs),
(221,500,l),
(101,500,l)
);
}
);
width = 271;
}
);
unicode = 567;
}
{
glyphname = Vturned;
layers = (
{
layerId = m01;
shapes = (
{
closed = 1;
nodes = (
(290,700,l),
(20,-16,l),
(84,-16,l),
(292,536,l),
(515,-16,l),
(580,-16,l)
);
}
);
width = 600;
},
{
layerId = m002;
shapes = (
{
closed = 1;
nodes = (
(333,716,l),
(20,0,l),
(152,0,l),
(333,417,l),
(515,0,l),
(646,0,l)
);
}
);
width = 666;
}
);
unicode = 581;
}
{
glyphname = Rstroke;
layers = (
{
anchors = (
{
name = bottom;
pos = (350,40);
},
{
name = top;
pos = (320,700);
}
);
layerId = m01;
shapes = (
{
closed = 1;
nodes = (
(380,280,l),
(495,280,o),
(590,375,o),
(590,490,c),
(590,605,o),
(495,700,o),
(380,700,c),
(190,700,l),
(190,640,l),
(380,640,l),
(467,640,o),
(530,577,o),
(530,490,c),
(530,403,o),
(467,340,o),
(380,340,c),
(10,340,l),
(10,280,l)
);
},
{
closed = 1;
nodes = (
(190,700,l),
(130,700,l),
(130,0,l),
(190,0,l)
);
},
{
closed = 1;
nodes = (
(606,1,l),
(424,297,l),
(358,287,l),
(534,0,l)
);
}
);
width = 650;
},
{
anchors = (
{
name = bottom;
pos = (390,30);
},
{
name = top;
pos = (360,710);
}
);
layerId = m002;
shapes = (
{
closed = 1;
nodes = (
(430,250,l),
(559,250,o),
(670,340,o),
(670,475,c),
(670,610,o),
(559,700,o),
(430,700,c),
(240,700,l),
(240,580,l),
(430,580,l),
(508,580,o),
(550,545,o),
(550,475,c),
(550,405,o),
(508,370,o),
(430,370,c),
(10,370,l),
(10,250,l)
);
},
{
closed = 1;
nodes = (
(270,700,l),
(150,700,l),
(150,0,l),
(270,0,l)
);
},
{
closed = 1;
nodes = (
(676,1,l),
(494,297,l),
(358,287,l),
(534,0,l)
);
}
);
width = 700;
}
);
unicode = 588;
}
{
glyphname = aturned;
kernLeft = o;
kernRight = i;
layers = (
{
layerId = m01;
shapes = (
{
closed = 1;
nodes = (
(438,445,o),
(520,362,o),
(520,250,cs),
(520,138,o),
(438,55,o),
(326,55,cs),
(214,55,o),
(140,138,o),
(140,250,cs),
(140,362,o),
(214,445,o),
(326,445,cs)
);
},
{
closed = 1;
nodes = (
(80,0,l),
(140,0,l),
(140,86,l),
(177,31,o),
(257,-5,o),
(335,-5,cs),
(475,-5,o),
(590,110,o),
(590,250,cs),
(590,390,o),
(475,505,o),
(335,505,cs),
(257,505,o),
(177,469,o),
(140,414,c),
(140,500,l),
(80,500,l)
);
}
);
width = 630;
},
{
layerId = m002;
shapes = (
{
closed = 1;
nodes = (
(395,389,o),
(459,335,o),
(459,250,cs),
(459,165,o),
(395,111,o),
(310,111,cs),
(225,111,o),
(161,165,o),
(161,250,cs),
(161,335,o),
(225,389,o),
(310,389,cs)
);
},
{
closed = 1;
nodes = (
(50,0,l),
(170,0,l),
(170,49,l),
(192,19,o),
(264,-9,o),
(320,-9,cs),
(463,-9,o),
(579,107,o),
(579,250,cs),
(579,393,o),
(463,509,o),
(320,509,cs),
(264,509,o),
(192,481,o),
(170,451,c),
(170,500,l),
(50,500,l)
);
}
);
width = 619;
}
);
unicode = 592;
}
{
glyphname = "alpha-latin";
kernLeft = o;
kernRight = l;
layers = (
{
anchors = (
{
name = bottom;
pos = (315,0);
},
{
name = top;
pos = (295,501);
}
);
layerId = m01;
shapes = (
{
closed = 1;
nodes = (
(207,55,o),
(125,138,o),
(125,250,cs),
(125,362,o),
(207,445,o),
(319,445,cs),
(431,445,o),
(505,362,o),
(505,250,cs),
(505,138,o),
(431,55,o),
(319,55,cs)
);
},
{
closed = 1;
nodes = (
(55,110,o),
(170,-5,o),
(310,-5,cs),
(388,-5,o),
(468,31,o),
(505,86,c),
(508,30,o),
(567,0,o),
(611,0,c),
(611,60,l),
(588,60,o),
(565,70,o),
(565,91,cs),
(565,500,l),
(505,500,l),
(505,414,l),
(468,469,o),
(388,505,o),
(310,505,cs),
(170,505,o),
(55,390,o),
(55,250,cs)
);
}
);
width = 666;
},
{
anchors = (
{
name = bottom;
pos = (315,0);
},
{
name = top;
pos = (295,501);
}
);
layerId = m002;
shapes = (
{
closed = 1;
nodes = (
(225,111,o),
(161,165,o),
(161,250,cs),
(161,335,o),
(225,389,o),
(310,389,cs),
(395,389,o),
(459,335,o),
(459,250,cs),
(459,165,o),
(395,111,o),
(310,111,cs)
);
},
{
closed = 1;
nodes = (
(41,107,o),
(157,-9,o),
(300,-9,cs),
(373,-9,o),
(440,26,o),
(472,72,c),
(498,29,o),
(546,0,o),
(600,0,c),
(600,120,l),
(575,120,o),
(570,125,o),
(570,150,cs),
(570,500,l),
(450,500,l),
(450,451,l),
(428,481,o),
(356,509,o),
(300,509,cs),
(157,509,o),
(41,393,o),
(41,250,cs)
);
}
);
width = 620;
}
);
unicode = 593;
}
{
glyphname = bhook;
layers = (
{
layerId = m01;
shapes = (
{
closed = 1;
nodes = (
(413,445,o),
(495,362,o),
(495,250,cs),
(495,138,o),
(413,55,o),
(301,55,cs),
(189,55,o),
(115,138,o),
(115,250,cs),
(115,362,o),
(189,445,o),
(301,445,cs)
);
},
{
closed = 1;
nodes = (
(115,0,l),
(115,86,l),
(152,31,o),
(232,-5,o),
(310,-5,cs),
(450,-5,o),
(565,110,o),
(565,250,cs),
(565,390,o),
(450,505,o),
(310,505,cs),
(232,505,o),
(152,469,o),
(115,414,c),
(115,710,ls),
(115,726,o),
(129,740,o),
(145,740,cs),
(175,740,l),
(175,800,l),
(145,800,ls),
(101,800,o),
(55,754,o),
(55,710,cs),
(55,0,l)
);
}
);
width = 600;
},
{
layerId = m002;
shapes = (
{
closed = 1;
nodes = (
(425,389,o),
(489,335,o),
(489,250,cs),
(489,165,o),
(425,111,o),
(340,111,cs),
(255,111,o),
(191,165,o),
(191,250,cs),
(191,335,o),
(255,389,o),
(340,389,cs)
);
},
{
closed = 1;
nodes = (
(200,0,l),
(200,49,l),
(222,19,o),
(294,-9,o),
(350,-9,cs),
(493,-9,o),
(609,107,o),
(609,250,cs),
(609,393,o),
(493,509,o),
(350,509,cs),
(294,509,o),
(222,481,o),
(200,451,c),
(200,650,ls),
(200,675,o),
(205,680,o),
(230,680,cs),
(280,680,l),
(280,800,l),
(230,800,ls),
(147,800,o),
(80,733,o),
(80,650,cs),
(80,0,l)
);
}
);
width = 649;
}
);
unicode = 595;
}
{
glyphname = dtail;
layers = (
{
layerId = m01;
shapes = (
{
closed = 1;
nodes = (
(431,445,o),
(505,362,o),
(505,250,cs),
(505,138,o),
(431,55,o),
(319,55,cs),
(207,55,o),
(125,138,o),
(125,250,cs),
(125,362,o),
(207,445,o),
(319,445,cs)
);
},
{
closed = 1;
nodes = (
(55,110,o),
(170,-5,o),
(310,-5,cs),
(388,-5,o),
(468,31,o),
(505,86,c),
(505,-110,ls),
(505,-156,o),
(549,-200,o),
(595,-200,cs),
(625,-200,l),
(625,-140,l),
(595,-140,ls),
(577,-140,o),
(565,-128,o),
(565,-110,cs),
(565,800,l),
(505,800,l),
(505,414,l),
(468,469,o),
(388,505,o),
(310,505,cs),
(170,505,o),
(55,390,o),
(55,250,cs)
);
}
);
width = 645;
},
{
layerId = m002;
shapes = (
{
closed = 1;
nodes = (
(394,389,o),
(458,335,o),
(458,250,cs),
(458,165,o),
(394,111,o),
(309,111,cs),
(224,111,o),
(160,165,o),
(160,250,cs),
(160,335,o),
(224,389,o),
(309,389,cs)
);
},
{
closed = 1;
nodes = (
(40,107,o),
(156,-9,o),
(299,-9,cs),
(355,-9,o),
(427,19,o),
(449,49,c),
(449,-50,ls),
(449,-133,o),
(516,-200,o),
(599,-200,cs),
(619,-200,l),
(619,-80,l),
(599,-80,ls),
(574,-80,o),
(569,-75,o),
(569,-50,cs),
(569,800,l),
(449,800,l),
(449,451,l),
(427,481,o),
(355,509,o),
(299,509,cs),
(156,509,o),
(40,393,o),
(40,250,cs)
);
}
);
width = 649;
}
);
unicode = 598;
}
{
glyphname = dhook;
layers = (
{
anchors = (
{
name = topright;
pos = (625,800);
}
);
layerId = m01;
shapes = (
{
closed = 1;
nodes = (
(431,445,o),
(505,362,o),
(505,250,cs),
(505,138,o),
(431,55,o),
(319,55,cs),
(207,55,o),
(125,138,o),
(125,250,cs),
(125,362,o),
(207,445,o),
(319,445,cs)
);
},
{
closed = 1;
nodes = (
(55,110,o),
(170,-5,o),
(310,-5,cs),
(388,-5,o),
(468,31,o),
(505,86,c),
(505,0,l),
(565,0,l),
(565,710,ls),
(565,726,o),
(579,740,o),
(595,740,cs),
(625,740,l),
(625,800,l),
(595,800,ls),
(551,800,o),
(505,754,o),
(505,710,cs),
(505,414,l),
(468,469,o),
(388,505,o),
(310,505,cs),
(170,505,o),
(55,390,o),
(55,250,cs)
);
}
);
width = 645;
},
{
anchors = (
{
name = topright;
pos = (629,800);
}
);
layerId = m002;
shapes = (
{
closed = 1;
nodes = (
(394,389,o),
(458,335,o),
(458,250,cs),
(458,165,o),
(394,111,o),
(309,111,cs),
(224,111,o),
(160,165,o),
(160,250,cs),
(160,335,o),
(224,389,o),
(309,389,cs)
);
},
{
closed = 1;
nodes = (
(40,107,o),
(156,-9,o),
(299,-9,cs),
(355,-9,o),
(427,19,o),
(449,49,c),
(449,0,l),
(569,0,l),
(569,650,ls),
(569,675,o),
(574,680,o),
(599,680,cs),
(649,680,l),
(649,800,l),
(599,800,ls),
(516,800,o),
(449,733,o),
(449,650,cs),
(449,451,l),
(427,481,o),
(355,509,o),
(299,509,cs),
(156,509,o),
(40,393,o),
(40,250,cs)
);
}
);
width = 649;
}
);
unicode = 599;
}
{
glyphname = ghook;
layers = (
{
layerId = m01;
shapes = (
{
closed = 1;
nodes = (
(207,55,o),
(125,138,o),
(125,250,cs),
(125,362,o),
(207,445,o),
(319,445,cs),
(431,445,o),
(505,362,o),
(505,250,cs),
(505,138,o),
(431,55,o),
(319,55,cs)
);
},
{
closed = 1;
nodes = (
(55,110,o),
(170,-5,o),
(310,-5,cs),
(388,-5,o),
(468,31,o),
(505,86,c),
(505,20,ls),
(505,-75,o),
(432,-150,o),
(321,-150,cs),
(210,-150,o),
(135,-95,o),
(135,0,c),
(75,0,l),
(75,-127,o),
(182,-210,o),
(321,-210,cs),
(453,-210,o),
(565,-119,o),
(565,20,cs),
(565,610,ls),
(565,626,o),
(579,640,o),
(595,640,cs),
(625,640,l),
(625,700,l),
(595,700,ls),
(551,700,o),
(505,654,o),
(505,610,cs),
(505,414,l),
(468,469,o),
(388,505,o),
(310,505,cs),
(170,505,o),
(55,390,o),
(55,250,cs)
);
}
);
width = 625;
},
{
layerId = m002;
shapes = (
{
closed = 1;
nodes = (
(234,111,o),
(170,165,o),
(170,250,cs),
(170,335,o),
(234,389,o),
(319,389,cs),
(404,389,o),
(468,335,o),
(468,250,cs),
(468,165,o),
(404,111,o),
(319,111,cs)
);
},
{
closed = 1;
nodes = (
(50,107,o),
(166,-9,o),
(309,-9,cs),
(365,-9,o),
(437,19,o),
(459,49,c),
(459,0,ls),
(459,-53,o),
(410,-90,o),
(320,-90,cs),
(228,-90,o),
(181,-59,o),
(181,-20,c),
(61,-20,l),
(61,-125,o),
(172,-210,o),
(320,-210,cs),
(460,-210,o),
(579,-120,o),
(579,0,cs),
(579,550,ls),
(579,575,o),
(584,580,o),
(609,580,cs),
(659,580,l),
(659,700,l),
(609,700,ls),
(526,700,o),
(459,633,o),
(459,550,cs),
(459,451,l),
(437,481,o),
(365,509,o),
(309,509,cs),
(166,509,o),
(50,393,o),
(50,250,cs)
);
}
);
width = 619;
}
);
unicode = 608;
}
{
glyphname = "gamma-latin";
layers = (
{
background = {
shapes = (
{
attr = {
strokeHeight = 60;
strokeWidth = 60;
};
closed = 0;
nodes = (
(150,500,l),
(300,200,l),
(450,500,l)
);
},
{
attr = {
strokeHeight = 60;
strokeWidth = 60;
};
closed = 0;
nodes = (
(450,-100,l),
(300,200,l),
(150,-100,l)
);
}
);
};
layerId = m01;
width = 600;
},
{
layerId = m002;
width = 600;
}
);
unicode = 611;
}
{
glyphname = hturned;
layers = (
{
layerId = m01;
shapes = (
{
closed = 1;
nodes = (
(509,500,l),
(449,500,l),
(450,199,l),
(449,119,o),
(380,50,o),
(297,50,cs),
(210,50,o),
(151,113,o),
(151,200,cs),
(150,500,l),
(90,500,l),
(91,200,ls),
(91,85,o),
(182,-10,o),
(297,-10,cs),
(355,-10,o),
(432,24,o),
(450,74,c),
(450,-200,l),
(510,-200,l),
(510,199,l)
);
}
);
width = 600;
},
{
layerId = m002;
shapes = (
{
closed = 1;
nodes = (
(535,500,l),
(414,500,l),
(414,199,ls),
(414,156,o),
(374,109,o),
(307,109,cs),
(242,109,o),
(199,149,o),
(199,200,cs),
(199,500,l),
(80,500,l),
(80,200,ls),
(80,85,o),
(184,-10,o),
(294,-10,cs),
(357,-10,o),
(391,5,o),
(414,24,c),
(414,-200,l),
(535,-200,l),
(535,199,l)
);
}
);
width = 600;
}
);
unicode = 613;
}
{
glyphname = hhook;
layers = (
{
layerId = m01;
shapes = (
{
closed = 1;
nodes = (
(151,0,l),
(151,316,l),
(160,389,o),
(225,450,o),
(303,450,cs),
(390,450,o),
(449,387,o),
(449,300,cs),
(450,0,l),
(510,0,l),
(509,300,ls),
(509,415,o),
(418,510,o),
(303,510,cs),
(246,510,o),
(171,477,o),
(151,429,c),
(151,710,ls),
(151,726,o),
(165,740,o),
(181,740,cs),
(211,740,l),
(211,800,l),
(181,800,ls),
(137,800,o),
(90,754,o),
(90,710,cs),
(90,0,l)
);
}
);
width = 600;
},
{
layerId = m002;
shapes = (
{
closed = 1;
nodes = (
(201,0,l),
(201,301,ls),
(201,344,o),
(241,391,o),
(308,391,cs),
(373,391,o),
(416,351,o),
(416,300,cs),
(416,0,l),
(535,0,l),
(535,300,ls),
(535,415,o),
(431,510,o),
(321,510,cs),
(258,510,o),
(224,495,o),
(201,476,c),
(201,650,ls),
(201,675,o),
(206,680,o),
(231,680,cs),
(281,680,l),
(281,800,l),
(231,800,ls),
(148,800,o),
(80,733,o),
(80,650,cs),
(80,0,l)
);
}
);
width = 600;
}
);
unicode = 614;
}
{
glyphname = lhookretroflex;
layers = (
{
layerId = m01;
shapes = (
{
closed = 1;
nodes = (
(130,-140,l),
(112.426,-140,o),
(100,-127.574,o),
(100,-110,c),
(100,800,l),
(40,800,l),
(40,-110,l),
(40,-156.4,o),
(83.6,-200,o),
(130,-200,c),
(160,-200,l),
(160,-140,l)
);
}
);
width = 200;
},
{
layerId = m002;
shapes = (
{
closed = 1;
nodes = (
(190,-80,l),
(164.853,-80,o),
(160,-75.147,o),
(160,-50,c),
(160,800,l),
(40,800,l),
(40,-50,l),
(40,-133,o),
(107,-200,o),
(190,-200,c),
(210,-200,l),
(210,-80,l)
);
}
);
width = 230;
}
);
unicode = 621;
}
{
glyphname = mlonglegturned;
layers = (
{
layerId = m01;
shapes = (
{
closed = 1;
nodes = (
(869,500,l),
(809,500,l),
(809,199,ls),
(809,119,o),
(739,50,o),
(656,50,cs),
(569,50,o),
(510,113,o),
(510,200,cs),
(510,500,l),
(450,500,l),
(450,200,ls),
(450,113,o),
(381,50,o),
(294,50,cs),
(211,50,o),
(151,119,o),
(151,199,cs),
(151,500,l),
(91,500,l),
(90,200,l),
(90,85,o),
(173,-10,o),
(294,-10,cs),
(369,-10,o),
(444,31,o),
(480,91,c),
(516,31,o),
(581,-10,o),
(656,-10,cs),
(714,-10,o),
(791,24,o),
(809,74,c),
(809,-200,l),
(869,-200,l)
);
}
);
width = 959;
},
{
layerId = m002;
shapes = (
{
closed = 1;
nodes = (
(871,500,l),
(750,500,l),
(750,199,ls),
(750,156,o),
(710,109,o),
(643,109,cs),
(578,109,o),
(535,149,o),
(535,200,cs),
(535,500,l),
(414,500,l),
(414,199,ls),
(414,156,o),
(374,109,o),
(307,109,cs),
(242,109,o),
(199,149,o),
(199,200,cs),
(199,500,l),
(80,500,l),
(80,200,ls),
(80,85,o),
(184,-10,o),
(294,-10,cs),
(363,-10,o),
(430,13,o),
(475,67,c),
(516,16,o),
(573,-10,o),
(630,-10,cs),
(693,-10,o),
(727,5,o),
(750,24,c),
(750,-200,l),
(871,-200,l)
);
}
);
width = 959;
}
);
unicode = 624;
}
{
glyphname = nhookleft;
layers = (
{
layerId = m01;
shapes = (
{
closed = 1;
nodes = (
(90,-109,ls),
(90,-125,o),
(75,-140,o),
(60,-140,cs),
(32,-140,l),
(32,-200,l),
(60,-200,ls),
(103,-200,o),
(150,-157,o),
(150,-111,cs),
(150,301,ls),
(150,381,o),
(220,450,o),
(303,450,cs),
(390,450,o),
(449,387,o),
(449,300,cs),
(449,0,l),
(510,0,l),
(510,300,ls),
(510,415,o),
(418,510,o),
(303,510,cs),
(245,510,o),
(168,476,o),
(150,426,c),
(150,500,l),
(90,500,l)
);
}
);
width = 600;
},
{
layerId = m002;
shapes = (
{
closed = 1;
nodes = (
(80,-50,ls),
(80,-67,o),
(65,-80,o),
(42,-80,cs),
(0,-80,l),
(0,-200,l),
(42,-200,ls),
(119,-200,o),
(201,-129,o),
(201,-50,cs),
(201,301,ls),
(201,344,o),
(241,391,o),
(308,391,cs),
(373,391,o),
(416,351,o),
(416,300,cs),
(416,0,l),
(535,0,l),
(535,300,ls),
(535,415,o),
(431,510,o),
(321,510,cs),
(258,510,o),
(224,495,o),
(201,476,c),
(201,500,l),
(80,500,l)
);
}
);
width = 615;
}
);
unicode = 626;
}
{
glyphname = rturned;
kernLeft = i;
kernRight = r;
layers = (
{
anchors = (
{
name = bottom;
pos = (237,-10);
},
{
name = top;
pos = (419,500);
}
);
layerId = m01;
shapes = (
{
closed = 1;
nodes = (
(449,500,l),
(389,500,l),
(390,199,ls),
(390,119,o),
(320,50,o),
(237,50,cs),
(193,50,o),
(156,66,o),
(130,93,c),
(90,53,l),
(127,14,o),
(179,-10,o),
(237,-10,cs),
(295,-10,o),
(372,24,o),
(390,74,c),
(390,0,l),
(450,0,l),
(450,199,l)
);
}
);
width = 510;
},
{
anchors = (
{
name = bottom;
pos = (237,-10);
},
{
name = top;
pos = (419,500);
}
);
layerId = m002;
shapes = (
{
closed = 1;
nodes = (
(430,500,l),
(309,500,l),
(309,199,ls),
(309,156,o),
(269,109,o),
(202,109,cs),
(166,109,o),
(137,121,o),
(118,141,c),
(33,59,l),
(74,17,o),
(131,-10,o),
(189,-10,cs),
(252,-10,o),
(286,5,o),
(309,24,c),
(309,0,l),
(430,0,l),
(430,199,l)
);
}
);
width = 510;
}
);
unicode = 633;
}
{
glyphname = rlonglegturned;
kernLeft = i;
kernRight = r;
layers = (
{
anchors = (
{
name = bottom;
pos = (237,0);
},
{
name = top;
pos = (417,800);
}
);
layerId = m01;
shapes = (
{
closed = 1;
nodes = (
(449,800,l),
(389,800,l),
(390,199,ls),
(390,119,o),
(320,50,o),
(237,50,cs),
(193,50,o),
(156,66,o),
(130,93,c),
(90,53,l),
(127,14,o),
(179,-10,o),
(237,-10,cs),
(295,-10,o),
(372,24,o),
(390,74,c),
(390,0,l),
(450,0,l),
(450,199,l)
);
}
);
width = 510;
},
{
anchors = (
{
name = bottom;
pos = (237,0);
},
{
name = top;
pos = (387,800);
}
);
layerId = m002;
shapes = (
{
closed = 1;
nodes = (
(460,800,l),
(339,800,l),
(339,199,ls),
(339,156,o),
(299,109,o),
(232,109,cs),
(196,109,o),
(167,121,o),
(148,141,c),
(63,59,l),
(104,17,o),
(161,-10,o),
(219,-10,cs),
(282,-10,o),
(316,5,o),
(339,24,c),
(339,0,l),
(460,0,l),
(460,199,l)
);
}
);
width = 510;
}
);
unicode = 634;
}
{
glyphname = rlongleg;
kernLeft = i;
kernRight = r;
layers = (
{
anchors = (
{
name = bottom;
pos = (122,-200);
},
{
name = top;
pos = (255,500);
}
);
layerId = m01;
shapes = (
{
closed = 1;
nodes = (
(91,-200,l),
(151,-200,l),
(150,301,ls),
(150,381,o),
(220,450,o),
(303,450,cs),
(347,450,o),
(384,434,o),
(410,407,c),
(450,447,l),
(413,486,o),
(361,510,o),
(303,510,cs),
(245,510,o),
(168,476,o),
(150,426,c),
(150,500,l),
(90,500,l),
(90,301,l)
);
}
);
width = 510;
},
{
anchors = (
{
name = bottom;
pos = (142,-200);
},
{
name = top;
pos = (295,500);
}
);
layerId = m002;
shapes = (
{
closed = 1;
nodes = (
(80,-200,l),
(201,-200,l),
(201,301,ls),
(201,344,o),
(241,391,o),
(308,391,cs),
(344,391,o),
(373,379,o),
(392,359,c),
(477,441,l),
(436,483,o),
(379,510,o),
(321,510,cs),
(258,510,o),
(224,495,o),
(201,476,c),
(201,500,l),
(80,500,l),
(80,301,l)
);
}
);
width = 510;
}
);
unicode = 636;
}
{
glyphname = esh;
layers = (
{
layerId = m01;
shapes = (
{
closed = 1;
nodes = (
(98,-200,l),
(140.6,-200,o),
(186.348,-156.789,o),
(187.988,-110.808,c),
(189.998,-0.273,l),
(190,610,l),
(190,625.574,o),
(204.426,640,o),
(220,640,c),
(250,640,l),
(250,700,l),
(220,700,l),
(175.6,700,o),
(130,654.4,o),
(130,610,c),
(130.002,0.273,l),
(128.012,-109.192,l),
(127.431,-125.407,o),
(113.294,-140,o),
(98,-140,c),
(70,-140,l),
(70,-200,l)
);
}
);
width = 330;
},
{
layerId = m002;
shapes = (
{
closed = 1;
nodes = (
(92,-200,l),
(169.2,-200,o),
(250,-130,o),
(250,-51,c),
(250,0,l),
(250,550,l),
(250,575.147,o),
(254.853,580,o),
(280,580,c),
(330,580,l),
(330,700,l),
(280,700,l),
(197,700,o),
(130,633,o),
(130,550,c),
(130,0,l),
(130,-51,l),
(130,-67.829,o),
(115.34,-80,o),
(92,-80,c),
(50,-80,l),
(50,-200,l)
);
}
);
width = 380;
}
);
unicode = 643;
}
{
glyphname = tretroflexhook;
layers = (
{
layerId = m01;
shapes = (
{
closed = 1;
nodes = (
(220,-140,l),
(204.426,-140,o),
(190,-125.574,o),
(190,-110,c),
(190,700,l),
(130,700,l),
(130,-110,l),
(130,-154.4,o),
(175.6,-200,o),
(220,-200,c),
(250,-200,l),
(250,-140,l)
);
},
{
closed = 1;
nodes = (
(80,500,l),
(80,440,l),
(240,440,l),
(240,500,l)
);
}
);
width = 330;
},
{
layerId = m002;
shapes = (
{
closed = 1;
nodes = (
(280,-80,l),
(254.853,-80,o),
(250,-75.147,o),
(250,-50,c),
(250,700,l),
(130,700,l),
(130,-50,l),
(130,-133,o),
(197,-200,o),
(280,-200,c),
(330,-200,l),
(330,-80,l)
);
},
{
closed = 1;
nodes = (
(40,530,l),
(40,410,l),
(340,410,l),
(340,530,l)
);
}
);
width = 380;
}
);
unicode = 648;
}
{
glyphname = vturned;
layers = (
{
background = {
shapes = (
{
attr = {
strokeHeight = 60;
strokeWidth = 60;
};
closed = 0;
nodes = (
(68,511,l),
(240,67,l),
(412,511,l)
);
}
);
};
guides = (
{
angle = 90;
pos = (40,0);
},
{
angle = 90;
pos = (440,0);
},
{
angle = 90;
pos = (40,0);
},
{
angle = 90;
pos = (440,0);
}
);
layerId = m01;
shapes = (
{
pos = (0,500);
ref = v;
scale = (1,-1);
}
);
width = 520;
},
{
background = {
shapes = (
{
attr = {
strokeHeight = 60;
strokeWidth = 60;
};
closed = 0;
nodes = (
(68,511,l),
(240,67,l),
(412,511,l)
);
}
);
};
guides = (
{
angle = 90;
pos = (40,0);
},
{
angle = 90;
pos = (440,0);
},
{
angle = 90;
pos = (40,0);
},
{
angle = 90;
pos = (440,0);
}
);
layerId = m002;
shapes = (
{
pos = (0,500);
ref = v;
scale = (1,-1);
}
);
width = 566;
}
);
unicode = 652;
}
{
glyphname = wturned;
layers = (
{
background = {
shapes = (
{
attr = {
strokeHeight = 60;
strokeWidth = 60;
};
closed = 0;
nodes = (
(49,507,l),
(170,76,l),
(320,438,l),
(470,76,l),
(591,507,l)
);
}
);
};
guides = (
{
angle = 90;
pos = (20,0);
},
{
angle = 90;
pos = (620,0);
}
);
layerId = m01;
shapes = (
{
closed = 1;
nodes = (
(175,331,l),
(320,-16,l),
(465,331,l),
(558,0,l),
(620,0,l),
(475,516,l),
(320,140,l),
(165,516,l),
(20,0,l),
(82,0,l)
);
}
);
width = 640;
},
{
background = {
shapes = (
{
attr = {
strokeHeight = 60;
strokeWidth = 60;
};
closed = 0;
nodes = (
(49,507,l),
(170,76,l),
(320,438,l),
(470,76,l),
(591,507,l)
);
}
);
};
guides = (
{
angle = 90;
pos = (20,0);
},
{
angle = 90;
pos = (620,0);
}
);
layerId = m002;
shapes = (
{
closed = 1;
nodes = (
(222,226,l),
(363,-16,l),
(504,226,l),
(579,0,l),
(706,0,l),
(534,516,l),
(363,223,l),
(192,516,l),
(20,0,l),
(147,0,l)
);
}
);
width = 726;
}
);
unicode = 653;
}
{
glyphname = yturned;
kernLeft = v;
layers = (
{
anchors = (
{
name = bottom;
pos = (200,300);
},
{
name = top;
pos = (260,-200);
}
);
background = {
shapes = (
{
attr = {
strokeHeight = 60;
strokeWidth = 60;
};
closed = 0;
nodes = (
(88,511,l),
(260,67,l)
);
},
{
attr = {
strokeHeight = 60;
strokeWidth = 60;
};
closed = 0;
nodes = (
(432,511,l),
(152,-212,l)
);
}
);
};
layerId = m01;
shapes = (
{
closed = 1;
nodes = (
(395,0,l),
(460,0,l),
(288,444,l),
(232,422,l)
);
},
{
closed = 1;
nodes = (
(60,0,l),
(125,0,l),
(396,700,l),
(331,700,l)
);
}
);
width = 520;
},
{
anchors = (
{
name = bottom;
pos = (200,300);
},
{
name = top;
pos = (260,-200);
}
);
background = {
shapes = (
{
attr = {
strokeHeight = 60;
strokeWidth = 60;
};
closed = 0;
nodes = (
(88,511,l),
(260,67,l)
);
},
{
attr = {
strokeHeight = 60;
strokeWidth = 60;
};
closed = 0;
nodes = (
(432,511,l),
(152,-212,l)
);
}
);
};
layerId = m002;
shapes = (
{
closed = 1;
nodes = (
(387,0,l),
(516,0,l),
(335,441,l),
(219,408,l)
);
},
{
closed = 1;
nodes = (
(30,0,l),
(159,0,l),
(447,700,l),
(318,700,l)
);
}
);
width = 533;
}
);
unicode = 654;
}
{
glyphname = glottalstopreversed;
layers = (
{
layerId = m01;
shapes = (
{
closed = 1;
nodes = (
(300,0,l),
(300,348,l),
(270,348,ls),
(183,348,o),
(120,412,o),
(120,498,c),
(120,585,o),
(183,648,o),
(270,648,c),
(357,648,o),
(420,585,o),
(420,498,c),
(480,498,l),
(480,613,o),
(385,708,o),
(270,708,c),
(155,708,o),
(60,613,o),
(60,498,c),
(60,393,o),
(139,305,o),
(240,300,c),
(240,0,l)
);
}
);
width = 540;
},
{
layerId = m002;
shapes = (
{
closed = 1;
nodes = (
(360,0,l),
(360,358,l),
(300,358,ls),
(226,358,o),
(180,403,o),
(180,478,c),
(180,552,o),
(226,598,o),
(300,598,c),
(374,598,o),
(420,552,o),
(420,478,c),
(540,478,l),
(540,610,o),
(432,718,o),
(300,718,c),
(168,718,o),
(60,610,o),
(60,478,c),
(60,367,o),
(137,272,o),
(240,256,c),
(240,0,l)
);
}
);
width = 600;
}
);
unicode = 661;
}
{
glyphname = dzaltone;
kernLeft = o;
layers = (
{
layerId = m01;
shapes = (
{
ref = d;
},
{
pos = (600,0);
ref = z;
},
{
closed = 1;
nodes = (
(565,440,l),
(653,440,l),
(653,500,l),
(565,500,l)
);
}
);
width = 1110;
},
{
layerId = m002;
shapes = (
{
ref = d;
},
{
pos = (600,0);
ref = z;
},
{
closed = 1;
nodes = (
(565,380,l),
(653,380,l),
(653,500,l),
(565,500,l)
);
}
);
width = 1110;
}
);
unicode = 675;
}
{
glyphname = lzdigraph;
layers = (
{
layerId = m01;
shapes = (
{
ref = l;
},
{
pos = (220,0);
ref = z;
},
{
closed = 1;
nodes = (
(140,440,l),
(273,440,l),
(273,500,l),
(140,500,l)
);
}
);
width = 730;
},
{
layerId = m002;
shapes = (
{
ref = l;
},
{
pos = (280,0);
ref = z;
},
{
closed = 1;
nodes = (
(200,380,l),
(333,380,l),
(333,500,l),
(200,500,l)
);
}
);
width = 790;
}
);
unicode = 683;
}
{
glyphname = gravecomb;
layers = (
{
anchors = (
{
name = _top;
pos = (290,500);
},
{
name = top;
pos = (300,740);
}
);
layerId = m01;
shapes = (
{
closed = 1;
nodes = (
(290,520,l),
(360,520,l),
(270,700,l),
(200,700,l)
);
}
);
width = 600;
},
{
anchors = (
{
name = _top;
pos = (290,500);
},
{
name = top;
pos = (300,740);
}
);
layerId = m002;
shapes = (
{
closed = 1;
nodes = (
(285,520,l),
(405,520,l),
(315,700,l),
(195,700,l)
);
}
);
width = 600;
}
);
unicode = 768;
}
{
glyphname = acutecomb;
layers = (
{
anchors = (
{
name = _top;
pos = (310,500);
},
{
name = top;
pos = (300,790);
}
);
layerId = m01;
shapes = (
{
closed = 1;
nodes = (
(330,700,l),
(240,520,l),
(310,520,l),
(400,700,l)
);
}
);
width = 600;
},
{
anchors = (
{
name = _top;
pos = (310,500);
},
{
name = top;
pos = (300,740);
}
);
layerId = m002;
shapes = (
{
closed = 1;
nodes = (
(285,700,l),
(195,520,l),
(315,520,l),
(405,700,l)
);
}
);
width = 600;
}
);
unicode = 769;
}
{
glyphname = circumflexcomb;
layers = (
{
anchors = (
{
name = _top;
pos = (300,500);
},
{
name = top;
pos = (300,720);
}
);
background = {
shapes = (
{
attr = {
strokeHeight = 60;
strokeWidth = 60;
};
closed = 0;
nodes = (
(122,572,l),
(300,750,l),
(478,572,l)
);
}
);
};
guides = (
{
pos = (300,610);
}
);
layerId = m01;
shapes = (
{
closed = 1;
nodes = (
(300,626,l),
(202,528,l),
(118,528,l),
(300,710,l),
(482,528,l),
(398,528,l)
);
}
);
width = 600;
},
{
anchors = (
{
name = _top;
pos = (300,500);
},
{
name = top;
pos = (300,770);
}
);
background = {
shapes = (
{
attr = {
strokeHeight = 120;
strokeWidth = 120;
};
closed = 0;
nodes = (
(122,532,l),
(300,710,l),
(478,532,l)
);
}
);
};
guides = (
{
pos = (300,610);
}
);
layerId = m002;
shapes = (
{
closed = 1;
nodes = (
(300,618,l),
(212,530,l),
(88,530,l),
(300,742,l),
(512,530,l),
(388,530,l)
);
}
);
width = 600;
}
);
unicode = 770;
}
{
color = 5;
glyphname = tildecomb;
layers = (
{
anchors = (
{
name = _top;
pos = (300,500);
},
{
name = top;
pos = (300,675);
}
);
layerId = m01;
shapes = (
{
closed = 1;
nodes = (
(420,614.021,o),
(405.963,591,o),
(370,591,c),
(334.508,591,o),
(294.508,661,o),
(230,661,c),
(162.433,661,o),
(130,597.32,o),
(130,545,c),
(180,545,l),
(180,581.88,o),
(195.167,611,o),
(230,611,c),
(265.492,611,o),
(305.492,541,o),
(370,541,c),
(437.037,541,o),
(470,596.979,o),
(470,656,c),
(420,656,l)
);
}
);
width = 600;
},
{
anchors = (
{
name = _top;
pos = (300,500);
},
{
name = top;
pos = (300,715);
}
);
layerId = m002;
shapes = (
{
closed = 1;
nodes = (
(420,665.802,o),
(397.277,635,o),
(370,635,c),
(336.744,635,o),
(306.2,705,o),
(230,705,c),
(154.4,705,o),
(90,617.741,o),
(90,549,c),
(180,549,l),
(180,578.459,o),
(204.182,615,o),
(230,615,c),
(263.256,615,o),
(293.8,545,o),
(370,545,c),
(445.2,545,o),
(510,625.798,o),
(510,700,c),
(420,700,l)
);
}
);
width = 600;
}
);
unicode = 771;
}
{
glyphname = macroncomb;
layers = (
{
anchors = (
{
name = _top;
pos = (300,500);
},
{
name = top;
pos = (300,650);
}
);
layerId = m01;
shapes = (
{
closed = 1;
nodes = (
(175,570,l),
(425,570,l),
(425,630,l),
(175,630,l)
);
}
);
width = 600;
},
{
anchors = (
{
name = _top;
pos = (300,500);
},
{
name = top;
pos = (300,700);
}
);
layerId = m002;
shapes = (
{
closed = 1;
nodes = (
(140,559,l),
(460,559,l),
(460,679,l),
(140,679,l)
);
}
);
width = 600;
}
);
unicode = 772;
}
{
color = 5;
glyphname = brevecomb;
layers = (
{
anchors = (
{
name = _top;
pos = (300,500);
},
{
name = top;
pos = (300,659);
}
);
layerId = m01;
shapes = (
{
closed = 1;
nodes = (
(375,605.355,o),
(344.645,575,o),
(300,575,c),
(255.355,575,o),
(225,605.355,o),
(225,650,c),
(175,650,l),
(175,581.045,o),
(231.045,525,o),
(300,525,c),
(368.955,525,o),
(425,581.045,o),
(425,650,c),
(375,650,l)
);
}
);
width = 600;
},
{
anchors = (
{
name = _top;
pos = (300,500);
},
{
name = top;
pos = (300,689);
}
);
layerId = m002;
shapes = (
{
closed = 1;
nodes = (
(385,644.85,o),
(354.497,619,o),
(300,619,c),
(246.292,619,o),
(215,645.077,o),
(215,684,c),
(125,684,l),
(125,596.723,o),
(207.508,529,o),
(300,529,c),
(393.703,529,o),
(475,596.95,o),
(475,684,c),
(385,684,l)
);
}
);
width = 600;
}
);
unicode = 774;
}
{
glyphname = dotaccentcomb;
layers = (
{
anchors = (
{
name = _top;
pos = (300,500);
},
{
name = top;
pos = (300,660);
}
);
layerId = m01;
shapes = (
{
closed = 1;
nodes = (
(328,550,o),
(350,572,o),
(350,600,cs),
(350,628,o),
(328,650,o),
(300,650,cs),
(272,650,o),
(250,628,o),
(250,600,cs),
(250,572,o),
(272,550,o),
(300,550,cs)
);
}
);
width = 600;
},
{
anchors = (
{
name = _top;
pos = (300,500);
},
{
name = top;
pos = (300,730);
}
);
layerId = m002;
shapes = (
{
closed = 1;
nodes = (
(345,550,o),
(380,585,o),
(380,630,cs),
(380,675,o),
(345,710,o),
(300,710,cs),
(255,710,o),
(220,675,o),
(220,630,cs),
(220,585,o),
(255,550,o),
(300,550,cs)
);
}
);
width = 600;
}
);
unicode = 775;
}
{
glyphname = dieresiscomb;
layers = (
{
anchors = (
{
name = _top;
pos = (300,500);
},
{
name = top;
pos = (300,670);
}
);
layerId = m01;
shapes = (
{
closed = 1;
nodes = (
(238,550,o),
(260,572,o),
(260,600,cs),
(260,628,o),
(238,650,o),
(210,650,cs),
(182,650,o),
(160,628,o),
(160,600,cs),
(160,572,o),
(182,550,o),
(210,550,cs)
);
},
{
closed = 1;
nodes = (
(418,550,o),
(440,572,o),
(440,600,cs),
(440,628,o),
(418,650,o),
(390,650,cs),
(362,650,o),
(340,628,o),
(340,600,cs),
(340,572,o),
(362,550,o),
(390,550,cs)
);
}
);
width = 600;
},
{
anchors = (
{
name = _top;
pos = (300,500);
},
{
name = top;
pos = (300,730);
}
);
layerId = m002;
shapes = (
{
closed = 1;
nodes = (
(205,550,o),
(240,585,o),
(240,630,cs),
(240,675,o),
(205,710,o),
(160,710,cs),
(115,710,o),
(80,675,o),
(80,630,cs),
(80,585,o),
(115,550,o),
(160,550,cs)
);
},
{
closed = 1;
nodes = (
(485,550,o),
(520,585,o),
(520,630,cs),
(520,675,o),
(485,710,o),
(440,710,cs),
(395,710,o),
(360,675,o),
(360,630,cs),
(360,585,o),
(395,550,o),
(440,550,cs)
);
}
);
width = 600;
}
);
unicode = 776;
}
{
glyphname = hookabovecomb;
layers = (
{
anchors = (
{
name = _top;
pos = (315,500);
},
{
name = top;
pos = (315,700);
}
);
guides = (
{
angle = -45;
pos = (342,607);
}
);
layerId = m01;
shapes = (
{
closed = 1;
nodes = (
(380.466,546.657,o),
(390,569.4,o),
(390,590,c),
(390,636.4,o),
(346.4,680,o),
(300,680,c),
(240,680,l),
(240,620,l),
(300,620,l),
(317.574,620,o),
(330,607.574,o),
(330,590,c),
(330,582.5,o),
(327.318,577.471,o),
(318.885,568.272,c),
(363.115,527.728,l)
);
}
);
width = 600;
},
{
anchors = (
{
name = _top;
pos = (325,500);
},
{
name = top;
pos = (325,740);
}
);
layerId = m002;
shapes = (
{
closed = 1;
nodes = (
(404.815,517.31,o),
(440,556,o),
(440,610,c),
(440,679.6,o),
(377.756,730,o),
(300,730,c),
(210,730,l),
(210,630,l),
(300,630,l),
(332.044,630,o),
(340,625.58,o),
(340,610,c),
(340,593.694,o),
(324.91,579.577,o),
(310.977,566.64,c),
(379.023,493.36,l)
);
}
);
width = 600;
}
);
unicode = 777;
}
{
glyphname = ringcomb;
layers = (
{
anchors = (
{
name = _top;
pos = (300,500);
},
{
name = top;
pos = (300,700);
}
);
layerId = m01;
shapes = (
{
attr = {
strokeHeight = 50;
strokeWidth = 50;
};
closed = 1;
nodes = (
(336,535,o),
(365,564,o),
(365,600,cs),
(365,636,o),
(336,665,o),
(300,665,cs),
(264,665,o),
(235,636,o),
(235,600,cs),
(235,564,o),
(264,535,o),
(300,535,cs)
);
}
);
width = 600;
},
{
anchors = (
{
name = _top;
pos = (300,500);
},
{
name = top;
pos = (300,755);
}
);
layerId = m002;
shapes = (
{
attr = {
strokeHeight = 70;
strokeWidth = 70;
};
closed = 1;
nodes = (
(344,546,o),
(380,582,o),
(380,626,cs),
(380,670,o),
(344,706,o),
(300,706,cs),
(256,706,o),
(220,670,o),
(220,626,cs),
(220,582,o),
(256,546,o),
(300,546,cs)
);
}
);
width = 600;
}
);
unicode = 778;
}
{
glyphname = hungarumlautcomb;
layers = (
{
anchors = (
{
name = _top;
pos = (300,500);
},
{
name = top;
pos = (300,730);
}
);
layerId = m01;
shapes = (
{
closed = 1;
nodes = (
(255,700,l),
(165,520,l),
(235,520,l),
(325,700,l)
);
},
{
closed = 1;
nodes = (
(405,700,l),
(315,520,l),
(385,520,l),
(475,700,l)
);
}
);
width = 600;
},
{
anchors = (
{
name = _top;
pos = (300,500);
},
{
name = top;
pos = (300,740);
}
);
layerId = m002;
shapes = (
{
closed = 1;
nodes = (
(235,700,l),
(145,520,l),
(245,520,l),
(335,700,l)
);
},
{
closed = 1;
nodes = (
(395,700,l),
(305,520,l),
(405,520,l),
(495,700,l)
);
}
);
width = 600;
}
);
unicode = 779;
}
{
glyphname = caroncomb;
layers = (
{
anchors = (
{
name = _top;
pos = (300,500);
},
{
name = top;
pos = (300,700);
}
);
layerId = m01;
shapes = (
{
closed = 1;
nodes = (
(482,700,l),
(300,518,l),
(118,700,l),
(202,700,l),
(300,602,l),
(398,700,l)
);
}
);
width = 600;
},
{
anchors = (
{
name = _top;
pos = (300,500);
},
{
name = top;
pos = (300,740);
}
);
layerId = m002;
shapes = (
{
closed = 1;
nodes = (
(512,732,l),
(300,520,l),
(88,732,l),
(212,732,l),
(300,644,l),
(388,732,l)
);
}
);
width = 600;
}
);
unicode = 780;
}
{
glyphname = candraBinducomb;
layers = (
{
layerId = m01;
shapes = (
{
ref = breve;
},
{
closed = 1;
nodes = (
(322,610,o),
(340,628,o),
(340,650,cs),
(340,672,o),
(322,690,o),
(300,690,cs),
(278,690,o),
(260,672,o),
(260,650,cs),
(260,628,o),
(278,610,o),
(300,610,cs)
);
}
);
width = 600;
},
{
layerId = m002;
shapes = (
{
ref = breve;
},
{
closed = 1;
nodes = (
(333,650,o),
(360,677,o),
(360,710,cs),
(360,743,o),
(333,770,o),
(300,770,cs),
(267,770,o),
(240,743,o),
(240,710,cs),
(240,677,o),
(267,650,o),
(300,650,cs)
);
}
);
width = 600;
}
);
unicode = 784;
}
{
glyphname = horncomb;
layers = (
{
anchors = (
{
name = _topright;
pos = (351,600);
},
{
name = topright;
pos = (501,700);
}
);
layerId = m01;
shapes = (
{
closed = 1;
nodes = (
(391,570,l),
(435.4,570,o),
(481,615.6,o),
(481,660,c),
(481,700,l),
(421,700,l),
(421,660,l),
(421,644.426,o),
(406.574,630,o),
(391,630,c),
(351,630,l),
(351,570,l)
);
}
);
width = 600;
},
{
anchors = (
{
name = _topright;
pos = (310,560);
},
{
name = topright;
pos = (537,700);
}
);
layerId = m002;
shapes = (
{
closed = 1;
nodes = (
(360,500,l),
(433.2,500,o),
(510,574.8,o),
(510,650,c),
(510,700,l),
(390,700,l),
(390,650,l),
(390,633.573,o),
(375.861,620,o),
(360,620,c),
(310,620,l),
(310,500,l)
);
}
);
width = 600;
}
);
unicode = 795;
}
{
glyphname = dotbelowcomb;
layers = (
{
anchors = (
{
name = _bottom;
pos = (300,0);
},
{
name = bottom;
pos = (300,-150);
}
);
layerId = m01;
shapes = (
{
closed = 1;
nodes = (
(328,-150,o),
(350,-128,o),
(350,-100,cs),
(350,-72,o),
(328,-50,o),
(300,-50,cs),
(272,-50,o),
(250,-72,o),
(250,-100,cs),
(250,-128,o),
(272,-150,o),
(300,-150,cs)
);
}
);
width = 600;
},
{
anchors = (
{
name = _bottom;
pos = (300,0);
},
{
name = bottom;
pos = (300,-160);
}
);
layerId = m002;
shapes = (
{
closed = 1;
nodes = (
(345,-210,o),
(380,-175,o),
(380,-130,cs),
(380,-85,o),
(345,-50,o),
(300,-50,cs),
(255,-50,o),
(220,-85,o),
(220,-130,cs),
(220,-175,o),
(255,-210,o),
(300,-210,cs)
);
}
);
width = 600;
}
);
unicode = 803;
}
{
glyphname = commaaccentcomb;
layers = (
{
anchors = (
{
name = _bottom;
pos = (285,0);
},
{
name = bottom;
pos = (285,-180);
}
);
layerId = m01;
shapes = (
{
closed = 1;
nodes = (
(187,-200,l),
(257,-200,l),
(337,-30,l),
(267,-30,l)
);
}
);
width = 600;
},
{
anchors = (
{
name = _bottom;
pos = (285,0);
},
{
name = bottom;
pos = (285,-180);
}
);
layerId = m002;
shapes = (
{
closed = 1;
nodes = (
(167,-200,l),
(277,-200,l),
(357,-30,l),
(247,-30,l)
);
}
);
width = 600;
}
);
unicode = 806;
}
{
glyphname = cedillacomb;
layers = (
{
anchors = (
{
name = _bottom;
pos = (297,0);
},
{
name = bottom;
pos = (297,-170);
}
);
background = {
shapes = (
{
attr = {
strokeHeight = 40;
strokeWidth = 40;
};
closed = 0;
nodes = (
(252,-87,l)
);
},
{
closed = 1;
nodes = (
(223,-91,l),
(270,-91,l),
(325,0,l),
(278,0,l)
);
},
{
attr = {
strokeHeight = 40;
strokeWidth = 40;
};
closed = 0;
nodes = (
(264,-135,l),
(273,-144,o),
(286,-150,o),
(300,-150,cs),
(328,-150,o),
(350,-128,o),
(350,-100,cs),
(350,-72,o),
(328,-50,o),
(300,-50,cs),
(277,-50,o),
(257,-65,o),
(252,-87,c)
);
}
);
};
layerId = m01;
shapes = (
{
closed = 1;
nodes = (
(223,-91,l),
(272,-91,l),
(275,-74,o),
(289,-70,o),
(300,-70,cs),
(320,-70,o),
(330,-80,o),
(330,-100,cs),
(330,-120,o),
(320,-130,o),
(300,-130,cs),
(290,-130,o),
(285,-127,o),
(278,-121,c),
(250,-149,l),
(262,-161,o),
(281,-170,o),
(300,-170,cs),
(339,-170,o),
(370,-139,o),
(370,-100,cs),
(370,-63,o),
(339,-35,o),
(304,-35,c),
(325,0,l),
(278,0,l)
);
}
);
width = 600;
},
{
anchors = (
{
name = _bottom;
pos = (297,0);
},
{
name = bottom;
pos = (300,-170);
}
);
background = {
shapes = (
{
attr = {
strokeHeight = 40;
strokeWidth = 40;
};
closed = 0;
nodes = (
(252,-87,l)
);
},
{
closed = 1;
nodes = (
(201,-101,l),
(270,-101,l),
(325,0,l),
(256,0,l)
);
},
{
attr = {
strokeHeight = 60;
strokeWidth = 60;
};
closed = 0;
nodes = (
(257,-152,l),
(267,-163,o),
(283,-170,o),
(300,-170,cs),
(333,-170,o),
(360,-144,o),
(360,-110,cs),
(360,-76,o),
(333,-50,o),
(300,-50,cs),
(272,-50,o),
(248,-68,o),
(242,-94,c)
);
}
);
};
layerId = m002;
shapes = (
{
closed = 1;
nodes = (
(201,-101,l),
(270,-101,l),
(275,-86,o),
(289,-80,o),
(300,-80,cs),
(318,-80,o),
(330,-94,o),
(330,-111,cs),
(330,-128,o),
(316,-140,o),
(300,-140,cs),
(290,-140,o),
(286,-138,o),
(279,-132,c),
(235,-172,l),
(247,-184,o),
(271,-200,o),
(300,-200,cs),
(357,-200,o),
(390,-161,o),
(390,-112,cs),
(390,-56,o),
(357,-23,o),
(315,-21,c),
(325,0,l),
(258,0,l)
);
}
);
width = 600;
}
);
unicode = 807;
}
{
glyphname = ogonekcomb;
layers = (
{
anchors = (
{
name = _ogonek;
pos = (300,0);
}
);
layerId = m01;
shapes = (
{
closed = 1;
nodes = (
(300,-137,l),
(277.355,-137,o),
(265,-124.645,o),
(265,-102,c),
(265,-76.207,o),
(325,-49,o),
(325,0,c),
(275,0,l),
(275,-27.793,o),
(215,-50,o),
(215,-102,c),
(215,-148.955,o),
(253.045,-187,o),
(300,-187,c),
(350,-187,l),
(350,-137,l)
);
}
);
width = 600;
},
{
anchors = (
{
name = _ogonek;
pos = (300,0);
}
);
layerId = m002;
shapes = (
{
closed = 1;
nodes = (
(300,-132,l),
(280.043,-132,o),
(270,-124.671,o),
(270,-112,c),
(270,-92.718,o),
(340,-70.8,o),
(340,0,c),
(260,0,l),
(260,-26.282,o),
(190,-53,o),
(190,-112,c),
(190,-166.6,o),
(243.557,-212,o),
(300,-212,c),
(350,-212,l),
(350,-132,l)
);
}
);
width = 600;
}
);
unicode = 808;
}
{
glyphname = dieresistonos;
layers = (
{
anchors = (
{
name = _top;
pos = (300,500);
},
{
name = top;
pos = (300,700);
}
);
layerId = m01;
shapes = (
{
closed = 1;
nodes = (
(208,550,o),
(230,572,o),
(230,600,cs),
(230,628,o),
(208,650,o),
(180,650,cs),
(152,650,o),
(130,628,o),
(130,600,cs),
(130,572,o),
(152,550,o),
(180,550,cs)
);
},
{
closed = 1;
nodes = (
(448,550,o),
(470,572,o),
(470,600,cs),
(470,628,o),
(448,650,o),
(420,650,cs),
(392,650,o),
(370,628,o),
(370,600,cs),
(370,572,o),
(392,550,o),
(420,550,cs)
);
},
{
pos = (-17,0);
ref = tonos;
}
);
width = 600;
},
{
anchors = (
{
name = _top;
pos = (300,500);
},
{
name = top;
pos = (300,700);
}
);
layerId = m002;
shapes = (
{
closed = 1;
nodes = (
(170,550,o),
(205,585,o),
(205,630,cs),
(205,675,o),
(170,710,o),
(125,710,cs),
(80,710,o),
(45,675,o),
(45,630,cs),
(45,585,o),
(80,550,o),
(125,550,cs)
);
},
{
closed = 1;
nodes = (
(520,550,o),
(555,585,o),
(555,630,cs),
(555,675,o),
(520,710,o),
(475,710,cs),
(430,710,o),
(395,675,o),
(395,630,cs),
(395,585,o),
(430,550,o),
(475,550,cs)
);
},
{
pos = (-7,0);
ref = tonos;
}
);
width = 600;
}
);
unicode = 901;
}
{
glyphname = Gamma;
layers = (
{
layerId = m01;
shapes = (
{
closed = 1;
nodes = (
(140,700,l),
(80,700,l),
(80,0,l),
(140,0,l)
);
},
{
closed = 1;
nodes = (
(140,700,l),
(140,640,l),
(560,640,l),
(560,700,l)
);
}
);
width = 640;
},
{
layerId = m002;
shapes = (
{
closed = 1;
nodes = (
(200,700,l),
(80,700,l),
(80,0,l),
(200,0,l)
);
},
{
closed = 1;
nodes = (
(170,700,l),
(170,580,l),
(590,580,l),
(590,700,l)
);
}
);
width = 670;
}
);
unicode = 915;
}
{
glyphname = Theta;
layers = (
{
anchors = (
{
name = top;
pos = (400,810);
}
);
layerId = m01;
shapes = (
{
ref = O;
},
{
closed = 1;
nodes = (
(180,320,l),
(620,320,l),
(620,380,l),
(180,380,l)
);
}
);
width = 800;
},
{
anchors = (
{
name = top;
pos = (400,810);
}
);
layerId = m002;
shapes = (
{
ref = O;
},
{
closed = 1;
nodes = (
(220,290,l),
(580,290,l),
(580,410,l),
(220,410,l)
);
}
);
width = 800;
}
);
unicode = 920;
}
{
glyphname = Iota;
layers = (
{
anchors = (
{
name = top;
pos = (70,660);
},
{
name = topleft;
pos = (41,700);
}
);
layerId = m01;
shapes = (
{
closed = 1;
nodes = (
(130,60,l),
(112.426,60,o),
(100,72.426,o),
(100,90,c),
(100,700,l),
(40,700,l),
(40,90,l),
(40,43.6,o),
(83.6,0,o),
(130,0,c),
(160,0,l),
(160,60,l)
);
}
);
width = 200;
},
{
anchors = (
{
name = top;
pos = (100,660);
},
{
name = topleft;
pos = (41,700);
}
);
layerId = m002;
shapes = (
{
closed = 1;
nodes = (
(190,120,l),
(164.853,120,o),
(160,124.853,o),
(160,150,c),
(160,700,l),
(40,700,l),
(40,150,l),
(40,67,o),
(107,0,o),
(190,0,c),
(210,0,l),
(210,120,l)
);
}
);
width = 230;
}
);
unicode = 921;
}
{
glyphname = Lambda;
layers = (
{
background = {
shapes = (
{
attr = {
strokeHeight = 60;
strokeWidth = 60;
};
closed = 0;
nodes = (
(48,-11,l),
(291,634,l),
(552,-11,l)
);
}
);
};
guides = (
{
angle = 90;
pos = (580,0);
},
{
angle = 90;
pos = (20,0);
}
);
layerId = m01;
shapes = (
{
ref = Vturned;
}
);
width = 600;
},
{
background = {
shapes = (
{
attr = {
strokeHeight = 60;
strokeWidth = 60;
};
closed = 0;
nodes = (
(48,-11,l),
(291,634,l),
(552,-11,l)
);
}
);
};
guides = (
{
angle = 90;
pos = (580,0);
},
{
angle = 90;
pos = (20,0);
}
);
layerId = m002;
shapes = (
{
ref = Vturned;
}
);
width = 666;
}
);
unicode = 923;
}
{
glyphname = Xi;
layers = (
{
anchors = (
{
name = bottom;
pos = (314,0);
},
{
name = ogonek;
pos = (554,10);
},
{
name = top;
pos = (314,671);
},
{
name = topleft;
pos = (34,700);
}
);
layerId = m01;
shapes = (
{
closed = 1;
nodes = (
(144,380,l),
(144,320,l),
(484,320,l),
(484,380,l)
);
},
{
closed = 1;
nodes = (
(80,60,l),
(80,0,l),
(548,0,l),
(548,60,l)
);
},
{
closed = 1;
nodes = (
(80,700,l),
(80,640,l),
(548,640,l),
(548,700,l)
);
}
);
width = 628;
},
{
anchors = (
{
name = bottom;
pos = (314,0);
},
{
name = ogonek;
pos = (554,10);
},
{
name = top;
pos = (314,671);
},
{
name = topleft;
pos = (34,700);
}
);
layerId = m002;
shapes = (
{
closed = 1;
nodes = (
(144,410,l),
(144,290,l),
(484,290,l),
(484,410,l)
);
},
{
closed = 1;
nodes = (
(80,120,l),
(80,0,l),
(548,0,l),
(548,120,l)
);
},
{
closed = 1;
nodes = (
(80,700,l),
(80,580,l),
(548,580,l),
(548,700,l)
);
}
);
width = 628;
}
);
unicode = 926;
}
{
glyphname = Pi;
layers = (
{
anchors = (
{
name = bottom;
pos = (320,0);
},
{
name = center;
pos = (300,350);
},
{
name = top;
pos = (320,660);
},
{
name = topleft;
pos = (20,700);
}
);
layerId = m01;
shapes = (
{
closed = 1;
nodes = (
(140,700,l),
(80,700,l),
(80,0,l),
(140,0,l)
);
},
{
closed = 1;
nodes = (
(110,700,l),
(110,640,l),
(530,640,l),
(530,700,l)
);
},
{
closed = 1;
nodes = (
(560,700,l),
(500,700,l),
(500,0,l),
(560,0,l)
);
}
);
width = 640;
},
{
anchors = (
{
name = bottom;
pos = (350,0);
},
{
name = center;
pos = (330,350);
},
{
name = top;
pos = (350,660);
},
{
name = topleft;
pos = (50,700);
}
);
layerId = m002;
shapes = (
{
closed = 1;
nodes = (
(200,700,l),
(80,700,l),
(80,0,l),
(200,0,l)
);
},
{
closed = 1;
nodes = (
(140,700,l),
(140,580,l),
(560,580,l),
(560,700,l)
);
},
{
closed = 1;
nodes = (
(620,700,l),
(500,700,l),
(500,0,l),
(620,0,l)
);
}
);
width = 700;
}
);
unicode = 928;
}
{
glyphname = Upsilon;
layers = (
{
anchors = (
{
name = top;
pos = (320,660);
},
{
name = topleft;
pos = (-48,500);
}
);
background = {
shapes = (
{
attr = {
strokeHeight = 60;
strokeWidth = 60;
};
closed = 0;
nodes = (
(44,718,l),
(320,340,l),
(596,718,l)
);
}
);
};
guides = (
{
angle = 90;
pos = (20,0);
},
{
angle = 90;
pos = (620,0);
}
);
layerId = m01;
shapes = (
{
ref = Y;
}
);
width = 640;
},
{
anchors = (
{
name = top;
pos = (356,670);
},
{
name = topleft;
pos = (-48,500);
}
);
background = {
shapes = (
{
attr = {
strokeHeight = 60;
strokeWidth = 60;
};
closed = 0;
nodes = (
(44,718,l),
(320,340,l),
(596,718,l)
);
}
);
};
guides = (
{
angle = 90;
pos = (20,0);
},
{
angle = 90;
pos = (620,0);
}
);
layerId = m002;
shapes = (
{
ref = Y;
}
);
width = 712;
}
);
unicode = 933;
}
{
glyphname = beta;
layers = (
{
layerId = m01;
shapes = (
{
closed = 1;
nodes = (
(260,-13,l),
(375,-13,o),
(470,82,o),
(470,197,c),
(470,275,o),
(427,343,o),
(364,380,c),
(410,412,o),
(440,466,o),
(440,527,c),
(440,626,o),
(359,707,o),
(260,707,c),
(161,707,o),
(80,626,o),
(80,527,c),
(80,-200,l),
(140,-200,l),
(140,527,l),
(140,598,o),
(189,647,o),
(260,647,c),
(331,647,o),
(380,598,o),
(380,527,c),
(380,456,o),
(331,406,o),
(260,407,c),
(140,407,l),
(140,347,l),
(260,347,l),
(347,348,o),
(410,284,o),
(410,197,c),
(410,110,o),
(347,47,o),
(260,47,c),
(140,47,l),
(140,-13,l)
);
}
);
width = 530;
},
{
layerId = m002;
shapes = (
{
closed = 1;
nodes = (
(310,-13,l),
(439.149,-13,o),
(550,73,o),
(550,202,c),
(550,276,o),
(514,336,o),
(461,375,c),
(497,410,o),
(520,456,o),
(520,507,c),
(520,626,o),
(414,717,o),
(300,717,c),
(186,717,o),
(80,626,o),
(80,507,c),
(80,-200,l),
(200,-200,l),
(200,507,l),
(200,563,o),
(239,597,o),
(300,597,c),
(361,597,o),
(400,563,o),
(400,507,c),
(400,457,o),
(361,426,o),
(301,427,c),
(200,427,l),
(200,307,l),
(301,307,l),
(380,308,o),
(430,271,o),
(430,202,c),
(430,132,o),
(387.651,107,o),
(310,107,c),
(200,107,l),
(200,-13,l)
);
}
);
width = 600;
}
);
unicode = 946;
}
{
glyphname = eta;
layers = (
{
anchors = (
{
name = top;
pos = (310,510);
}
);
layerId = m01;
shapes = (
{
closed = 1;
nodes = (
(90,0,l),
(150,0,l),
(150,301,ls),
(150,381,o),
(220,450,o),
(303,450,cs),
(390,450,o),
(449,387,o),
(449,300,cs),
(449,-200,l),
(510,-200,l),
(510,300,ls),
(510,415,o),
(418,510,o),
(303,510,cs),
(245,510,o),
(168,476,o),
(150,426,c),
(150,500,l),
(90,500,l),
(90,301,l)
);
}
);
width = 600;
},
{
anchors = (
{
name = top;
pos = (328,510);
}
);
layerId = m002;
shapes = (
{
closed = 1;
nodes = (
(80,0,l),
(201,0,l),
(201,301,ls),
(201,344,o),
(241,391,o),
(308,391,cs),
(373,391,o),
(416,351,o),
(416,300,cs),
(416,-200,l),
(535,-200,l),
(535,300,ls),
(535,415,o),
(431,510,o),
(321,510,cs),
(258,510,o),
(224,495,o),
(201,476,c),
(201,500,l),
(80,500,l),
(80,301,l)
);
}
);
width = 615;
}
);
unicode = 951;
}
{
glyphname = theta;
layers = (
{
layerId = m01;
shapes = (
{
alignment = -1;
ref = zero;
},
{
closed = 1;
nodes = (
(100,380,l),
(100,320,l),
(480,320,l),
(480,380,l)
);
}
);
width = 580;
},
{
layerId = m002;
shapes = (
{
ref = zero;
},
{
closed = 1;
nodes = (
(120,410,l),
(120,290,l),
(480,290,l),
(480,410,l)
);
}
);
width = 600;
}
);
unicode = 952;
}
{
glyphname = iota;
layers = (
{
anchors = (
{
name = bottom;
pos = (100,0);
},
{
name = top;
pos = (70,500);
}
);
layerId = m01;
shapes = (
{
closed = 1;
nodes = (
(130,60,l),
(112.426,60,o),
(100,72.426,o),
(100,90,c),
(100,500,l),
(40,500,l),
(40,90,l),
(40,43.6,o),
(83.6,0,o),
(130,0,c),
(160,0,l),
(160,60,l)
);
}
);
width = 200;
},
{
anchors = (
{
name = bottom;
pos = (100,0);
},
{
name = top;
pos = (100,510);
}
);
layerId = m002;
shapes = (
{
closed = 1;
nodes = (
(190,120,l),
(164.853,120,o),
(160,124.853,o),
(160,150,c),
(160,500,l),
(40,500,l),
(40,150,l),
(40,67,o),
(107,0,o),
(190,0,c),
(210,0,l),
(210,120,l)
);
}
);
width = 230;
}
);
unicode = 953;
}
{
glyphname = pi;
layers = (
{
layerId = m01;
shapes = (
{
closed = 1;
nodes = (
(75,500,l),
(75,440,l),
(525,440,l),
(525,500,l)
);
},
{
closed = 1;
nodes = (
(210,470,l),
(150,470,l),
(150,0,l),
(210,0,l)
);
},
{
closed = 1;
nodes = (
(475,60,l),
(459.426,60,o),
(445,74.426,o),
(445,90,c),
(445,470,l),
(385,470,l),
(385,90,l),
(385,45.6,o),
(430.6,0,o),
(475,0,c),
(515,0,l),
(515,60,l)
);
}
);
width = 600;
},
{
layerId = m002;
shapes = (
{
closed = 1;
nodes = (
(60,500,l),
(60,380,l),
(540,380,l),
(540,500,l)
);
},
{
closed = 1;
nodes = (
(240,470,l),
(120,470,l),
(120,0,l),
(240,0,l)
);
},
{
closed = 1;
nodes = (
(510,120,l),
(493.491,120,o),
(480,133.216,o),
(480,150,c),
(480,470,l),
(360,470,l),
(360,150,l),
(360,74.8,o),
(435.8,0,o),
(510,0,c),
(530,0,l),
(530,120,l)
);
}
);
width = 600;
}
);
unicode = 960;
}
{
glyphname = tau;
layers = (
{
layerId = m01;
shapes = (
{
closed = 1;
nodes = (
(70,500,l),
(70,440,l),
(480,440,l),
(480,500,l)
);
},
{
closed = 1;
nodes = (
(330,60,l),
(314,60,o),
(300,74,o),
(300,90,c),
(300,470,l),
(240,470,l),
(240,90,l),
(240,46,o),
(286,0,o),
(330,0,c),
(390,0,l),
(390,60,l)
);
}
);
width = 550;
},
{
layerId = m002;
shapes = (
{
closed = 1;
nodes = (
(70,500,l),
(70,380,l),
(510,380,l),
(510,500,l)
);
},
{
closed = 1;
nodes = (
(370,120,l),
(353,120,o),
(340,133,o),
(340,150,c),
(340,470,l),
(220,470,l),
(220,150,l),
(220,75,o),
(296,0,o),
(370,0,c),
(410,0,l),
(410,120,l)
);
}
);
width = 580;
}
);
unicode = 964;
}
{
glyphname = "Be-cy";
layers = (
{
layerId = m01;
shapes = (
{
pos = (0,700);
ref = P;
scale = (1,-1);
},
{
closed = 1;
nodes = (
(110,700,l),
(110,640,l),
(480,640,l),
(480,700,l)
);
}
);
width = 600;
},
{
layerId = m002;
shapes = (
{
pos = (0,700);
ref = P;
scale = (1,-1);
},
{
closed = 1;
nodes = (
(140,700,l),
(140,580,l),
(540,580,l),
(540,700,l)
);
}
);
width = 630;
}
);
unicode = 1041;
}
{
glyphname = "Zhe-cy";
layers = (
{
layerId = m01;
shapes = (
{
closed = 1;
nodes = (
(522,700,l),
(522,380,l),
(484,380,l),
(164,700,l),
(80,700,l),
(430,350,l),
(80,0,l),
(164,0,l),
(484,320,l),
(522,320,l),
(522,0,l),
(582,0,l),
(582,320,l),
(620,320,l),
(940,0,l),
(1024,0,l),
(674,350,l),
(1024,700,l),
(940,700,l),
(620,380,l),
(582,380,l),
(582,700,l)
);
}
);
width = 1104;
},
{
layerId = m002;
shapes = (
{
closed = 1;
nodes = (
(545,700,l),
(545,410,l),
(510,410,l),
(220,700,l),
(50,700,l),
(400,350,l),
(50,0,l),
(220,0,l),
(510,290,l),
(545,290,l),
(545,0,l),
(665,0,l),
(665,290,l),
(700,290,l),
(990,0,l),
(1160,0,l),
(810,350,l),
(1160,700,l),
(990,700,l),
(700,410,l),
(665,410,l),
(665,700,l)
);
}
);
width = 1210;
}
);
unicode = 1046;
}
{
glyphname = "Tse-cy";
layers = (
{
layerId = m01;
shapes = (
{
closed = 1;
nodes = (
(710,60,l),
(560,60,l),
(80,60,l),
(80,0,l),
(560,0,l),
(650,0,l),
(650,-91,l),
(710,-91,l)
);
},
{
closed = 1;
nodes = (
(80,30,l),
(140,30,l),
(140,700,l),
(80,700,l)
);
},
{
closed = 1;
nodes = (
(530,30,l),
(590,30,l),
(590,700,l),
(530,700,l)
);
}
);
width = 730;
},
{
layerId = m002;
shapes = (
{
closed = 1;
nodes = (
(780,120,l),
(540,120,l),
(80,120,l),
(80,0,l),
(540,0,l),
(660,0,l),
(660,-120,l),
(780,-120,l)
);
},
{
closed = 1;
nodes = (
(80,30,l),
(200,30,l),
(200,700,l),
(80,700,l)
);
},
{
closed = 1;
nodes = (
(480,30,l),
(600,30,l),
(600,700,l),
(480,700,l)
);
}
);
width = 800;
}
);
unicode = 1062;
}
{
glyphname = "Sha-cy";
layers = (
{
layerId = m01;
shapes = (
{
closed = 1;
nodes = (
(80,60,l),
(80,0,l),
(720,0,l),
(720,60,l)
);
},
{
closed = 1;
nodes = (
(370,30,l),
(430,30,l),
(430,700,l),
(370,700,l)
);
},
{
closed = 1;
nodes = (
(660,30,l),
(720,30,l),
(720,700,l),
(660,700,l)
);
},
{
closed = 1;
nodes = (
(80,30,l),
(140,30,l),
(140,700,l),
(80,700,l)
);
}
);
width = 800;
},
{
layerId = m002;
shapes = (
{
closed = 1;
nodes = (
(80,120,l),
(80,0,l),
(780,0,l),
(780,120,l)
);
},
{
closed = 1;
nodes = (
(370,30,l),
(490,30,l),
(490,700,l),
(370,700,l)
);
},
{
closed = 1;
nodes = (
(660,30,l),
(780,30,l),
(780,700,l),
(660,700,l)
);
},
{
closed = 1;
nodes = (
(80,30,l),
(200,30,l),
(200,700,l),
(80,700,l)
);
}
);
width = 860;
}
);
unicode = 1064;
}
{
glyphname = "Shcha-cy";
layers = (
{
layerId = m01;
shapes = (
{
closed = 1;
nodes = (
(840,60,l),
(690,60,l),
(80,60,l),
(80,0,l),
(690,0,l),
(780,0,l),
(780,-91,l),
(840,-91,l)
);
},
{
closed = 1;
nodes = (
(370,30,l),
(430,30,l),
(430,700,l),
(370,700,l)
);
},
{
closed = 1;
nodes = (
(660,30,l),
(720,30,l),
(720,700,l),
(660,700,l)
);
},
{
closed = 1;
nodes = (
(80,30,l),
(140,30,l),
(140,700,l),
(80,700,l)
);
}
);
width = 860;
},
{
layerId = m002;
shapes = (
{
closed = 1;
nodes = (
(960,120,l),
(720,120,l),
(80,120,l),
(80,0,l),
(720,0,l),
(840,0,l),
(840,-120,l),
(960,-120,l)
);
},
{
closed = 1;
nodes = (
(370,30,l),
(490,30,l),
(490,700,l),
(370,700,l)
);
},
{
closed = 1;
nodes = (
(660,30,l),
(780,30,l),
(780,700,l),
(660,700,l)
);
},
{
closed = 1;
nodes = (
(80,30,l),
(200,30,l),
(200,700,l),
(80,700,l)
);
}
);
width = 980;
}
);
unicode = 1065;
}
{
glyphname = "Hardsign-cy";
layers = (
{
layerId = m01;
shapes = (
{
closed = 1;
nodes = (
(360,0,l),
(475.426,0,o),
(570,94.574,o),
(570,210,c),
(570,325.426,o),
(475.426,420,o),
(360,420,c),
(170,420,l),
(170,360,l),
(360,360,l),
(446.574,360,o),
(510,296.574,o),
(510,210,c),
(510,123.426,o),
(446.574,60,o),
(360,60,c),
(170,60,l),
(170,0,l)
);
},
{
closed = 1;
nodes = (
(110,640,l),
(110,0,l),
(170,0,l),
(170,700,l),
(20,700,l),
(20,640,l)
);
}
);
width = 630;
},
{
layerId = m002;
shapes = (
{
closed = 1;
nodes = (
(420,0,l),
(549.149,0,o),
(660,90.293,o),
(660,225,c),
(660,359.707,o),
(549.149,450,o),
(420,450,c),
(230,450,l),
(230,330,l),
(420,330,l),
(497.651,330,o),
(540,295.493,o),
(540,225,c),
(540,154.507,o),
(497.651,120,o),
(420,120,c),
(230,120,l),
(230,0,l)
);
},
{
closed = 1;
nodes = (
(140,580,l),
(140,0,l),
(260,0,l),
(260,700,l),
(20,700,l),
(20,580,l)
);
}
);
width = 690;
}
);
unicode = 1066;
}
{
glyphname = "zhe-cy";
layers = (
{
layerId = m01;
shapes = (
{
closed = 1;
nodes = (
(473,0,l),
(473,220,l),
(492,220,l),
(712,0,l),
(796,0,l),
(545,251,l),
(795,500,l),
(711,500,l),
(491,280,l),
(473,280,l),
(473,500,l),
(413,500,l),
(413,280,l),
(395,280,l),
(175,500,l),
(91,500,l),
(341,251,l),
(90,0,l),
(174,0,l),
(394,220,l),
(413,220,l),
(413,0,l)
);
}
);
width = 886;
},
{
layerId = m002;
shapes = (
{
closed = 1;
nodes = (
(586,0,l),
(586,190,l),
(612,190,l),
(802,0,l),
(972,0,l),
(721,251,l),
(971,500,l),
(801,500,l),
(611,310,l),
(586,310,l),
(586,500,l),
(466,500,l),
(466,310,l),
(441,310,l),
(251,500,l),
(81,500,l),
(331,251,l),
(80,0,l),
(250,0,l),
(440,190,l),
(466,190,l),
(466,0,l)
);
}
);
width = 1052;
}
);
unicode = 1078;
}
{
glyphname = "ii-cy";
layers = (
{
background = {
shapes = (
{
attr = {
strokeHeight = 60;
strokeWidth = 60;
};
closed = 0;
nodes = (
(110,500,l),
(110,57,l),
(490,443,l),
(490,0,l)
);
}
);
};
layerId = m01;
shapes = (
{
closed = 1;
nodes = (
(520,516.236,l),
(140,130.236,l),
(140,500,l),
(80,500,l),
(80,-16.236,l),
(460,369.764,l),
(460,0,l),
(520,0,l)
);
}
);
width = 600;
},
{
background = {
shapes = (
{
attr = {
strokeHeight = 120;
strokeWidth = 120;
};
closed = 0;
nodes = (
(140,500,l),
(140,113,l),
(460,387,l),
(460,0,l)
);
}
);
};
layerId = m002;
shapes = (
{
closed = 1;
nodes = (
(520,516,l),
(200,243,l),
(200,500,l),
(80,500,l),
(80,-16,l),
(400,257,l),
(400,0,l),
(520,0,l)
);
}
);
width = 600;
}
);
unicode = 1080;
}
{
glyphname = "ka-cy";
layers = (
{
anchors = (
{
name = bottom;
pos = (272,30);
},
{
name = top;
pos = (300,692);
}
);
layerId = m01;
shapes = (
{
closed = 1;
nodes = (
(150,500,l),
(90,500,l),
(90,0,l),
(150,0,l)
);
},
{
closed = 1;
nodes = (
(472,500,l),
(388,500,l),
(160,272,l),
(202,230,l)
);
},
{
closed = 1;
nodes = (
(389,0,l),
(473,0,l),
(204,269,l),
(162,227,l)
);
},
{
closed = 1;
nodes = (
(100,220,l),
(220,220,l),
(220,280,l),
(100,280,l)
);
}
);
width = 543;
},
{
anchors = (
{
name = bottom;
pos = (302,10);
},
{
name = top;
pos = (313,715);
}
);
layerId = m002;
shapes = (
{
closed = 1;
nodes = (
(200,500,l),
(80,500,l),
(80,0,l),
(200,0,l)
);
},
{
closed = 1;
nodes = (
(585,500,l),
(415,500,l),
(187,272,l),
(315,230,l)
);
},
{
closed = 1;
nodes = (
(416,0,l),
(586,0,l),
(317,269,l),
(189,227,l)
);
},
{
closed = 1;
nodes = (
(150,190,l),
(330,190,l),
(330,310,l),
(150,310,l)
);
}
);
width = 616;
}
);
unicode = 1082;
}
{
glyphname = "We-cy";
layers = (
{
anchors = (
{
name = bottom;
pos = (500,0);
},
{
name = top;
pos = (500,650);
}
);
background = {
shapes = (
{
attr = {
strokeHeight = 60;
strokeWidth = 60;
};
closed = 0;
nodes = (
(75,725,l),
(265,74,l),
(500,637,l),
(735,74,l),
(925,725,l)
);
}
);
};
layerId = m01;
shapes = (
{
ref = W;
}
);
width = 938;
},
{
anchors = (
{
name = bottom;
pos = (500,0);
},
{
name = top;
pos = (500,650);
}
);
background = {
shapes = (
{
attr = {
strokeHeight = 60;
strokeWidth = 60;
};
closed = 0;
nodes = (
(75,725,l),
(265,74,l),
(500,637,l),
(735,74,l),
(925,725,l)
);
}
);
};
layerId = m002;
shapes = (
{
ref = W;
}
);
width = 1054;
}
);
unicode = 1308;
}
{
glyphname = "we-cy";
layers = (
{
background = {
shapes = (
{
attr = {
strokeHeight = 60;
strokeWidth = 60;
};
closed = 0;
nodes = (
(49,507,l),
(170,76,l),
(320,438,l),
(470,76,l),
(591,507,l)
);
}
);
};
guides = (
{
angle = 90;
pos = (20,0);
},
{
angle = 90;
pos = (620,0);
}
);
layerId = m01;
shapes = (
{
ref = w;
}
);
width = 680;
},
{
background = {
shapes = (
{
attr = {
strokeHeight = 60;
strokeWidth = 60;
};
closed = 0;
nodes = (
(49,507,l),
(170,76,l),
(320,438,l),
(470,76,l),
(591,507,l)
);
}
);
};
guides = (
{
angle = 90;
pos = (20,0);
},
{
angle = 90;
pos = (620,0);
}
);
layerId = m002;
shapes = (
{
ref = w;
}
);
width = 746;
}
);
unicode = 1309;
}
{
export = 0;
glyphname = "hamza-ar";
layers = (
{
layerId = m01;
shapes = (
{
attr = {
strokeHeight = 60;
strokeWidth = 60;
};
closed = 0;
nodes = (
(448,355,l),
(311,380,o),
(201,311,o),
(203,236,cs),
(205,148,o),
(350,95,o),
(459,128,c),
(350,95,o),
(214,86,o),
(126,86,cs)
);
}
);
width = 600;
},
{
layerId = m002;
width = 600;
}
);
unicode = 1569;
}
{
glyphname = Germandbls;
layers = (
{
background = {
shapes = (
{
attr = {
strokeHeight = 60;
strokeWidth = 60;
};
closed = 0;
nodes = (
(110,0,l),
(110,670,l),
(485,670,l),
(223,305,l)
);
},
{
attr = {
strokeWidth = 60;
};
closed = 0;
nodes = (
(232,89,l),
(266,48,o),
(316,22,o),
(372,22,cs),
(471,22,o),
(552,103,o),
(552,202,cs),
(552,301,o),
(471,382,o),
(372,382,cs),
(309,382,o),
(255,355,o),
(223,306,c)
);
}
);
};
layerId = m01;
shapes = (
{
closed = 1;
nodes = (
(284,336,o),
(322,352,o),
(372,352,cs),
(459,352,o),
(522,289,o),
(522,202,cs),
(522,115,o),
(459,52,o),
(372,52,cs),
(323,52,o),
(285,72,o),
(255,108,c),
(209,70,l),
(248,23,o),
(307,-8,o),
(372,-8,cs),
(487,-8,o),
(582,87,o),
(582,202,cs),
(582,317,o),
(487,412,o),
(372,412,cs),
(359,412,o),
(346,411,o),
(334,409,c),
(543,700,l),
(80,700,l),
(80,0,l),
(140,0,l),
(140,640,l),
(427,640,l),
(198,322,l),
(247,288,l)
);
}
);
width = 622;
},
{
background = {
shapes = (
{
attr = {
strokeHeight = 120;
strokeWidth = 120;
};
closed = 0;
nodes = (
(140,0,l),
(140,640,l),
(555,640,l),
(323,305,l)
);
},
{
attr = {
strokeHeight = 120;
strokeWidth = 120;
};
closed = 0;
nodes = (
(329,112,l),
(359,76,o),
(403,53,o),
(453,53,cs),
(540,53,o),
(612,124,o),
(612,212,cs),
(612,300,o),
(540,371,o),
(453,371,cs),
(397,371,o),
(349,348,o),
(321,304,c)
);
}
);
};
layerId = m002;
shapes = (
{
closed = 1;
nodes = (
(371,305,o),
(390,311,o),
(423,311,cs),
(485,311,o),
(522,275,o),
(522,212,cs),
(522,149,o),
(485,113,o),
(423,113,cs),
(388,113,o),
(367,124,o),
(345,150,c),
(253,74,l),
(293,25,o),
(354,-7,o),
(423,-7,cs),
(543,-7,o),
(642,91,o),
(642,212,cs),
(642,310,o),
(577,393,o),
(489,421,cs),
(477,424,o),
(465,427,o),
(452,429,c),
(640,700,l),
(80,700,l),
(80,0,l),
(200,0,l),
(200,580,l),
(410,580,l),
(240,336,l),
(342,271,l)
);
}
);
width = 682;
}
);
unicode = 7838;
}
{
glyphname = endash;
layers = (
{
layerId = m01;
shapes = (
{
closed = 1;
nodes = (
(0,280,l),
(0,220,l),
(320,220,l),
(320,280,l)
);
}
);
width = 320;
},
{
layerId = m002;
shapes = (
{
closed = 1;
nodes = (
(0,310,l),
(0,190,l),
(400,190,l),
(400,310,l)
);
}
);
width = 400;
}
);
unicode = 8211;
}
{
glyphname = emdash;
layers = (
{
layerId = m01;
shapes = (
{
closed = 1;
nodes = (
(0,280,l),
(0,220,l),
(500,220,l),
(500,280,l)
);
}
);
width = 500;
},
{
layerId = m002;
shapes = (
{
closed = 1;
nodes = (
(0,310,l),
(0,190,l),
(550,190,l),
(550,310,l)
);
}
);
width = 550;
}
);
unicode = 8212;
}
{
glyphname = dagger;
layers = (
{
layerId = m01;
shapes = (
{
closed = 1;
nodes = (
(290,760,l),
(230,760,l),
(230,320,l),
(290,320,l)
);
},
{
closed = 1;
nodes = (
(80,610,l),
(80,550,l),
(440,550,l),
(440,610,l)
);
}
);
width = 520;
},
{
layerId = m002;
shapes = (
{
closed = 1;
nodes = (
(320,760,l),
(200,760,l),
(200,260,l),
(320,260,l)
);
},
{
closed = 1;
nodes = (
(60,620,l),
(60,500,l),
(460,500,l),
(460,620,l)
);
}
);
width = 520;
}
);
unicode = 8224;
}
{
glyphname = bullet;
layers = (
{
layerId = m01;
shapes = (
{
closed = 1;
nodes = (
(189,230,o),
(220,261,o),
(220,300,cs),
(220,339,o),
(189,370,o),
(150,370,cs),
(111,370,o),
(80,339,o),
(80,300,cs),
(80,261,o),
(111,230,o),
(150,230,cs)
);
}
);
width = 300;
},
{
layerId = m002;
shapes = (
{
closed = 1;
nodes = (
(220,210,o),
(260,250,o),
(260,300,cs),
(260,350,o),
(220,390,o),
(170,390,cs),
(120,390,o),
(80,350,o),
(80,300,cs),
(80,250,o),
(120,210,o),
(170,210,cs)
);
}
);
width = 340;
}
);
unicode = 8226;
}
{
glyphname = ellipsis;
layers = (
{
layerId = m01;
shapes = (
{
closed = 1;
nodes = (
(60,0,l),
(120,0,l),
(120,60,l),
(60,60,l)
);
},
{
closed = 1;
nodes = (
(180,0,l),
(240,0,l),
(240,60,l),
(180,60,l)
);
},
{
closed = 1;
nodes = (
(300,0,l),
(360,0,l),
(360,60,l),
(300,60,l)
);
}
);
width = 420;
},
{
layerId = m002;
shapes = (
{
closed = 1;
nodes = (
(60,0,l),
(160,0,l),
(160,100,l),
(60,100,l)
);
},
{
closed = 1;
nodes = (
(240,0,l),
(340,0,l),
(340,100,l),
(240,100,l)
);
},
{
closed = 1;
nodes = (
(420,0,l),
(520,0,l),
(520,100,l),
(420,100,l)
);
}
);
width = 580;
}
);
unicode = 8230;
}
{
glyphname = perthousand;
layers = (
{
layerId = m01;
shapes = (
{
attr = {
identifier = ID0x7f9bfb475a90;
strokeHeight = 60;
strokeWidth = 60;
};
closed = 1;
nodes = (
(276,438,o),
(330,492,o),
(330,558,cs),
(330,624,o),
(276,678,o),
(210,678,cs),
(144,678,o),
(90,624,o),
(90,558,cs),
(90,492,o),
(144,438,o),
(210,438,cs)
);
},
{
closed = 1;
nodes = (
(620,700,l),
(78,0,l),
(156,0,l),
(698,700,l)
);
},
{
attr = {
identifier = ID0x7f9bfb475a90;
strokeHeight = 60;
strokeWidth = 60;
};
closed = 1;
nodes = (
(628,22,o),
(682,76,o),
(682,142,cs),
(682,208,o),
(628,262,o),
(562,262,cs),
(496,262,o),
(442,208,o),
(442,142,cs),
(442,76,o),
(496,22,o),
(562,22,cs)
);
},
{
attr = {
identifier = ID0x7f9bfb475a90;
strokeHeight = 60;
strokeWidth = 60;
};
closed = 1;
nodes = (
(978,22,o),
(1032,76,o),
(1032,142,cs),
(1032,208,o),
(978,262,o),
(912,262,cs),
(846,262,o),
(792,208,o),
(792,142,cs),
(792,76,o),
(846,22,o),
(912,22,cs)
);
}
);
width = 1102;
},
{
layerId = m002;
shapes = (
{
attr = {
identifier = ID0x7f9bfb4ed160;
strokeHeight = 120;
strokeWidth = 120;
};
closed = 1;
nodes = (
(316,408,o),
(370,462,o),
(370,528,cs),
(370,594,o),
(316,648,o),
(250,648,cs),
(184,648,o),
(130,594,o),
(130,528,cs),
(130,462,o),
(184,408,o),
(250,408,cs)
);
},
{
closed = 1;
nodes = (
(664,700,l),
(123,0,l),
(273,0,l),
(814,700,l)
);
},
{
attr = {
identifier = ID0x7f9bfb4ed160;
strokeHeight = 120;
strokeWidth = 120;
};
closed = 1;
nodes = (
(748,52,o),
(802,106,o),
(802,172,cs),
(802,238,o),
(748,292,o),
(682,292,cs),
(616,292,o),
(562,238,o),
(562,172,cs),
(562,106,o),
(616,52,o),
(682,52,cs)
);
},
{
attr = {
identifier = ID0x7f9bfb4ed160;
strokeHeight = 120;
strokeWidth = 120;
};
closed = 1;
nodes = (
(1148,52,o),
(1202,106,o),
(1202,172,cs),
(1202,238,o),
(1148,292,o),
(1082,292,cs),
(1016,292,o),
(962,238,o),
(962,172,cs),
(962,106,o),
(1016,52,o),
(1082,52,cs)
);
}
);
width = 1312;
}
);
unicode = 8240;
}
{
glyphname = guilsinglleft;
layers = (
{
background = {
shapes = (
{
attr = {
strokeWidth = 60;
};
closed = 0;
nodes = (
(372,0,l),
(122,250,l),
(372,500,l)
);
}
);
};
layerId = m01;
shapes = (
{
closed = 1;
nodes = (
(80,250,l),
(330,0,l),
(414,0,l),
(164,250,l),
(414,500,l),
(330,500,l)
);
}
);
width = 454;
},
{
background = {
shapes = (
{
attr = {
strokeWidth = 120;
};
closed = 0;
nodes = (
(415,0,l),
(165,250,l),
(415,500,l)
);
}
);
};
layerId = m002;
shapes = (
{
closed = 1;
nodes = (
(80,250,l),
(330,0,l),
(500,0,l),
(250,250,l),
(500,500,l),
(330,500,l)
);
}
);
width = 540;
}
);
unicode = 8249;
}
{
glyphname = guilsinglright;
layers = (
{
layerId = m01;
shapes = (
{
closed = 1;
nodes = (
(80,500,l),
(330,250,l),
(80,0,l),
(164,0,l),
(414,250,l),
(164,500,l)
);
}
);
width = 454;
},
{
layerId = m002;
shapes = (
{
closed = 1;
nodes = (
(80,500,l),
(330,250,l),
(80,0,l),
(250,0,l),
(500,250,l),
(250,500,l)
);
}
);
width = 540;
}
);
unicode = 8250;
}
{
glyphname = fraction;
layers = (
{
layerId = m01;
shapes = (
{
closed = 1;
nodes = (
(342,700,l),
(-200,0,l),
(-130,0,l),
(412,700,l)
);
}
);
width = 212;
},
{
layerId = m002;
shapes = (
{
closed = 1;
nodes = (
(341,700,l),
(-200,0,l),
(-50,0,l),
(491,700,l)
);
}
);
width = 291;
}
);
unicode = 8260;
}
{
glyphname = infinity;
layers = (
{
guides = (
{
angle = 45;
pos = (250,250);
},
{
angle = 45;
pos = (363,363);
},
{
angle = -45;
pos = (250,250);
},
{
angle = 45;
pos = (363,137);
},
{
angle = 45;
pos = (702,250);
},
{
angle = -45;
pos = (702,250);
}
);
layerId = m01;
shapes = (
{
attr = {
strokeHeight = 60;
strokeWidth = 60;
};
closed = 1;
nodes = (
(334,108,o),
(294,90,o),
(250,90,cs),
(162,90,o),
(90,162,o),
(90,250,cs),
(90,338,o),
(162,410,o),
(250,410,cs),
(294,410,o),
(334,392,o),
(363,363,cs),
(589,137,l),
(618,108,o),
(658,90,o),
(702,90,cs),
(790,90,o),
(862,162,o),
(862,250,cs),
(862,338,o),
(790,410,o),
(702,410,cs),
(658,410,o),
(618,392,o),
(589,363,cs),
(363,137,l)
);
}
);
width = 952;
},
{
layerId = m002;
shapes = (
{
attr = {
strokeHeight = 120;
strokeWidth = 120;
};
closed = 1;
nodes = (
(344,118,o),
(294,90,o),
(250,90,cs),
(162,90,o),
(90,162,o),
(90,250,cs),
(90,338,o),
(162,410,o),
(250,410,cs),
(294,410,o),
(344,382,o),
(373,353,cs),
(579,147,l),
(608,118,o),
(658,90,o),
(702,90,cs),
(790,90,o),
(862,162,o),
(862,250,cs),
(862,338,o),
(790,410,o),
(702,410,cs),
(658,410,o),
(608,382,o),
(579,353,cs),
(373,147,l)
);
}
);
width = 952;
}
);
unicode = 8734;
}
{
glyphname = approxequal;
layers = (
{
layerId = m01;
shapes = (
{
closed = 1;
nodes = (
(520,346,l),
(491,320,o),
(458,305,o),
(410,305,c),
(345,305,o),
(285,385,o),
(190,385,c),
(146,385,o),
(110,374,o),
(80,357,c),
(80,285,l),
(109,310,o),
(142,325,o),
(190,325,c),
(265,325,o),
(335,245,o),
(410,245,c),
(454,245,o),
(490,246,o),
(520,273,c)
);
},
{
closed = 1;
nodes = (
(520,216,l),
(491,190,o),
(458,175,o),
(410,175,c),
(335,175,o),
(265,255,o),
(190,255,c),
(146,255,o),
(110,254,o),
(80,227,c),
(80,155,l),
(109,180,o),
(142,195,o),
(190,195,c),
(255,195,o),
(315,115,o),
(410,115,c),
(454,115,o),
(490,126,o),
(520,143,c)
);
}
);
width = 600;
},
{
layerId = m002;
shapes = (
{
closed = 1;
nodes = (
(520,381,l),
(491,355,o),
(458,340,o),
(410,340,c),
(345,340,o),
(285,420,o),
(190,420,c),
(146,420,o),
(110,409,o),
(80,392,c),
(80,280,l),
(109,305,o),
(142,320,o),
(190,320,c),
(265,320,o),
(335,240,o),
(410,240,c),
(454,240,o),
(490,241,o),
(520,268,c)
);
},
{
closed = 1;
nodes = (
(520,221,l),
(491,195,o),
(458,180,o),
(410,180,c),
(335,180,o),
(265,260,o),
(190,260,c),
(146,260,o),
(110,259,o),
(80,232,c),
(80,120,l),
(109,145,o),
(142,160,o),
(190,160,c),
(255,160,o),
(315,80,o),
(410,80,c),
(454,80,o),
(490,91,o),
(520,108,c)
);
}
);
width = 600;
}
);
unicode = 8776;
}
{
glyphname = notequal;
layers = (
{
layerId = m01;
shapes = (
{
ref = equal;
},
{
closed = 1;
nodes = (
(105,60,l),
(185,60,l),
(415,440,l),
(335,440,l)
);
}
);
width = 520;
},
{
layerId = m002;
shapes = (
{
ref = equal;
},
{
closed = 1;
nodes = (
(85,40,l),
(225,40,l),
(515,460,l),
(375,460,l)
);
}
);
width = 600;
}
);
unicode = 8800;
}
{
glyphname = Rtail;
layers = (
{
layerId = m01;
shapes = (
{
closed = 1;
nodes = (
(312,280,l),
(484,0,l),
(556,1,l),
(381,286,l),
(472,309,o),
(540,392,o),
(540,490,cs),
(540,605,o),
(445,700,o),
(330,700,cs),
(80,700,l),
(80,-111,ls),
(80,-157,o),
(127,-200,o),
(170,-200,cs),
(198,-200,l),
(198,-140,l),
(170,-140,ls),
(155,-140,o),
(140,-125,o),
(140,-109,cs),
(140,280,l)
);
},
{
closed = 1;
nodes = (
(140,640,l),
(330,640,ls),
(417,640,o),
(480,577,o),
(480,490,cs),
(480,403,o),
(417,340,o),
(330,340,cs),
(140,340,l)
);
}
);
width = 600;
},
{
layerId = m002;
shapes = (
{
closed = 1;
nodes = (
(291,250,l),
(444,0,l),
(586,1,l),
(425,264,l),
(514,294,o),
(580,371,o),
(580,475,cs),
(580,610,o),
(469,700,o),
(340,700,cs),
(60,700,l),
(60,-50,ls),
(60,-129,o),
(141,-200,o),
(218,-200,cs),
(260,-200,l),
(260,-80,l),
(218,-80,ls),
(195,-80,o),
(180,-67,o),
(180,-50,cs),
(180,250,l)
);
},
{
closed = 1;
nodes = (
(180,580,l),
(340,580,ls),
(418,580,o),
(460,545,o),
(460,475,cs),
(460,405,o),
(418,370,o),
(340,370,cs),
(180,370,l)
);
}
);
width = 610;
}
);
unicode = 11364;
}
{
glyphname = "Alpha-latin";
kernLeft = O;
kernRight = l;
layers = (
{
layerId = m01;
shapes = (
{
closed = 1;
nodes = (
(243,55,o),
(115,183,o),
(115,350,cs),
(115,517,o),
(243,645,o),
(410,645,cs),
(577,645,o),
(705,517,o),
(705,350,c),
(705,183,o),
(577,55,o),
(410,55,cs)
);
},
{
closed = 1;
nodes = (
(45,155,o),
(205,-5,o),
(400,-5,cs),
(527,-5,o),
(659,73,o),
(702,174,c),
(702,90,ls),
(702,44,o),
(746,0,o),
(792,0,cs),
(822,0,l),
(822,60,l),
(792,60,ls),
(774,60,o),
(762,72,o),
(762,90,cs),
(762,700,l),
(702,700,l),
(702,526,l),
(659,627,o),
(527,705,o),
(400,705,cs),
(205,705,o),
(45,545,o),
(45,350,cs)
);
}
);
width = 842;
},
{
layerId = m002;
shapes = (
{
closed = 1;
nodes = (
(270,110,o),
(160,210,o),
(160,350,cs),
(160,490,o),
(270,590,o),
(410,590,cs),
(550,590,o),
(660,490,o),
(660,350,cs),
(660,210,o),
(550,110,o),
(410,110,cs)
);
},
{
closed = 1;
nodes = (
(40,152,o),
(202,-10,o),
(400,-10,cs),
(503,-10,o),
(596,34,o),
(661,103,c),
(663,98,ls),
(685,42,o),
(739,0,o),
(804,0,cs),
(824,0,l),
(824,120,l),
(804,120,ls),
(779,120,o),
(774,125,o),
(774,150,cs),
(774,700,l),
(654,700,l),
(654,605,l),
(589,670,o),
(499,710,o),
(400,710,cs),
(202,710,o),
(40,548,o),
(40,350,cs)
);
}
);
width = 864;
}
);
unicode = 11373;
}
{
export = 0;
glyphname = "a-hira";
layers = (
{
background = {
shapes = (
{
closed = 1;
nodes = (
(467,-21,o),
(545,57,o),
(545,154,cs),
(545,251,o),
(467,329,o),
(370,329,cs),
(273,329,o),
(195,251,o),
(195,154,cs),
(195,57,o),
(273,-21,o),
(370,-21,cs)
);
},
{
closed = 1;
nodes = (
(730,-347,o),
(901,-176,o),
(901,36,cs),
(901,247,o),
(730,418,o),
(519,418,cs),
(307,418,o),
(136,247,o),
(136,36,cs),
(136,-176,o),
(307,-347,o),
(519,-347,cs)
);
},
{
closed = 1;
nodes = (
(697,-30,o),
(786,59,o),
(786,169,cs),
(786,279,o),
(697,368,o),
(587,368,cs),
(477,368,o),
(388,279,o),
(388,169,cs),
(388,59,o),
(477,-30,o),
(587,-30,cs)
);
}
);
};
layerId = m01;
shapes = (
{
attr = {
strokeWidth = 60;
};
closed = 0;
nodes = (
(140,585,l),
(860,585,l)
);
},
{
attr = {
strokeWidth = 60;
};
closed = 0;
nodes = (
(430,700,l),
(365,458,o),
(355,241,o),
(457,26,cs)
);
},
{
attr = {
strokeHeight = 60;
strokeWidth = 60;
};
closed = 0;
nodes = (
(670,500,l),
(670,199,o),
(527,-21,o),
(374,-21,cs),
(278,-21,o),
(195,43,o),
(195,154,cs),
(195,306,o),
(341,418,o),
(520,418,cs),
(710,418,o),
(803,322,o),
(803,181,cs),
(803,45,o),
(672,-19,o),
(620,-26,cs)
);
}
);
width = 1000;
},
{
layerId = m002;
width = 1000;
}
);
unicode = 12354;
}
{
export = 0;
glyphname = "i-hira";
layers = (
{
layerId = m01;
width = 1000;
},
{
layerId = m002;
shapes = (
{
attr = {
strokeHeight = 60;
strokeWidth = 60;
};
closed = 0;
nodes = (
(269,643,l),
(145,386,o),
(177,25,o),
(324,25,cs),
(397,25,o),
(426,83,o),
(437,142,cs)
);
},
{
attr = {
strokeHeight = 60;
strokeWidth = 60;
};
closed = 0;
nodes = (
(671,596,l),
(775,451,o),
(824,236,o),
(752,67,cs)
);
}
);
width = 1000;
}
);
unicode = 12356;
}
{
export = 0;
glyphname = "u-hira";
layers = (
{
layerId = m01;
shapes = (
{
closed = 1;
nodes = (
(599,665,o),
(420,694,o),
(300,702,c),
(296,642,l),
(414,634,o),
(585,607,o),
(687,575,c),
(705,633,l)
);
},
{
attr = {
strokeHeight = 60;
strokeWidth = 60;
};
closed = 0;
nodes = (
(129,387,l),
(249,415,o),
(419,440,o),
(554,437,cs),
(712,434,o),
(803,352,o),
(801,230,cs),
(799,141,o),
(759,-22,o),
(443,-55,cs)
);
}
);
width = 1000;
},
{
layerId = m002;
width = 1000;
}
);
unicode = 12358;
}
{
export = 0;
glyphname = "e-hira";
layers = (
{
layerId = m01;
width = 1000;
},
{
layerId = m002;
shapes = (
{
attr = {
strokeHeight = 60;
strokeWidth = 60;
};
closed = 0;
nodes = (
(337,648,l),
(442,640,o),
(672,601,o),
(719,582,cs)
);
},
{
attr = {
strokeHeight = 60;
strokeWidth = 60;
};
closed = 0;
nodes = (
(201,458,l),
(761,458,l),
(536,287,o),
(327,72,o),
(241,-55,c)
);
},
{
attr = {
strokeHeight = 60;
strokeWidth = 60;
};
closed = 0;
nodes = (
(553,267,l),
(572,174,o),
(633,-23,o),
(801,-23,cs)
);
},
{
closed = 1;
nodes = (
(905,516,l),
(908,412,l),
(753,399,l),
(713,502,l)
);
}
);
width = 1000;
}
);
unicode = 12360;
}
{
export = 0;
glyphname = "o-hira";
layers = (
{
layerId = m01;
shapes = (
{
attr = {
strokeHeight = 60;
strokeWidth = 60;
};
closed = 0;
nodes = (
(133,609,l),
(592,609,l)
);
},
{
attr = {
strokeHeight = 60;
strokeWidth = 60;
};
closed = 0;
nodes = (
(350,807,l),
(350,-9,l),
(294,-9,o),
(144,2,o),
(144,148,cs),
(144,326,o),
(264,436,o),
(512,436,cs),
(732,436,o),
(791,316,o),
(791,201,cs),
(791,113,o),
(726,28,o),
(579,-9,cs)
);
},
{
attr = {
strokeHeight = 60;
strokeWidth = 60;
};
closed = 0;
nodes = (
(695,707,l),
(770,642,o),
(829,563,o),
(878,480,c)
);
}
);
width = 1000;
},
{
layerId = m002;
width = 1000;
}
);
unicode = 12362;
}
{
export = 0;
glyphname = "ka-hira";
layers = (
{
layerId = m01;
width = 1000;
},
{
layerId = m002;
shapes = (
{
attr = {
strokeHeight = 60;
strokeWidth = 60;
};
closed = 0;
nodes = (
(147,441,l),
(301,513,o),
(513,522,o),
(605,460,cs),
(684,407,o),
(663,23,o),
(583,-36,cs),
(506,-93,o),
(443,-64,o),
(376,0,cs)
);
},
{
attr = {
strokeHeight = 60;
strokeWidth = 60;
};
closed = 0;
nodes = (
(417,685,l),
(393,422,o),
(294,145,o),
(143,-75,cs)
);
},
{
attr = {
strokeHeight = 60;
strokeWidth = 60;
};
closed = 0;
nodes = (
(700,616,l),
(764,575,o),
(814,507,o),
(830,441,cs)
);
}
);
width = 1000;
}
);
unicode = 12363;
}
{
export = 0;
glyphname = "a-kata";
layers = (
{
layerId = m01;
shapes = (
{
attr = {
strokeHeight = 60;
strokeWidth = 60;
};
closed = 0;
nodes = (
(182,682,l),
(822,682,l),
(800,615,o),
(740,486,o),
(651,412,c)
);
},
{
attr = {
strokeHeight = 60;
strokeWidth = 60;
};
closed = 0;
nodes = (
(501,592,l),
(501,388,o),
(431,123,o),
(279,-38,cs)
);
}
);
width = 1000;
},
{
layerId = m002;
width = 1000;
}
);
unicode = 12450;
}
{
export = 0;
glyphname = "ku-kata";
layers = (
{
layerId = m01;
shapes = (
{
attr = {
strokeHeight = 60;
strokeWidth = 60;
};
closed = 0;
nodes = (
(430,758,l),
(388,593,o),
(317,476,o),
(188,380,cs)
);
},
{
attr = {
strokeHeight = 60;
strokeWidth = 60;
};
closed = 0;
nodes = (
(362,558,l),
(809,558,l),
(777,328,o),
(559,46,o),
(354,-27,c)
);
}
);
width = 1000;
},
{
layerId = m002;
width = 1000;
}
);
unicode = 12463;
}
{
export = 0;
glyphname = "ko-kata";
layers = (
{
layerId = m01;
shapes = (
{
attr = {
strokeHeight = 60;
strokeWidth = 60;
};
closed = 0;
nodes = (
(192,579,l),
(768,579,l),
(768,7,l),
(192,7,l)
);
}
);
width = 1000;
},
{
layerId = m002;
width = 1000;
}
);
unicode = 12467;
}
{
export = 0;
glyphname = "go-kata";
layers = (
{
layerId = m01;
shapes = (
{
alignment = -1;
ref = "ko-kata";
},
{
attr = {
strokeWidth = 60;
};
closed = 0;
nodes = (
(795,751,l),
(860,621,l)
);
},
{
attr = {
strokeWidth = 60;
};
closed = 0;
nodes = (
(894,794,l),
(959,664,l)
);
}
);
width = 1000;
},
{
layerId = m002;
width = 1000;
}
);
unicode = 12468;
}
{
export = 0;
glyphname = "si-kata";
layers = (
{
layerId = m01;
shapes = (
{
attr = {
strokeHeight = 60;
strokeWidth = 60;
};
closed = 0;
nodes = (
(256,710,l),
(526,609,l)
);
},
{
attr = {
strokeHeight = 60;
strokeWidth = 60;
};
closed = 0;
nodes = (
(195,488,l),
(465,387,l)
);
},
{
attr = {
strokeHeight = 60;
strokeWidth = 60;
};
closed = 0;
nodes = (
(816,590,l),
(697,214,o),
(516,68,o),
(196,-18,cs)
);
}
);
width = 1000;
},
{
layerId = m002;
width = 1000;
}
);
unicode = 12471;
}
{
export = 0;
glyphname = "tusmall-kata";
layers = (
{
layerId = m01;
shapes = (
{
attr = {
strokeHeight = 60;
strokeWidth = 60;
};
closed = 0;
nodes = (
(601,400,l),
(564,159,o),
(427,16,o),
(218,-18,cs)
);
},
{
attr = {
strokeHeight = 60;
strokeWidth = 60;
};
closed = 0;
nodes = (
(197,330,l),
(275,149,l)
);
},
{
attr = {
strokeHeight = 60;
strokeWidth = 60;
};
closed = 0;
nodes = (
(327,373,l),
(406,192,l)
);
}
);
vertOrigin = 245;
vertWidth = 773;
width = 800;
},
{
layerId = m002;
width = 1000;
}
);
unicode = 12483;
}
{
export = 0;
glyphname = "no-kata";
layers = (
{
layerId = m01;
shapes = (
{
attr = {
strokeHeight = 60;
strokeWidth = 60;
};
closed = 0;
nodes = (
(773,713,l),
(704,374,o),
(474,119,o),
(184,-18,cs)
);
}
);
width = 1000;
},
{
layerId = m002;
width = 1000;
}
);
unicode = 12494;
}
